<?xml version="1.0" encoding="UTF-8" standalone="no"?>
<!-- Created with Inkscape (http://www.inkscape.org/) -->

<svg
   xmlns:dc="http://purl.org/dc/elements/1.1/"
   xmlns:cc="http://creativecommons.org/ns#"
   xmlns:rdf="http://www.w3.org/1999/02/22-rdf-syntax-ns#"
   xmlns:svg="http://www.w3.org/2000/svg"
   xmlns="http://www.w3.org/2000/svg"
   xmlns:sodipodi="http://sodipodi.sourceforge.net/DTD/sodipodi-0.dtd"
   xmlns:inkscape="http://www.inkscape.org/namespaces/inkscape"
   width="500"
   height="500"
   viewBox="0 0 500 500.00001"
   id="svg5029"
   version="1.1"
   inkscape:version="0.91 r13725"
   sodipodi:docname="Tim-Kesenian.svg"
   inkscape:export-filename="/home/ars/git/BlankOn/blankon-mascot/maskot-tim/Tim-Kesenian.png"
   inkscape:export-xdpi="300.01099"
   inkscape:export-ydpi="300.01099">
  <defs
     id="defs5031">
    <linearGradient
       x1="11"
       x2="16"
       gradientTransform="matrix(0.81331,0,0,0.81133,3.994,2.028)"
       y1="10.442"
       gradientUnits="userSpaceOnUse"
       y2="24"
       id="linearGradient7193">
      <stop
         id="stop37"
         offset="0"
         stop-color="#5d5d5d" />
      <stop
         id="stop39"
         offset="1"
         stop-color="#171717" />
    </linearGradient>
  </defs>
  <sodipodi:namedview
     id="base"
     pagecolor="#ffffff"
     bordercolor="#666666"
     borderopacity="1.0"
     inkscape:pageopacity="0.0"
     inkscape:pageshadow="2"
     inkscape:zoom="0.66079443"
     inkscape:cx="218.07168"
     inkscape:cy="244.43096"
     inkscape:document-units="px"
     inkscape:current-layer="layer1"
     showgrid="false"
     inkscape:window-width="1366"
     inkscape:window-height="720"
     inkscape:window-x="0"
     inkscape:window-y="0"
     inkscape:window-maximized="1"
     units="px" />
  <metadata
     id="metadata5034">
    <rdf:RDF>
      <cc:Work
         rdf:about="">
        <dc:format>image/svg+xml</dc:format>
        <dc:type
           rdf:resource="http://purl.org/dc/dcmitype/StillImage" />
        <dc:title></dc:title>
      </cc:Work>
    </rdf:RDF>
  </metadata>
  <g
     inkscape:label="Layer 1"
     inkscape:groupmode="layer"
     id="layer1"
     transform="translate(0,-552.36216)">
    <g
       id="g7754"
       transform="translate(-12.551569,2.0322475)">
      <path
         inkscape:connector-curvature="0"
         id="path6897"
         d="m 196.51259,798.88684 25.67045,24.93681 31.35434,-22.18652 -15.85744,-5.03012 z"
         style="fill:#eaeeef;fill-opacity:1;stroke:none"
         sodipodi:nodetypes="ccccc" />
      <path
         style="fill:#d1dadc;fill-opacity:1;stroke:none"
         d="m 240.81729,798.84804 c -3.29718,3.57408 -15.80752,3.8898 -24.52411,3.29064 0.64843,2.89364 6.18467,6.64323 11.98252,7.76079 -9.29771,1.12451 -17.30249,-4.21572 -25.95191,-6.33286 l 8.44373,-9.80959 z"
         id="path6899"
         inkscape:connector-curvature="0"
         sodipodi:nodetypes="cccccc" />
      <path
         sodipodi:nodetypes="ccccscc"
         inkscape:connector-curvature="0"
         id="path6949"
         d="m 176.08933,857.3708 -14.52124,-8.03863 19.83742,-22.94865 -9.98378,-18.80008 c 0,0 -48.21112,31.05824 -43.04522,54.97351 2.33839,10.82551 23.33782,21.52267 23.33782,21.52267 z"
         style="fill:#eaeeef;fill-opacity:1;stroke:#6b797d;stroke-width:4.14895058px;stroke-linecap:butt;stroke-linejoin:round;stroke-opacity:1" />
      <path
         style="fill:#eaeeef;fill-opacity:1;stroke:#6b797d;stroke-width:4.14895058px;stroke-linecap:butt;stroke-linejoin:round;stroke-opacity:1"
         d="m 194.65224,847.22876 c -6.07163,-3.64322 1.8844,9.32843 1.15756,27.31791 -0.5891,14.57902 -9.49662,42.42384 -9.49662,42.42384 l -25.62718,81.04448 39.79664,0 34.07707,-90.94556 2.46748,90.94556 52.25055,0 c -0.7343,-7.32852 -5.72848,-13.91568 -12.31709,-18.63924 l -8.25346,-133.29958 z"
         id="path6951"
         inkscape:connector-curvature="0"
         sodipodi:nodetypes="csccccccccc" />
      <path
         id="path6953"
         d="m 265.68029,809.19419 c 0,0 2.51184,3.67049 17.75391,15.5332 4.33156,3.37166 9.64634,0.86019 13.3457,-1.83203 l 18.2793,24.83399 c -9.34147,2.70181 -19.33555,3.87655 -29.72461,2.57617 -15.06657,-1.88531 -32.92188,-24.20703 -32.92188,-24.20703 l 13.26758,-16.9043 z"
         style="fill:#eaeeef;fill-opacity:1;stroke:#6b797d;stroke-width:3.7499156px;stroke-linecap:butt;stroke-linejoin:round;stroke-opacity:1"
         inkscape:connector-curvature="0" />
      <path
         sodipodi:nodetypes="cccc"
         style="fill:#1795d7;fill-opacity:1;stroke:#0e5f86;stroke-width:4.14895058px;stroke-linecap:butt;stroke-linejoin:round;stroke-opacity:1"
         d="m 261.69388,801.98565 20.53642,3.57553 c -1.57207,10.18033 -6.88798,15.22874 -14.62422,18.21726 z"
         id="path6955"
         inkscape:connector-curvature="0" />
      <path
         sodipodi:nodetypes="cccccssccccccc"
         inkscape:connector-curvature="0"
         id="path6957"
         d="m 267.64294,862.38315 -9.14588,8.23686 1.09693,5.0066 c -4.15338,7.04363 -36.60649,11.39513 -52.65434,1.23101 l -6.03322,-13.00537 c 0,0 1.82625,8.72443 1.92583,12.51584 0.16179,6.20179 -1.21323,13.38316 -4.15312,22.37274 -6.98679,21.36167 -15.52043,50.3596 -15.52043,50.3596 l -3.14846,-5.72481 14.66852,-48.49873 2.93414,-28.42072 -1.28366,-11.00127 71.03704,0.84799 z"
         style="fill:#cbd5d7;fill-opacity:1;stroke:none" />
      <path
         style="fill:#1795d7;fill-opacity:1;stroke:#0e5f86;stroke-width:4.14895058px;stroke-linecap:butt;stroke-linejoin:round;stroke-opacity:1"
         d="m 175.31766,798.24495 c 9.42188,-0.92691 23.85936,-0.76252 31.62997,0.64138 0,0 5.97401,8.66182 11.18473,10.91056 5.72847,2.47194 13.58402,2.83367 18.7026,-0.7335 3.71718,-2.59059 5.20079,-10.63261 5.20079,-10.63261 l 19.47439,3.48391 c 4.13195,5.9471 7.37843,14.67897 8.85995,23.9452 0.26973,1.69571 -1.62722,7.13342 -1.34927,8.85054 1.03577,6.39154 2.65999,11.35737 2.12642,18.05796 l -7.06741,6.77104 -2.33367,12.15398 c -14.06374,11.57104 -36.01204,8.11455 -50.99276,1.42219 l -5.45626,-12.98694 -14.30184,-3.73612 -2.93375,-9.83103 -11.20878,-9.03427 8.81785,-17.8426 z"
         id="path6959"
         inkscape:connector-curvature="0"
         sodipodi:nodetypes="ccssccsscccccccccc" />
      <path
         sodipodi:nodetypes="cccssccsscc"
         style="fill:#cbd5d7;fill-opacity:1;stroke:none"
         d="m 161.56809,816.78865 -10.06442,8.84897 c 7.19992,0.509 16.23301,3.46352 19.98286,6.58023 0,0 -10.5014,9.65161 -13.58114,14.39175 -0.55395,0.85229 -1.23556,2.82425 -0.91083,4.12543 0.51175,2.04957 2.36962,3.39426 2.36962,3.39426 l 3.77598,-1.71765 c 0,0 -2.91259,-1.06387 -3.42668,-2.20939 -0.4349,-0.96834 0,-1.87278 0.68751,-2.68521 5.65123,-6.71798 15.16968,-17.11446 15.16968,-17.11446 z"
         id="path6961"
         inkscape:connector-curvature="0" />
      <path
         sodipodi:nodetypes="ccscc"
         inkscape:connector-curvature="0"
         id="path6963"
         d="m 143.28693,811.73239 c 0.90783,0.38995 35.26611,20.09631 35.26611,20.09631 0,0 7.67142,-7.29938 8.68705,-18.1518 0.5929,-6.33665 -4.27885,-15.68795 -4.27885,-15.68795 -13.6172,-0.78787 -28.81144,4.59168 -39.67431,13.74344 z"
         style="fill:#1795d7;fill-opacity:1;stroke:#0e5f86;stroke-width:4.14895058px;stroke-linecap:butt;stroke-linejoin:round;stroke-opacity:1" />
      <path
         sodipodi:nodetypes="cccsccsscc"
         inkscape:connector-curvature="0"
         id="path6965"
         d="m 205.74249,800.76497 3.00669,3.80239 -17.87541,-0.66568 c 0,0 3.91229,7.06363 3.40512,15.686 -0.76055,12.92969 -9.43598,21.82165 -9.43598,21.82165 l -5.42609,-4.45382 c 0,0 3.88342,-8.09259 5.27253,-10.25742 4.2003,-6.54666 5.0202,-11.95236 4.14019,-17.95958 -0.76917,-5.25214 -3.24188,-8.96213 -3.24188,-8.96213 6.49098,-0.0915 13.26267,-0.24359 20.15483,0.98859 z"
         style="fill:#1589c5;fill-opacity:1;stroke:none" />
      <path
         sodipodi:nodetypes="csccsc"
         inkscape:connector-curvature="0"
         id="path6967"
         d="m 146.65793,850.49889 c 0.25731,0 7.50847,-0.15355 9.72387,0.0666 3.52208,0.34434 7.32551,2.07414 7.32551,2.07414 l 3.17682,-1.81527 c 0,0 -3.66688,-2.72872 -8.88124,-2.59308 -6.81221,0.17853 -11.34496,2.26822 -11.34496,2.26822 z"
         style="fill:#6b797d;fill-opacity:1;stroke:none" />
      <path
         sodipodi:nodetypes="cccscscc"
         inkscape:connector-curvature="0"
         id="path6969"
         d="m 168.99016,853.67323 c -13.36434,-1.7915 -26.04719,14.82755 -22.84959,28.3146 6.81063,4.44468 9.59319,5.96866 16.75561,10.19275 0,0 -3.16061,10.51265 0.88666,14.77699 5.27241,5.55532 22.41678,4.56242 22.41678,4.56242 0,0 6.39807,-11.34364 9.37365,-28.52894 1.64747,-9.51608 0.31952,-15.39104 0.31952,-15.39104 z"
         style="fill:#1795d7;fill-opacity:1;stroke:#0e5f86;stroke-width:4.14895058px;stroke-linecap:butt;stroke-linejoin:round;stroke-opacity:1" />
      <path
         sodipodi:nodetypes="ccc"
         inkscape:connector-curvature="0"
         id="path6971"
         d="m 159.65755,890.38322 14.21049,6.76605 0.25313,4.79491"
         style="fill:none;stroke:#0e5f86;stroke-width:4.14895058px;stroke-linecap:round;stroke-linejoin:round;stroke-opacity:1" />
      <path
         sodipodi:nodetypes="csccscc"
         inkscape:connector-curvature="0"
         id="path6973"
         d="m 271.92765,839.13408 c 0,0 7.45658,5.2588 11.77228,6.1882 7.61823,1.64132 15.35643,-0.54847 15.35643,-0.54847 l 3.34618,3.98834 c 0,0 -11.99626,1.0061 -17.78563,-0.27377 -5.5182,-1.22029 -12.04199,-5.78662 -12.04199,-5.78662 z"
         style="fill:#cbd5d7;fill-opacity:1;stroke:none" />
      <path
         style="fill:#6b797d;fill-opacity:1;stroke:none"
         d="m 285.9024,827.04347 c -0.81347,-0.233 -2.77799,3.16728 -2.01939,5.97062 1.23977,-2.41483 2.25566,-4.33425 6.01453,-5.09258 z"
         id="path6975"
         inkscape:connector-curvature="0"
         sodipodi:nodetypes="cccc" />
      <path
         sodipodi:nodetypes="cccccccc"
         inkscape:connector-curvature="0"
         id="path6983"
         d="m 177.94524,943.88893 -11.001,33.47828 -6.36318,8.68836 -3.31247,11.91407 51.08018,0 -2.93035,-13.48614 6.30671,-16.73809 c -14.27204,-3.99879 -26.45659,-12.22038 -33.77989,-23.85648 z"
         style="fill:#c80c1a;fill-opacity:1;stroke:#721313;stroke-width:4.14895058px;stroke-linecap:butt;stroke-linejoin:round;stroke-opacity:1" />
      <path
         sodipodi:nodetypes="ccscccc"
         inkscape:connector-curvature="0"
         id="path6985"
         d="m 244.73586,903.31003 -9.70976,1.68329 c 0,0 1.52058,0.58832 1.52058,1.67819 0,18.93417 1.58868,56.78016 1.58868,56.78016 l 5.68403,-0.54977 -5.68403,-53.31193 z"
         style="fill:#cbd5d7;fill-opacity:1;stroke:none" />
      <path
         sodipodi:nodetypes="cccccccc"
         inkscape:connector-curvature="0"
         id="path6987"
         d="m 275.03809,950.65291 c -13.75624,9.40984 -27.33698,14.95902 -40.11693,13.87333 l 1.35135,17.52348 -2.30361,5.03809 -0.28633,10.88183 55.59554,0 c -0.73427,-7.32826 -5.72885,-13.81676 -12.31746,-18.54083 z"
         style="fill:#c80c1a;fill-opacity:1;stroke:#721313;stroke-width:4.14895058px;stroke-linecap:butt;stroke-linejoin:round;stroke-opacity:1" />
      <path
         sodipodi:nodetypes="cccc"
         inkscape:connector-curvature="0"
         id="path6989"
         d="m 154.2482,815.57227 c 5.87196,-6.67445 16.17421,-13.00653 27.38012,-15.56406 -12.35851,-0.17014 -24.24865,3.65406 -34.53091,11.43877 z"
         style="fill:#1fa3e7;fill-opacity:1;stroke:none" />
      <path
         sodipodi:nodetypes="ccccc"
         inkscape:connector-curvature="0"
         id="path6991"
         d="m 267.30827,808.10199 12.10577,0.43489 0.41072,-1.30653 -14.09693,-2.47521 z"
         style="fill:#1589c5;fill-opacity:1;stroke:none" />
      <path
         sodipodi:nodetypes="ccscsccc"
         inkscape:connector-curvature="0"
         id="path6993"
         d="m 148.45661,872.34602 27.37346,12.38177 c 0,0 3.30383,-5.64013 5.70482,-7.77936 2.41338,-2.15032 7.64985,-5.96369 7.64985,-5.96369 0,0 -6.16285,2.11348 -8.65687,4.11823 -2.05951,1.65585 -4.85958,5.34637 -4.85958,5.34637 l -25.80152,-12.00907 c -0.60191,1.2139 -1.06752,2.51873 -1.41016,3.90575 z"
         style="fill:#1ca2e7;fill-opacity:1;stroke:none" />
      <path
         style="fill:#1277aa;fill-opacity:1;stroke:none"
         d="m 180.46069,909.49563 c 3.9387,-1.20226 4.30551,-11.59324 0.9558,-17.38993 0,0 3.4072,-2.09048 4.30236,-3.7756 0.98271,-1.84977 0.56205,-5.33329 1.66826,-7.11197 1.09326,-1.75778 3.03974,-2.22299 4.30236,-3.86342 1.62016,-2.10497 2.54629,-6.23406 2.54629,-6.23406 0.47777,4.61494 -0.32813,9.41821 -1.49262,15.45351 -1.65402,8.57233 -4.66853,16.43649 -7.83463,22.94277 z"
         id="path6995"
         inkscape:connector-curvature="0"
         sodipodi:nodetypes="ccssscscc" />
      <path
         sodipodi:nodetypes="cccc"
         inkscape:connector-curvature="0"
         id="path6997"
         d="m 187.43637,893.31645 c 0.0915,0.36512 -3.8e-4,13.11029 -3.8e-4,13.11029 l 2.38385,-4.03408 z"
         style="fill:#0e5f86;fill-opacity:1;stroke:none" />
      <path
         style="fill:#0e5f86;fill-opacity:1;stroke:none"
         d="m 190.9825,880.26012 c 0.0915,0.36512 0.38759,13.26555 0.38759,13.26555 l 1.99587,-4.18973 z"
         id="path6999"
         inkscape:connector-curvature="0"
         sodipodi:nodetypes="cccc" />
      <path
         sodipodi:nodetypes="cccscscc"
         inkscape:connector-curvature="0"
         id="path7001"
         d="m 206.40164,858.29353 4.03775,1.16631 4.41696,10.68188 c 0,0 14.28982,6.13712 25.67161,6.02878 7.02782,-0.0666 16.30373,-3.63028 16.30373,-3.63028 0,0 -5.03731,4.00585 -15.65555,4.79738 -12.67566,0.94521 -29.17226,-5.57532 -29.17226,-5.57532 z"
         style="fill:#1277aa;fill-opacity:1;stroke:none" />
      <path
         sodipodi:nodetypes="cccc"
         inkscape:connector-curvature="0"
         id="path7007"
         d="m 234.09461,905.07956 12.85089,-3.04273 -12.3215,7.79622 z"
         style="fill:#748387;fill-opacity:1;stroke:none" />
      <path
         sodipodi:nodetypes="cccccc"
         inkscape:connector-curvature="0"
         id="path7009"
         d="m 263.63473,983.24505 11.81997,-0.0418 c 4.68539,2.81836 6.91661,7.3323 8.79905,12.66834 l 2.54459,0 c -1.62434,-6.22924 -5.42686,-10.59145 -10.74487,-14.44036 z"
         style="fill:#e12e2e;fill-opacity:1;stroke:none" />
      <path
         sodipodi:nodetypes="ccccc"
         inkscape:connector-curvature="0"
         id="path7011"
         d="m 271.13979,955.65911 0.53083,24.08842 3.2253,-0.45384 -1.69623,-24.90884 z"
         style="fill:#e12e2e;fill-opacity:1;stroke:none" />
      <path
         sodipodi:nodetypes="ccccccc"
         inkscape:connector-curvature="0"
         id="path7013"
         d="m 168.66699,978.533 -3.79271,8.71947 -0.45372,6.80685 15.62366,1.8146 -20.03161,0.0418 2.46317,-9.1405 z"
         style="fill:#a71818;fill-opacity:1;stroke:none" />
      <path
         sodipodi:nodetypes="cccccc"
         inkscape:connector-curvature="0"
         id="path7015"
         d="m 190.77615,982.4649 8.97521,4.56071 3.67993,8.84714 2.33395,0.0915 -2.15466,-10.12506 z"
         style="fill:#e12e2e;fill-opacity:1;stroke:none" />
      <path
         sodipodi:nodetypes="ccccc"
         inkscape:connector-curvature="0"
         id="path7017"
         d="m 206.5058,968.24199 -4.92571,14.3345 2.33498,0.29873 5.07429,-13.77061 z"
         style="fill:#e12e2e;fill-opacity:1;stroke:none" />
      <path
         sodipodi:nodetypes="cccc"
         inkscape:connector-curvature="0"
         id="path7019"
         d="m 266.71812,958.24225 4.99183,-1.49118 -0.0993,-1.3775 z"
         style="fill:#e12e2e;fill-opacity:1;stroke:none" />
      <path
         style="fill:#721313;fill-opacity:1;stroke:none"
         d="m 206.26482,982.0164 -21.93692,-1.29059 21.30195,5.6515 z"
         id="path7045"
         inkscape:connector-curvature="0"
         sodipodi:nodetypes="cccc" />
      <path
         sodipodi:nodetypes="cccc"
         inkscape:connector-curvature="0"
         id="path7047"
         d="m 277.02796,975.89694 -24.92935,8.8789 24.94802,-3.19839 z"
         style="fill:#721313;fill-opacity:1;stroke:none" />
      <path
         style="fill:#1277aa;fill-opacity:1;stroke:none"
         d="m 162.72812,856.30891 25.75042,12.75876 4.19861,-0.27378 -2.50225,1.88781 3.84641,-1.73817 -25.72088,-13.28646 c -1.98005,-0.13071 -3.84041,0.0784 -5.57231,0.65184 z"
         id="path7049"
         inkscape:connector-curvature="0"
         sodipodi:nodetypes="ccccccc" />
      <path
         style="fill:#cbd5d7;fill-opacity:1;stroke:none"
         d="m 272.46567,826.08846 4.88938,-3.78736 -1.21075,-0.97774 c -1.0457,0.811 -2.81052,2.0931 -3.98899,2.62314 0.1045,0.70422 0.22516,1.34233 0.31036,2.14196 z"
         id="path7057"
         inkscape:connector-curvature="0"
         sodipodi:nodetypes="ccccc" />
      <path
         sodipodi:nodetypes="ccssccssccccccc"
         inkscape:connector-curvature="0"
         id="path6636"
         d="m 175.52161,798.36224 c 9.42188,-0.92691 23.85936,-0.76252 31.62997,0.64138 0,0 5.97401,8.66182 11.18473,10.91056 5.72847,2.47194 13.58402,2.83367 18.7026,-0.7335 3.71718,-2.59059 5.20079,-10.63261 5.20079,-10.63261 l 19.47439,3.48391 c 4.13195,5.9471 7.37843,14.67897 8.85995,23.9452 0.26973,1.69571 -0.94096,7.15967 -1.34927,8.85054 -3.95253,16.36813 6.14502,60.18557 8.81024,92.36941 -11.64686,-8.618 -46.20734,2.35471 -66.23702,3.04882 l -18.91491,5.47817 c -1.35521,-19.86373 16.32226,-62.36955 -4.61758,-89.04532 l -11.20878,-9.03427 8.81785,-17.8426 z"
         style="fill:#c80c1a;fill-opacity:1;stroke:#721313;stroke-width:4.14900017;stroke-linecap:square;stroke-linejoin:round;stroke-miterlimit:4;stroke-dasharray:none;stroke-opacity:1" />
      <path
         style="fill:#212121;fill-opacity:1;stroke:#1a1a1a;stroke-width:3;stroke-linecap:butt;stroke-linejoin:round;stroke-miterlimit:4;stroke-dasharray:none;stroke-opacity:1"
         d="m 141.45453,761.3801 -18.11362,43.82785 c 19.10688,-16.1452 37.22155,-18.3995 55.40619,-21.63335 z"
         id="path6903"
         inkscape:connector-curvature="0"
         sodipodi:nodetypes="cccc" />
      <path
         style="color:#000000;display:inline;overflow:visible;visibility:visible;fill:#1795d7;fill-opacity:1;stroke:#0e5f86;stroke-width:3.71921039;stroke-linecap:round;stroke-linejoin:round;stroke-miterlimit:4;stroke-dashoffset:0;stroke-opacity:1;enable-background:accumulate"
         d="m 198.62803,613.82885 31.10763,-0.87698 c 40.65677,-1.1462 71.00633,30.77086 73.26657,71.38137 0,0 -6.06315,13.85975 -5.57088,22.32309 1.31242,22.56457 3.63538,36.16765 3.63538,36.16765 5.86398,34.35542 -30.70449,53.14793 -68.33432,54.20879 l -28.91653,0.81517 c -40.6573,1.14633 -74.31147,-30.66226 -75.45766,-71.31917 l -1.04989,-37.24226 c -1.14618,-40.65728 30.66228,-74.31133 71.3197,-75.45766 z"
         id="path6909"
         inkscape:connector-curvature="0"
         sodipodi:nodetypes="ssssssssss" />
      <path
         sodipodi:nodetypes="csccssccccccc"
         inkscape:connector-curvature="0"
         id="path6911"
         d="m 231.73742,612.95303 c 39.05934,0.86771 72.55056,32.0578 70.11103,71.38413 -1.04151,16.79089 -4.93289,29.11293 -0.61929,61.48214 -0.0941,15.59439 -14.36808,36.58166 -36.78486,39.49163 -2.09703,-3.66504 -5.64263,-8.29736 -10.31676,-8.29736 l -29.23879,0 c -5.17203,0 -9.19369,4.76979 -11.50203,8.4291 -33.31741,-6.19148 -63.84306,-28.7858 -64.83805,-64.08341 l 3.94633,-43.30008 c -0.72436,-25.69291 11.74574,-48.54564 31.25805,-62.20872 4.80873,-1.13299 9.82984,-1.91836 14.97039,-2.06329 l 29.1946,-0.83414 c 1.2706,-0.0353 2.55962,-0.0274 3.81938,0 z"
         style="color:#000000;display:inline;overflow:visible;visibility:visible;fill:#fae1d2;fill-opacity:1;stroke:#0e5f86;stroke-width:3.71921039;stroke-linecap:round;stroke-linejoin:round;stroke-miterlimit:4;stroke-dasharray:none;stroke-dashoffset:0;stroke-opacity:1;enable-background:accumulate" />
      <path
         id="path6913"
         d="m 156.06896,736.08872 c 1.52831,11.20272 25.65661,40.17559 52.95313,45.66602 -24.24376,-3.26882 -47.22105,-21.21759 -56.1543,-44.85547 1.01387,-0.0764 2.08445,-0.35149 3.20117,-0.81055 z"
         style="fill:#e8c8b5;fill-opacity:1;stroke:none"
         inkscape:connector-curvature="0" />
      <path
         sodipodi:nodetypes="csccccc"
         inkscape:connector-curvature="0"
         id="path6935"
         d="m 158.77833,745.47601 c 0,0 -2.22469,7.94661 -7.09707,10.93173 -3.47399,2.12838 -8.88464,1.89773 -8.88464,1.89773 14.4644,29.65054 55.25838,36.67954 78.18599,37.10517 l -17.86129,0.51866 c -31.40139,0.88522 -58.44737,-18.64876 -68.50629,-46.61197 z"
         style="fill:#1277aa;fill-opacity:1;stroke:none" />
      <path
         style="fill:#e8c8b5;fill-opacity:1;stroke:none"
         d="m 276.22492,749.74204 c -10.31544,1.86022 -59.16009,1.34547 -63.16947,-3.38172 0,0 1.69296,18.89704 17.36968,22.35404 17.07212,3.76462 35.1451,0.0666 35.04396,-0.25378 -2.52133,-9.41037 4.76626,-15.92292 4.76626,-15.92292 0,0 4.53995,-2.40724 5.98957,-2.79562 z"
         id="path7061"
         inkscape:connector-curvature="0"
         sodipodi:nodetypes="ccsccc" />
      <path
         sodipodi:nodetypes="ccsccc"
         inkscape:connector-curvature="0"
         id="path7063"
         d="m 265.53965,752.61542 c -15.8577,0.78918 -34.69047,0.6466 -49.61003,-2.68389 0,0 3.61015,14.25309 14.7323,16.9592 14.6859,3.57317 32.59737,0.74748 32.31823,0.085 l -0.87006,-7.70342 z"
         style="fill:#ffffff;stroke:none" />
      <path
         sodipodi:nodetypes="cccc"
         inkscape:connector-curvature="0"
         id="path7065"
         d="m 263.2849,758.24614 -13.87883,1.35398 14.51316,1.10463 z"
         style="fill:#e8c8b5;fill-opacity:1;stroke:none" />
      <path
         style="fill:#e8c8b5;fill-opacity:1;stroke:none"
         d="m 219.05366,758.36585 13.87881,1.35384 -14.51327,1.10464 z"
         id="path7067"
         inkscape:connector-curvature="0"
         sodipodi:nodetypes="cccc" />
      <circle
         r="2.4083939"
         cy="707.1853"
         cx="-253.72041"
         style="color:#000000;display:inline;overflow:visible;visibility:visible;fill:#ffffff;fill-opacity:1;fill-rule:nonzero;stroke:none;enable-background:accumulate"
         id="circle7075"
         transform="matrix(-0.9982775,-0.05866884,-0.05866884,0.9982775,0,0)" />
      <path
         style="fill:#f9f9f9;fill-opacity:1;stroke:none"
         d="m 228.81751,710.18859 c 0,0 2.03167,6.2674 0.49461,13.58102 -2.05375,9.77156 -6.50235,11.39407 -6.50235,11.39407 l -19.44879,-0.10057 c 0,0 -4.7664,-3.23417 -6.29861,-11.8274 -1.70956,-9.58718 0.19968,-14.12765 0.19968,-14.12765 l 19.66035,-3.79455 z"
         id="path7077"
         inkscape:connector-curvature="0"
         sodipodi:nodetypes="csccsccc" />
      <path
         sodipodi:nodetypes="cscsc"
         inkscape:connector-curvature="0"
         id="path7079"
         d="m 232.79931,712.71946 c 0,0 -10.96049,-4.89081 -17.28617,-5.63621 -11.22733,-1.32286 -21.6715,5.58786 -21.6715,5.58786 0,0 3.86015,-10.47371 22.43612,-8.51848 9.52287,1.00244 16.52155,8.56683 16.52155,8.56683 z"
         style="fill:#212121;fill-opacity:1;stroke:none" />
      <path
         style="fill:#212121;fill-opacity:1;stroke:none"
         d="m 196.82453,733.29352 c 0,0 7.65299,0.82708 14.60814,1.41684 8.14787,0.69103 15.68704,-1.92818 15.68704,-1.92818 0,0 -5.11506,4.40221 -15.72533,3.77651 -4.93079,-0.29063 -10.37674,-1.22108 -14.56985,-3.26517 z"
         id="path7081"
         inkscape:connector-curvature="0"
         sodipodi:nodetypes="cscsc" />
      <path
         sodipodi:nodetypes="csccsccc"
         inkscape:connector-curvature="0"
         id="path7083"
         d="m 227.95816,709.30023 c 0,0 1.97274,7.43201 -0.16374,14.59351 -2.95101,9.89128 -8.30286,11.39409 -8.30286,11.39409 l -14.23363,-0.72136 c 0,0 -4.7664,-3.23417 -6.29863,-11.82741 -1.70954,-9.58718 0.13768,-15.67972 0.13768,-15.67972 l 18.10827,-1.74575 z"
         style="fill:#212121;fill-opacity:1;stroke:none" />
      <circle
         r="4.4085851"
         cy="700.42798"
         cx="-252.20882"
         transform="matrix(-0.9982775,-0.05866885,-0.05866885,0.9982775,0,0)"
         id="circle7085"
         style="color:#000000;display:inline;overflow:visible;visibility:visible;fill:#ffffff;fill-opacity:1;fill-rule:nonzero;stroke:none;enable-background:accumulate" />
      <path
         sodipodi:nodetypes="cscsc"
         inkscape:connector-curvature="0"
         id="path7087"
         d="m 226.19163,718.55104 c 0,0 0.67601,14.83162 -12.98695,14.1922 -7.74642,-0.36238 -10.03644,-7.65861 -10.03644,-7.65861 0,0 5.59819,5.68338 11.86427,4.59966 8.37538,-1.44871 11.15912,-11.13325 11.15912,-11.13325 z"
         style="fill:#646464;fill-opacity:1;stroke:none" />
      <circle
         r="1.9702555"
         cy="734.72723"
         cx="234.31197"
         transform="matrix(0.9982775,-0.05866885,0.05866885,0.9982775,0,0)"
         id="circle7089"
         style="color:#000000;display:inline;overflow:visible;visibility:visible;fill:#ffffff;fill-opacity:1;fill-rule:nonzero;stroke:none;enable-background:accumulate" />
      <path
         sodipodi:nodetypes="csccsccc"
         inkscape:connector-curvature="0"
         id="path7091"
         d="m 262.91207,710.79076 c 0,0 -1.61401,6.08001 0.13344,11.93863 2.41403,8.09194 6.79245,9.32137 6.79245,9.32137 l 12.52211,-1.11692 c 0,0 3.89909,-2.64587 5.15269,-9.67577 1.39868,-7.84314 -0.11238,-12.82738 -0.11238,-12.82738 l -14.81396,-1.42807 z"
         style="fill:#f9f9f9;fill-opacity:1;stroke:none" />
      <path
         style="fill:#212121;fill-opacity:1;stroke:none"
         d="m 260.97894,712.55846 c 0,0 8.95939,-4.06413 14.14135,-4.61089 7.53289,-0.79493 17.36981,3.9967 17.36981,3.9967 0,0 -2.79877,-7.99381 -17.99537,-6.39415 -7.79047,0.82002 -13.51579,7.00834 -13.51579,7.00834 z"
         id="path7093"
         inkscape:connector-curvature="0"
         sodipodi:nodetypes="cscsc" />
      <path
         sodipodi:nodetypes="cscscc"
         inkscape:connector-curvature="0"
         id="path7095"
         d="m 289.25995,730.39519 c 0,0 -6.93973,0.60831 -11.95078,0.65627 -6.68909,0.0641 -12.37574,-0.64608 -12.37574,-0.64608 0,0 2.04748,2.19633 12.40711,2.15817 7.79072,-0.0288 11.91941,-2.16889 11.91941,-2.16889 z"
         style="fill:#212121;fill-opacity:1;stroke:none" />
      <path
         style="fill:#212121;fill-opacity:1;stroke:none"
         d="m 265.1071,710.264 c 0,0 -1.61389,6.07999 0.13344,11.93862 2.41404,8.09182 6.79247,9.32124 6.79247,9.32124 l 11.64407,-0.59002 c 0,0 3.89922,-2.64587 5.15283,-9.67577 1.39866,-7.84314 -0.11238,-12.82738 -0.11238,-12.82738 l -14.81399,-1.42807 z"
         id="path7097"
         inkscape:connector-curvature="0"
         sodipodi:nodetypes="csccsccc" />
      <circle
         r="3.6065695"
         cy="729.27637"
         cx="236.86305"
         style="color:#000000;display:inline;overflow:visible;visibility:visible;fill:#ffffff;fill-opacity:1;fill-rule:nonzero;stroke:none;enable-background:accumulate"
         id="circle7099"
         transform="matrix(0.9982775,-0.05866885,0.05866885,0.9982775,0,0)" />
      <path
         style="fill:#646464;fill-opacity:1;stroke:none"
         d="m 266.55229,717.83178 c 0,0 -0.55317,12.13347 10.62425,11.61049 6.33718,-0.29651 8.21073,-6.26544 8.21073,-6.26544 0,0 -4.5798,4.64945 -9.70584,3.7628 -6.85179,-1.185 -9.12914,-9.10785 -9.12914,-9.10785 z"
         id="path7101"
         inkscape:connector-curvature="0"
         sodipodi:nodetypes="cscsc" />
      <path
         sodipodi:nodetypes="csscssc"
         inkscape:connector-curvature="0"
         id="path7103"
         d="m 252.80467,723.25668 c 0,0 0.22868,3.82539 2.28336,8.25777 1.40741,3.03635 3.90928,5.17491 3.90928,6.77 0,3.4877 -7.06599,4.07393 -7.06599,4.07393 0,0 4.4516,-1.18238 4.43502,-3.96966 0,-0.9252 -2.1638,-3.18819 -3.00707,-6.17696 -1.30981,-4.64174 -0.5546,-8.95508 -0.5546,-8.95508 z"
         style="fill:#e8c8b5;fill-opacity:1;stroke:none" />
      <path
         style="fill:#212121;fill-opacity:1;stroke:none"
         d="m 264.69036,699.93547 c -1.34259,0.85412 -2.60223,3.12155 -2.56262,5.41118 11.09861,-6.20689 23.82799,-5.54381 31.9816,-2.59542 -6.47426,-8.4994 -20.90272,-8.23361 -29.41898,-2.81576 z"
         id="path7105"
         inkscape:connector-curvature="0"
         sodipodi:nodetypes="sccs" />
      <path
         sodipodi:nodetypes="sccs"
         inkscape:connector-curvature="0"
         id="path7107"
         d="m 227.80016,699.20575 c 1.43121,0.91045 2.77395,3.32762 2.73199,5.76833 -11.83134,-6.61657 -27.88427,-7.15144 -36.57618,-4.00847 6.90172,-9.06039 24.76575,-7.53524 33.84419,-1.75986 z"
         style="fill:#212121;fill-opacity:1;stroke:none" />
      <path
         sodipodi:nodetypes="cscsc"
         inkscape:connector-curvature="0"
         id="path7109"
         d="m 260.51594,785.98812 c 0,0 -2.82843,-5.79133 -6.87676,-5.85301 -10.46142,-0.15917 -29.5332,0 -29.5332,0 0,0 18.37278,1.50752 27.07969,1.50752 4.13339,0 9.33027,4.34549 9.33027,4.34549 z"
         style="fill:#1fa3e7;fill-opacity:1;stroke:none" />
      <path
         sodipodi:nodetypes="cscsc"
         inkscape:connector-curvature="0"
         id="path7111"
         d="m 261.01461,772.11334 c 0,0 -11.77985,0.23509 -17.38587,0.0418 -6.2874,-0.21627 -18.86648,-1.43826 -18.86648,-1.43826 0,0 12.40202,2.77629 18.6127,2.96107 5.66587,0.16845 17.63965,-1.56514 17.63965,-1.56514 z"
         style="fill:#e8c8b5;fill-opacity:1;stroke:none" />
      <path
         id="path6620"
         d="m 303.19787,674.22544 c 0.21593,0.0436 0.40972,0.0947 0.61914,0.14063 a 89.084991,70.649704 0 0 1 -0.0234,0.52343 c -0.19787,-0.22111 -0.3885,-0.44152 -0.5957,-0.66406 z"
         style="color:#000000;clip-rule:nonzero;display:inline;overflow:visible;visibility:visible;opacity:1;isolation:auto;mix-blend-mode:normal;color-interpolation:sRGB;color-interpolation-filters:linearRGB;solid-color:#000000;solid-opacity:1;fill:#1a1a1a;fill-opacity:1;fill-rule:nonzero;stroke:#1a1a1a;stroke-width:1.12194729px;stroke-linecap:butt;stroke-linejoin:miter;stroke-miterlimit:4;stroke-dasharray:none;stroke-dashoffset:0;stroke-opacity:1;color-rendering:auto;image-rendering:auto;shape-rendering:auto;text-rendering:auto;enable-background:accumulate"
         inkscape:connector-curvature="0" />
      <path
         sodipodi:nodetypes="ccccccccccccsccc"
         inkscape:connector-curvature="0"
         id="path6609"
         d="m 213.31616,603.41099 c 36.04519,0.0111 68.52991,17.24717 82.29688,43.66601 25.70258,7.75066 26.32795,39.32484 25.9707,41.32618 -6.76331,-7.43925 -9.54555,-12.10369 -19.81445,-14.17774 12.41841,13.3375 7.99337,24.02218 -3.84766,43.35156 -1.98652,-14.38654 -8.73474,-31.37324 -25.0332,-38.76172 0.37675,9.22799 5.34272,17.6378 -5.99414,28.95313 -1.49886,-13.52618 -12.90179,-21.03814 -24.57813,-28.38477 4.30805,2.17361 -8.91797,25.84961 -8.91797,25.84961 0,0 -22.17762,-29.63877 -21.77539,-25.95703 -0.99486,9.44033 -2.53604,18.76282 -13.76757,26.01563 -1.51685,-8.28766 -4.98183,-13.78398 -9.45313,-17.83594 3.92229,9.39328 -26.83734,56.59001 -39.31055,48.55469 -11.44235,-7.37123 -19.31458,-19.95729 -20.63811,-28.59849 -6.50093,-9.98093 -4.19269,-22.11885 -4.22126,-33.35268 8.8e-4,-39.01795 39.88471,-70.648 89.08398,-70.64844 z"
         style="fill:#212121;fill-opacity:1;stroke:#1a1a1a;stroke-width:3;stroke-linecap:butt;stroke-linejoin:miter;stroke-miterlimit:4;stroke-dasharray:none;stroke-opacity:1" />
      <path
         sodipodi:nodetypes="cccc"
         inkscape:connector-curvature="0"
         id="path6708"
         d="m 268.28348,861.06081 c -1.77662,7.36205 -23.4958,20.82625 -24.2325,19.82796 2.49731,0.34166 27.01687,-12.10895 26.50535,-13.13199 z"
         style="fill:#721313;fill-opacity:1;stroke:none;stroke-width:1px;stroke-linecap:butt;stroke-linejoin:miter;stroke-opacity:1" />
      <path
         style="fill:#721313;fill-opacity:1;stroke:none;stroke-width:1px;stroke-linecap:butt;stroke-linejoin:miter;stroke-opacity:1"
         d="m 249.37323,875.69897 c -12.47292,7.47308 -23.4497,7.46505 -29.1995,4.72991 1.95553,2.68246 22.25187,4.55718 29.1995,-4.72991 z"
         id="path6710"
         inkscape:connector-curvature="0"
         sodipodi:nodetypes="ccc" />
      <g
         style="fill:#ffffff;fill-opacity:1"
         transform="matrix(1,-0.19884571,0,1,-279.70463,42.800448)"
         id="g6589">
        <path
           inkscape:connector-curvature="0"
           id="path7115"
           style="font-style:normal;font-variant:normal;font-weight:bold;font-stretch:normal;font-size:16.25px;line-height:0%;font-family:Sansation;-inkscape-font-specification:'Sansation Bold';text-align:center;letter-spacing:0px;word-spacing:0px;writing-mode:lr-tb;text-anchor:middle;fill:#ffffff;fill-opacity:1;stroke:none"
           d="m 488.44207,888.7455 0.84494,-8.00593 3.88014,0.7825 c 1.57521,0.31767 2.27583,1.30063 2.14466,2.54351 -0.0961,0.9107 -0.55145,1.32211 -1.49946,1.48608 0.85502,0.405 1.33398,1.09047 1.22683,2.10567 -0.16662,1.57879 -1.11279,2.19418 -2.83857,1.84614 z m 3.83072,-0.54254 c 0.67951,0.13703 1.05472,-0.13036 1.12563,-0.80219 0.0878,-0.83231 -0.37594,-1.35086 -1.39133,-1.55563 l -1.99146,-0.40161 0.127,-1.20336 c 0.99591,0.20084 1.72615,0.35733 2.37127,0.48744 0.71834,0.14486 1.10616,-0.15588 1.18367,-0.89024 0.0473,-0.44788 -0.19338,-0.93212 -0.7648,-1.04736 l -2.24698,-0.45314 -0.57314,5.43059 z"
           sodipodi:nodetypes="ccsscsscsssccsscccs" />
        <path
           inkscape:connector-curvature="0"
           id="path7117"
           style="font-style:normal;font-variant:normal;font-weight:bold;font-stretch:normal;font-size:16.25px;line-height:0%;font-family:Sansation;-inkscape-font-specification:'Sansation Bold';text-align:center;letter-spacing:0px;word-spacing:0px;writing-mode:lr-tb;text-anchor:middle;fill:#ffffff;fill-opacity:1;stroke:none"
           d="m 497.59148,882.41431 -0.84495,8.00593 -1.5347,-0.3095 0.84495,-8.00593 z" />
        <path
           inkscape:connector-curvature="0"
           id="path7119"
           style="font-style:normal;font-variant:normal;font-weight:bold;font-stretch:normal;font-size:16.25px;line-height:0%;font-family:Sansation;-inkscape-font-specification:'Sansation Bold';text-align:center;letter-spacing:0px;word-spacing:0px;writing-mode:lr-tb;text-anchor:middle;fill:#ffffff;fill-opacity:1;stroke:none"
           d="m 497.28265,888.65867 c 0.12329,-1.16823 1.06523,-1.57482 2.82576,-1.21978 0.4131,0.0833 0.82227,0.20393 1.2275,0.3619 l 0.0467,-0.44229 c 0.0555,-0.52626 -0.30856,-0.86841 -1.0923,-1.02647 -0.6641,-0.13392 -1.41134,-0.18933 -2.24178,-0.16622 l 0.12408,-1.1757 c 0.83044,-0.0231 1.57768,0.0323 2.24179,0.16622 1.80679,0.36438 2.64208,1.19227 2.50578,2.48368 l -0.41597,3.94137 -0.89183,-0.17986 -0.48879,-0.63603 c -0.56596,0.24418 -1.1675,0.30201 -1.80453,0.17355 -1.48638,-0.29976 -2.1652,-1.05988 -2.03639,-2.28037 z m 3.9469,0.14986 c -0.37823,-0.15247 -0.78739,-0.27314 -1.2275,-0.3619 -0.73747,-0.14872 -1.13172,0.0195 -1.18293,0.50474 -0.0552,0.52254 0.22616,0.84609 0.84385,0.97066 0.50959,0.10277 0.9987,0.0451 1.46731,-0.17294 z" />
        <path
           inkscape:connector-curvature="0"
           id="path7121"
           style="font-style:normal;font-variant:normal;font-weight:bold;font-stretch:normal;font-size:16.25px;line-height:0%;font-family:Sansation;-inkscape-font-specification:'Sansation Bold';text-align:center;letter-spacing:0px;word-spacing:0px;writing-mode:lr-tb;text-anchor:middle;fill:#ffffff;fill-opacity:1;stroke:none"
           d="m 503.09108,891.69974 0.62042,-5.87849 1.26785,0.25569 0.0194,0.88445 c 0.64368,-0.4572 1.33805,-0.61068 2.08317,-0.46042 1.44011,0.29043 2.08371,1.15971 1.93087,2.60787 l -0.39116,3.70624 -1.53462,-0.30949 0.39116,-3.70623 c 0.0685,-0.64943 -0.23118,-1.04151 -0.89909,-1.17621 -0.49806,-0.10044 -1.0048,-0.006 -1.52023,0.28234 l -0.43311,4.10375 z"
           sodipodi:nodetypes="cccccsccscccc" />
        <path
           sodipodi:nodetypes="cccccsccscccc"
           d="m 523.13903,895.74276 0.62041,-5.87848 1.26785,0.25568 0.0194,0.88445 c 0.64368,-0.45719 1.33804,-0.61068 2.08318,-0.46042 1.4401,0.29044 2.0837,1.15972 1.93086,2.60788 l -0.39116,3.70624 -1.53462,-0.30949 0.39116,-3.70624 c 0.0685,-0.64942 -0.23118,-1.0415 -0.89909,-1.1762 -0.49806,-0.10044 -1.00481,-0.006 -1.52023,0.28234 l -0.43311,4.10374 z"
           style="font-style:normal;font-variant:normal;font-weight:bold;font-stretch:normal;font-size:16.25px;line-height:0%;font-family:Sansation;-inkscape-font-specification:'Sansation Bold';text-align:center;letter-spacing:0px;word-spacing:0px;writing-mode:lr-tb;text-anchor:middle;fill:#ffffff;fill-opacity:1;stroke:none"
           id="path7123"
           inkscape:connector-curvature="0" />
        <path
           inkscape:connector-curvature="0"
           id="path7125"
           d="m 519.28583,886.78758 c -2.30363,-0.46457 -4.35944,0.96271 -4.59447,3.18964 -0.23502,2.22693 1.44011,4.40662 3.74373,4.87119 2.30362,0.46457 4.35943,-0.96271 4.59446,-3.18964 0.23503,-2.22693 -1.4401,-4.40662 -3.74372,-4.87119 z m -0.14333,1.35807 c 1.52769,0.30809 2.63814,1.75293 2.48227,3.22982 -0.15587,1.47688 -1.51865,2.42294 -3.04634,2.11486 -1.5277,-0.30809 -2.63816,-1.75293 -2.48229,-3.22981 0.15587,-1.47689 1.51866,-2.42295 3.04636,-2.11487 z"
           style="color:#000000;display:inline;overflow:visible;visibility:visible;fill:#ffffff;fill-opacity:1;fill-rule:nonzero;stroke:none;enable-background:accumulate" />
        <path
           d="m 511.64141,885.24774 -0.84494,8.00593 -1.5347,-0.3095 0.84494,-8.00593 z"
           style="font-style:normal;font-variant:normal;font-weight:bold;font-stretch:normal;font-size:16.25px;line-height:0%;font-family:Sansation;-inkscape-font-specification:'Sansation Bold';text-align:center;letter-spacing:0px;word-spacing:0px;writing-mode:lr-tb;text-anchor:middle;fill:#ffffff;fill-opacity:1;stroke:none"
           id="path7129"
           inkscape:connector-curvature="0" />
        <path
           inkscape:connector-curvature="0"
           id="path7131"
           style="font-style:normal;font-variant:normal;font-weight:bold;font-stretch:normal;font-size:16.25px;line-height:0%;font-family:Sansation;-inkscape-font-specification:'Sansation Bold';text-align:center;letter-spacing:0px;word-spacing:0px;writing-mode:lr-tb;text-anchor:middle;fill:#ffffff;fill-opacity:1;stroke:none"
           d="m 515.08354,888.06588 -2.44906,2.53228 2.35583,3.50128 -1.69148,-0.34112 -2.35583,-3.50128 2.44906,-2.53228 z"
           sodipodi:nodetypes="ccccccc" />
        <path
           sodipodi:nodetypes="ccsscsscsssccsscccs"
           d="m 488.44207,888.7455 0.84494,-8.00593 3.88014,0.7825 c 1.57521,0.31767 2.27583,1.30063 2.14466,2.54351 -0.0961,0.9107 -0.55145,1.32211 -1.49946,1.48608 0.85502,0.405 1.33398,1.09047 1.22683,2.10567 -0.16662,1.57879 -1.11279,2.19418 -2.83857,1.84614 z m 3.83072,-0.54254 c 0.67951,0.13703 1.05472,-0.13036 1.12563,-0.80219 0.0878,-0.83231 -0.37594,-1.35086 -1.39133,-1.55563 l -1.99146,-0.40161 0.127,-1.20336 c 0.99591,0.20084 1.72615,0.35733 2.37127,0.48744 0.71834,0.14486 1.10616,-0.15588 1.18367,-0.89024 0.0473,-0.44788 -0.19338,-0.93212 -0.7648,-1.04736 l -2.24698,-0.45314 -0.57314,5.43059 z"
           style="font-style:normal;font-variant:normal;font-weight:bold;font-stretch:normal;font-size:16.25px;line-height:0%;font-family:Sansation;-inkscape-font-specification:'Sansation Bold';text-align:center;letter-spacing:0px;word-spacing:0px;writing-mode:lr-tb;text-anchor:middle;fill:#ffffff;fill-opacity:1;stroke:none"
           id="path7133"
           inkscape:connector-curvature="0" />
        <path
           d="m 497.59148,882.41431 -0.84495,8.00593 -1.5347,-0.3095 0.84495,-8.00593 z"
           style="font-style:normal;font-variant:normal;font-weight:bold;font-stretch:normal;font-size:16.25px;line-height:0%;font-family:Sansation;-inkscape-font-specification:'Sansation Bold';text-align:center;letter-spacing:0px;word-spacing:0px;writing-mode:lr-tb;text-anchor:middle;fill:#ffffff;fill-opacity:1;stroke:none"
           id="path7135"
           inkscape:connector-curvature="0" />
        <path
           d="m 497.28265,888.65867 c 0.12329,-1.16823 1.06523,-1.57482 2.82576,-1.21978 0.4131,0.0833 0.82227,0.20393 1.2275,0.3619 l 0.0467,-0.44229 c 0.0555,-0.52626 -0.30856,-0.86841 -1.0923,-1.02647 -0.6641,-0.13392 -1.41134,-0.18933 -2.24178,-0.16622 l 0.12408,-1.1757 c 0.83044,-0.0231 1.57768,0.0323 2.24179,0.16622 1.80679,0.36438 2.64208,1.19227 2.50578,2.48368 l -0.41597,3.94137 -0.89183,-0.17986 -0.48879,-0.63603 c -0.56596,0.24418 -1.1675,0.30201 -1.80453,0.17355 -1.48638,-0.29976 -2.1652,-1.05988 -2.03639,-2.28037 z m 3.9469,0.14986 c -0.37823,-0.15247 -0.78739,-0.27314 -1.2275,-0.3619 -0.73747,-0.14872 -1.13172,0.0195 -1.18293,0.50474 -0.0552,0.52254 0.22616,0.84609 0.84385,0.97066 0.50959,0.10277 0.9987,0.0451 1.46731,-0.17294 z"
           style="font-style:normal;font-variant:normal;font-weight:bold;font-stretch:normal;font-size:16.25px;line-height:0%;font-family:Sansation;-inkscape-font-specification:'Sansation Bold';text-align:center;letter-spacing:0px;word-spacing:0px;writing-mode:lr-tb;text-anchor:middle;fill:#ffffff;fill-opacity:1;stroke:none"
           id="path7137"
           inkscape:connector-curvature="0" />
        <path
           sodipodi:nodetypes="cccccsccscccc"
           d="m 503.09108,891.69974 0.62042,-5.87849 1.26785,0.25569 0.0194,0.88445 c 0.64368,-0.4572 1.33805,-0.61068 2.08317,-0.46042 1.44011,0.29043 2.08371,1.15971 1.93087,2.60787 l -0.39116,3.70624 -1.53462,-0.30949 0.39116,-3.70623 c 0.0685,-0.64943 -0.23118,-1.04151 -0.89909,-1.17621 -0.49806,-0.10044 -1.0048,-0.006 -1.52023,0.28234 l -0.43311,4.10375 z"
           style="font-style:normal;font-variant:normal;font-weight:bold;font-stretch:normal;font-size:16.25px;line-height:0%;font-family:Sansation;-inkscape-font-specification:'Sansation Bold';text-align:center;letter-spacing:0px;word-spacing:0px;writing-mode:lr-tb;text-anchor:middle;fill:#ffffff;fill-opacity:1;stroke:none"
           id="path7139"
           inkscape:connector-curvature="0" />
        <path
           inkscape:connector-curvature="0"
           id="path7141"
           style="font-style:normal;font-variant:normal;font-weight:bold;font-stretch:normal;font-size:16.25px;line-height:0%;font-family:Sansation;-inkscape-font-specification:'Sansation Bold';text-align:center;letter-spacing:0px;word-spacing:0px;writing-mode:lr-tb;text-anchor:middle;fill:#ffffff;fill-opacity:1;stroke:none"
           d="m 523.13903,895.74276 0.62041,-5.87848 1.26785,0.25568 0.0194,0.88445 c 0.64368,-0.45719 1.33804,-0.61068 2.08318,-0.46042 1.4401,0.29044 2.0837,1.15972 1.93086,2.60788 l -0.39116,3.70624 -1.53462,-0.30949 0.39116,-3.70624 c 0.0685,-0.64942 -0.23118,-1.0415 -0.89909,-1.1762 -0.49806,-0.10044 -1.00481,-0.006 -1.52023,0.28234 l -0.43311,4.10374 z"
           sodipodi:nodetypes="cccccsccscccc" />
        <path
           style="color:#000000;display:inline;overflow:visible;visibility:visible;fill:#ffffff;fill-opacity:1;fill-rule:nonzero;stroke:none;enable-background:accumulate"
           d="m 519.28583,886.78758 c -2.30363,-0.46457 -4.35944,0.96271 -4.59447,3.18964 -0.23502,2.22693 1.44011,4.40662 3.74373,4.87119 2.30362,0.46457 4.35943,-0.96271 4.59446,-3.18964 0.23503,-2.22693 -1.4401,-4.40662 -3.74372,-4.87119 z m -0.14333,1.35807 c 1.52769,0.30809 2.63814,1.75293 2.48227,3.22982 -0.15587,1.47688 -1.51865,2.42294 -3.04634,2.11486 -1.5277,-0.30809 -2.63816,-1.75293 -2.48229,-3.22981 0.15587,-1.47689 1.51866,-2.42295 3.04636,-2.11487 z"
           id="path7143"
           inkscape:connector-curvature="0" />
        <path
           inkscape:connector-curvature="0"
           id="path7147"
           style="font-style:normal;font-variant:normal;font-weight:bold;font-stretch:normal;font-size:16.25px;line-height:0%;font-family:Sansation;-inkscape-font-specification:'Sansation Bold';text-align:center;letter-spacing:0px;word-spacing:0px;writing-mode:lr-tb;text-anchor:middle;fill:#ffffff;fill-opacity:1;stroke:none"
           d="m 511.64141,885.24774 -0.84494,8.00593 -1.5347,-0.3095 0.84494,-8.00593 z" />
        <path
           sodipodi:nodetypes="ccccccc"
           d="m 515.08354,888.06588 -2.44906,2.53228 2.35583,3.50128 -1.69148,-0.34112 -2.35583,-3.50128 2.44906,-2.53228 z"
           style="font-style:normal;font-variant:normal;font-weight:bold;font-stretch:normal;font-size:16.25px;line-height:0%;font-family:Sansation;-inkscape-font-specification:'Sansation Bold';text-align:center;letter-spacing:0px;word-spacing:0px;writing-mode:lr-tb;text-anchor:middle;fill:#ffffff;fill-opacity:1;stroke:none"
           id="path7149"
           inkscape:connector-curvature="0" />
      </g>
      <path
         sodipodi:nodetypes="ccccccc"
         inkscape:connector-curvature="0"
         id="path6754"
         d="m 222.07525,602.07052 c 2.65002,-0.0122 5.27227,0.73005 7.85742,0.96338 -13.6623,1.03606 -27.53355,4.34865 -40.36914,11.32901 -35.62017,19.48244 -48.04517,47.23418 -43.04926,80.90941 l -14.12695,0 c -4.99969,-33.67181 7.41834,-61.42264 43.03363,-80.90941 14.84227,-8.10138 31.03574,-12.20313 46.6543,-12.29239 z"
         style="color:#000000;clip-rule:nonzero;display:inline;overflow:visible;visibility:visible;opacity:1;isolation:auto;mix-blend-mode:normal;color-interpolation:sRGB;color-interpolation-filters:linearRGB;solid-color:#000000;solid-opacity:1;fill:#eaeeef;fill-opacity:1;fill-rule:nonzero;stroke:#6b797d;stroke-width:3;stroke-linecap:round;stroke-linejoin:round;stroke-miterlimit:4;stroke-dasharray:none;stroke-dashoffset:0;stroke-opacity:1;color-rendering:auto;image-rendering:auto;shape-rendering:auto;text-rendering:auto;enable-background:accumulate" />
      <path
         sodipodi:nodetypes="sssssssss"
         inkscape:connector-curvature="0"
         id="path6937"
         d="m 121.30753,710.94875 c 0.19615,6.95582 -0.24724,10.67484 3.69666,26.13658 3.11201,12.20102 8.47261,17.73871 15.29357,17.54634 5.07141,-0.14297 2.40045,-0.068 6.57188,-0.18529 5.19857,-0.14661 11.94555,-8.65125 11.79905,-13.85034 -0.41713,-14.79634 -0.57603,-20.42797 -0.93906,-33.30527 -0.16256,-5.76428 -3.57173,-13.06038 -12.94081,-12.79628 -4.62213,0.13071 -7.10178,0.20021 -10.55395,0.29757 -9.37455,0.26423 -13.0737,10.96452 -12.92734,16.15657 z"
         style="fill:#eaeeef;fill-opacity:1;stroke:#6b797d;stroke-width:2.47947359px;stroke-linecap:butt;stroke-linejoin:miter;stroke-opacity:1" />
      <path
         sodipodi:nodetypes="csccssccc"
         inkscape:connector-curvature="0"
         id="path7059"
         d="m 145.16728,695.75856 c 8.17806,-0.23065 11.16265,6.15801 11.30456,11.18956 0.31703,11.24029 0.65458,20.3902 1.01865,33.30554 0.13495,4.78339 -5.56264,11.94006 -9.94811,12.87768 0,0 6.4378,-5.56002 6.4378,-12.24532 0,-11.86258 -0.61237,-31.4321 -0.61237,-31.4321 0,-8.98358 -6.70988,-11.67859 -13.95044,-13.61878 1.05014,-0.03 4.37162,-0.0379 5.74991,-0.0771 z"
         style="fill:#cbd5d7;fill-opacity:1;stroke:none" />
      <path
         style="fill:#6b797d;fill-opacity:1;stroke:#000000;stroke-width:0.27357289;stroke-opacity:0.04705882"
         inkscape:connector-curvature="0"
         id="path181"
         d="m 146.29229,716.39398 -8.23747,1.41659 -1.00758,10.00477 c -0.4566,-0.12672 -1.0124,-0.11917 -1.58042,0.0569 -1.22757,0.38056 -2.03826,1.39383 -1.81535,2.26412 0.2229,0.87019 1.39628,1.26592 2.62381,0.88537 1.04865,-0.32521 1.78938,-1.11345 1.84617,-1.8784 l 0.006,0 0.81523,-8.0948 5.76827,-1.01186 -0.68149,6.76686 c -0.4566,-0.12672 -1.01239,-0.11918 -1.58041,0.0569 -1.22758,0.38055 -2.03826,1.39382 -1.81537,2.26411 0.2229,0.87019 1.39627,1.26592 2.6238,0.88537 1.04865,-0.32521 1.78939,-1.11344 1.84619,-1.8784 l 0.006,0 1.18208,-11.73747 z" />
      <path
         style="opacity:0.6;fill:#ececec;fill-opacity:1"
         d="m 259.67428,869.30787 c 0.30754,-0.12435 0.48595,-0.66333 0.40015,-1.20888 -0.054,-0.34358 -0.16521,-0.57985 -0.72369,-1.53816 -0.79455,-1.36343 -1.17409,-2.15283 -1.54105,-3.20542 -0.15407,-0.44187 -0.74336,-2.48845 -0.74336,-2.58157 0,-0.0923 0.14065,-0.18685 0.27795,-0.18685 0.16524,0 0.32274,0.15951 0.4232,0.42863 0.0889,0.23809 0.16407,0.3289 0.33071,0.39942 0.26577,0.11248 0.60011,0.037 0.8229,-0.18578 0.17545,-0.17545 0.18536,-0.25687 0.0912,-0.74908 -0.0838,-0.43785 -0.0759,-0.58711 0.0444,-0.84138 0.19634,-0.41502 0.5952,-0.57568 0.9243,-0.37229 0.078,0.0482 0.28261,0.29112 0.48162,0.57174 0.81353,1.14716 1.36066,1.6677 1.75597,1.67067 0.29836,0.003 0.71446,-0.43427 0.76691,-0.80452 0.0647,-0.45659 -0.27102,-0.74709 -1.47629,-1.27756 -0.69567,-0.30617 -0.88255,-0.41549 -1.1037,-0.64566 -0.22982,-0.23917 -0.3444,-0.49372 -0.36282,-0.80608 -0.0417,-0.70709 0.4601,-0.80238 1.01727,-0.19314 0.089,0.0974 0.33201,0.40271 0.53992,0.67856 0.46246,0.61354 0.71365,0.86391 1.00272,0.99953 0.1958,0.0918 0.26999,0.10353 0.64263,0.10117 0.35435,-0.002 0.45175,-0.0173 0.61297,-0.0952 0.3229,-0.15593 0.62199,-0.56741 0.73626,-1.01293 0.0771,-0.30044 0.0584,-0.81512 -0.0379,-1.04494 -0.0866,-0.20654 -0.3972,-0.52801 -0.66573,-0.6889 -0.39689,-0.23782 -0.71504,-0.30487 -1.82918,-0.38546 -1.09133,-0.079 -1.55788,-0.16853 -2.54777,-0.48913 -0.59367,-0.19228 -0.84439,-0.31191 -0.95897,-0.45759 -0.10431,-0.13261 -0.10537,-0.20145 -0.006,-0.3651 0.14263,-0.23393 0.2815,-0.27085 1.40321,-0.3732 0.56255,-0.0513 0.67738,-0.0955 0.84279,-0.32381 0.14679,-0.20264 0.18736,-0.42329 0.11099,-0.60383 -0.0935,-0.22093 -0.20256,-0.2905 -0.48361,-0.30838 -0.23865,-0.0152 -0.26864,-0.006 -0.64972,0.19723 -1.16438,0.62128 -1.40422,0.70144 -1.72881,0.57786 -0.2863,-0.109 -0.41627,-0.26434 -0.41509,-0.4961 0.003,-0.57027 0.73337,-1.55698 1.46479,-1.97867 0.17724,-0.10217 0.416,-0.27006 0.53058,-0.37307 0.42731,-0.3842 0.80075,-1.09751 0.89602,-1.71153 0.0251,-0.16141 0.0384,-0.52123 0.0298,-0.7996 -0.0148,-0.47432 -0.024,-0.52278 -0.14658,-0.77182 -0.32421,-0.65855 -0.85496,-0.76425 -1.31567,-0.26201 -0.0908,0.099 -0.20135,0.27782 -0.24565,0.39741 -0.0443,0.11957 -0.15722,0.71304 -0.25094,1.31879 -0.23429,1.51449 -0.28315,1.67868 -0.64645,2.1723 -0.34396,0.46738 -0.7131,0.75862 -0.96149,0.75862 -0.047,0 -0.14694,-0.0614 -0.22196,-0.13642 -0.16458,-0.16457 -0.17176,-0.27019 -0.0562,-0.82651 0.0946,-0.45528 0.10225,-0.90472 0.0206,-1.20498 -0.0328,-0.12064 -0.0993,-0.36382 -0.14764,-0.54035 -0.10556,-0.3853 -0.11122,-0.80052 -0.0148,-1.0833 0.0376,-0.11033 0.1956,-0.43172 0.35104,-0.71418 0.33138,-0.60217 0.37057,-0.77527 0.22435,-0.99102 -0.11894,-0.17553 -0.48809,-0.40123 -0.65622,-0.40123 -0.25769,0 -0.26355,0.0264 -0.29562,1.33161 l -0.0289,1.17603 -0.26772,0.54165 c -0.30004,0.60705 -0.37207,0.84432 -0.4323,1.42408 -0.0484,0.46596 -0.0897,0.57054 -0.26597,0.67315 -0.14596,0.085 -0.51656,0.1025 -0.65068,0.0307 -0.0456,-0.0244 -0.20096,-0.20514 -0.34518,-0.40163 -0.31981,-0.43571 -0.61685,-0.71139 -0.80446,-0.74658 -0.29468,-0.0553 -0.55607,0.015 -0.84273,0.2266 -0.23107,0.17058 -0.29378,0.19784 -0.45327,0.19709 -0.22111,-0.002 -0.4566,-0.101 -0.66121,-0.28067 -0.31778,-0.27901 -0.33484,-0.46128 -0.10033,-1.07204 0.20515,-0.5343 0.22378,-0.83344 0.0805,-1.29297 -0.21034,-0.67474 -0.48437,-1.0618 -0.8367,-1.18184 -0.26714,-0.091 -0.72057,-0.0823 -0.99167,0.0192 -0.37667,0.14094 -0.6247,0.50717 -0.6247,0.92238 0,0.19878 0.0979,0.52931 0.36017,1.21606 0.41496,1.0865 0.49521,1.57359 0.31918,1.93723 -0.14961,0.30905 -0.54097,0.57346 -0.85147,0.57526 -0.24207,0.002 -0.44941,-0.13552 -0.96772,-0.63901 -0.53355,-0.51829 -0.66204,-0.60391 -0.90641,-0.60391 -0.33881,0 -0.48292,0.1563 -0.58237,0.63159 -0.0944,0.45131 0.0349,0.83528 0.40125,1.19134 0.21761,0.21149 0.47419,0.34886 0.98136,0.52539 0.64828,0.22566 0.88491,0.43064 0.88491,0.76662 0,0.36754 -0.35368,0.62433 -0.8957,0.6503 -0.52491,0.0251 -0.82304,-0.0913 -1.4314,-0.55902 -1.48755,-1.1437 -2.08103,-1.55867 -2.55557,-1.78692 -0.15885,-0.0764 -0.46583,-0.18584 -0.68216,-0.2432 -0.3344,-0.0887 -0.48054,-0.10462 -0.97512,-0.10637 -0.50765,-0.002 -0.61021,0.009 -0.80492,0.0861 -0.25427,0.1004 -0.44674,0.27127 -0.5713,0.50716 -0.16573,0.31386 -0.0996,0.86974 0.14918,1.25486 0.13972,0.21627 0.23794,0.23396 0.81808,0.14735 0.68523,-0.1023 1.66086,-0.1023 2.13422,2e-5 0.52307,0.11307 0.95969,0.27833 1.7052,0.64535 0.94007,0.4628 1.15275,0.66 1.15275,1.06881 0,0.24704 -0.11146,0.42828 -0.38252,0.62203 -0.27968,0.19991 -0.5037,0.41292 -0.57293,0.54478 -0.0852,0.1624 -0.0736,0.58594 0.0204,0.74003 0.0423,0.0694 0.20183,0.22581 0.35448,0.34761 0.15264,0.12179 0.32511,0.27797 0.38326,0.34709 0.35803,0.4255 0.15166,0.89641 -0.53411,1.21878 -0.42725,0.20085 -0.71544,0.22721 -1.38236,0.12639 -0.63945,-0.0967 -0.91074,-0.0684 -1.3259,0.13814 -0.70303,0.34975 -1.12149,0.85337 -1.38587,1.66793 -0.0781,0.24078 -0.0937,0.39097 -0.10918,1.05249 -0.0249,1.06374 0.0292,1.34819 0.31842,1.67765 0.26461,0.30139 0.58327,0.3705 0.93589,0.20303 0.52036,-0.24713 0.96049,-0.95389 1.24394,-1.99753 0.25082,-0.9235 0.36829,-1.19364 0.64719,-1.48833 0.40706,-0.43009 1.41145,-0.85443 1.83456,-0.77507 0.18722,0.0351 0.51379,0.33333 0.62972,0.57502 0.0662,0.13804 0.0917,0.26338 0.092,0.45182 3.1e-4,0.32965 -0.0754,0.48272 -0.632,1.27503 -0.74251,1.05688 -0.93699,1.42929 -1.02592,1.96457 -0.0643,0.38687 -0.0275,0.58299 0.14092,0.75139 0.14795,0.14797 0.5119,0.30223 0.71217,0.30189 0.33284,0 0.66597,-0.20253 0.74757,-0.45317 0.0229,-0.0706 0.0697,-0.38368 0.10385,-0.69568 0.12859,-1.17561 0.23199,-1.53406 0.53962,-1.87066 0.26642,-0.29149 0.50481,-0.40509 0.88957,-0.4239 0.24248,-0.0119 0.34392,0.003 0.48812,0.0656 0.30917,0.13676 0.33102,0.20303 0.31778,0.96344 l -0.0114,0.65717 0.13804,0.13019 c 0.0759,0.0716 0.219,0.15285 0.31797,0.18058 0.15665,0.0438 0.19912,0.0412 0.32814,-0.0201 0.27608,-0.131 0.61159,-0.68597 0.87873,-1.45342 0.23953,-0.68817 0.30856,-0.77118 0.64114,-0.77118 0.17136,0 0.21342,0.0175 0.32343,0.13407 0.25488,0.27024 0.3233,0.78887 0.18767,1.42237 -0.1414,0.66043 -0.52744,1.73011 -0.96588,2.67646 -0.59635,1.28714 -0.67687,1.57657 -0.55787,2.0052 0.0949,0.3417 0.51098,0.59386 0.75447,0.45718 0.2586,-0.14515 0.58645,-0.77002 0.68147,-1.29885 0.0238,-0.13238 0.0705,-0.57475 0.10382,-0.98298 0.1299,-1.5919 0.36273,-2.6594 0.80832,-3.70594 0.33506,-0.78699 0.5191,-0.94053 0.89647,-0.74801 0.31299,0.15967 0.48628,0.51521 0.4898,1.00485 0.002,0.29694 -0.003,0.31306 -0.29361,0.89786 l -0.29577,0.59547 0,0.57989 0,0.57988 0.12826,0.11467 c 0.16615,0.14853 0.35863,0.19939 0.75443,0.19939 0.42811,0 0.59195,-0.0506 0.73795,-0.22766 0.26751,-0.32452 0.26242,-0.74983 -0.0203,-1.69774 -0.17051,-0.57169 -0.18591,-0.65918 -0.19077,-1.08333 -0.005,-0.41834 0.004,-0.47965 0.0946,-0.65696 0.11302,-0.22134 0.33726,-0.42634 0.4663,-0.42634 0.19508,0 0.5135,0.49894 0.77568,1.21539 0.36423,0.99531 0.59705,2.02583 0.86307,3.81999 0.22839,1.54041 0.27715,1.77334 0.44598,2.13031 0.16685,0.3528 0.4028,0.59491 0.72946,0.7485 0.24529,0.11536 0.63837,0.17876 0.77229,0.1246 z"
         id="path6817"
         inkscape:connector-curvature="0" />
      <path
         inkscape:connector-curvature="0"
         id="path6823"
         d="m 209.11518,896.32004 c -0.35921,-0.14524 -0.5676,-0.77478 -0.46738,-1.41199 0.0631,-0.4013 0.19296,-0.67727 0.84527,-1.79659 0.92805,-1.5925 1.37136,-2.51453 1.79997,-3.74397 0.17996,-0.51611 0.86825,-2.90654 0.86825,-3.0153 0,-0.10781 -0.16428,-0.21825 -0.32464,-0.21825 -0.19301,0 -0.37697,0.18631 -0.49431,0.50065 -0.10383,0.27809 -0.19163,0.38416 -0.38627,0.46653 -0.31042,0.13137 -0.70094,0.0432 -0.96116,-0.217 -0.20493,-0.20492 -0.2165,-0.30002 -0.10652,-0.87493 0.0979,-0.51142 0.0886,-0.68575 -0.0519,-0.98274 -0.22933,-0.48475 -0.6952,-0.67241 -1.0796,-0.43484 -0.0911,0.0563 -0.33009,0.34003 -0.56253,0.6678 -0.95022,1.33989 -1.58927,1.94789 -2.051,1.95136 -0.34849,0.004 -0.8345,-0.50723 -0.89576,-0.93969 -0.0756,-0.5333 0.31656,-0.87261 1.72433,-1.49221 0.81255,-0.35761 1.03083,-0.48529 1.28913,-0.75414 0.26843,-0.27935 0.40227,-0.57667 0.42378,-0.94151 0.0487,-0.82589 -0.5374,-0.93719 -1.18818,-0.22559 -0.10396,0.11377 -0.3878,0.47037 -0.63064,0.79257 -0.54016,0.71662 -0.83355,1.00906 -1.17119,1.16746 -0.22869,0.10723 -0.31535,0.12093 -0.7506,0.11817 -0.41388,-0.002 -0.52765,-0.0202 -0.71595,-0.11119 -0.37715,-0.18213 -0.7265,-0.66275 -0.85996,-1.18312 -0.0901,-0.35092 -0.0682,-0.95207 0.0443,-1.2205 0.10115,-0.24124 0.46394,-0.61672 0.77758,-0.80465 0.46358,-0.27777 0.83518,-0.35609 2.13651,-0.45022 1.27469,-0.0923 1.81962,-0.19684 2.97583,-0.57131 0.69341,-0.22458 0.98626,-0.36431 1.12009,-0.53447 0.12183,-0.15489 0.12307,-0.23529 0.007,-0.42644 -0.16659,-0.27323 -0.32879,-0.31636 -1.63896,-0.4359 -0.65707,-0.0599 -0.79119,-0.11155 -0.98439,-0.37822 -0.17145,-0.23668 -0.21884,-0.4944 -0.12964,-0.70528 0.10921,-0.25805 0.23659,-0.3393 0.56486,-0.36019 0.27875,-0.0177 0.31378,-0.007 0.75888,0.23037 1.36001,0.72566 1.64015,0.81929 2.01928,0.67495 0.3344,-0.12732 0.4862,-0.30876 0.48483,-0.57946 -0.004,-0.66608 -0.85659,-1.81857 -1.7109,-2.31111 -0.20702,-0.11933 -0.48589,-0.31543 -0.61972,-0.43575 -0.4991,-0.44875 -0.93529,-1.2819 -1.04656,-1.99909 -0.0293,-0.18852 -0.0449,-0.6088 -0.0348,-0.93394 0.0173,-0.55401 0.028,-0.61061 0.17121,-0.90149 0.37868,-0.7692 0.9986,-0.89266 1.53672,-0.30603 0.10605,0.11563 0.23517,0.32449 0.28692,0.46417 0.0517,0.13966 0.18363,0.83284 0.2931,1.54037 0.27365,1.76894 0.33072,1.96072 0.75506,2.53727 0.40175,0.54591 0.83291,0.88608 1.12303,0.88608 0.0549,0 0.17163,-0.0717 0.25926,-0.15934 0.19223,-0.19222 0.20061,-0.31559 0.0656,-0.96537 -0.1105,-0.53178 -0.11943,-1.05673 -0.0241,-1.40744 0.0383,-0.14091 0.11598,-0.42494 0.17244,-0.63113 0.1233,-0.45004 0.12991,-0.93502 0.0173,-1.26531 -0.0439,-0.12887 -0.22846,-0.50425 -0.41002,-0.83417 -0.38706,-0.70334 -0.43283,-0.90553 -0.26204,-1.15753 0.13892,-0.20502 0.57009,-0.46864 0.76647,-0.46864 0.30098,0 0.30783,0.0308 0.34529,1.55534 l 0.0337,1.37362 0.3127,0.63265 c 0.35045,0.70904 0.43459,0.98618 0.50493,1.66335 0.0565,0.54424 0.10478,0.66639 0.31066,0.78624 0.17048,0.0993 0.60335,0.11972 0.76,0.0359 0.0533,-0.0285 0.23473,-0.2396 0.40318,-0.46911 0.37354,-0.50891 0.72049,-0.83091 0.93962,-0.87201 0.34419,-0.0646 0.64949,0.0175 0.98432,0.26467 0.26989,0.19924 0.34314,0.23108 0.52942,0.2302 0.25826,-0.002 0.53332,-0.11797 0.7723,-0.32782 0.37117,-0.32589 0.3911,-0.53878 0.11719,-1.25216 -0.23962,-0.62407 -0.26138,-0.97347 -0.094,-1.5102 0.24568,-0.78811 0.56576,-1.2402 0.97728,-1.38041 0.31202,-0.10629 0.84164,-0.0961 1.15828,0.0224 0.43996,0.16462 0.72966,0.59238 0.72966,1.07735 0,0.23218 -0.11435,0.61824 -0.42068,1.42037 -0.48468,1.26905 -0.57841,1.83797 -0.37281,2.26271 0.17475,0.36098 0.63186,0.66981 0.99453,0.67191 0.28274,0.002 0.52492,-0.15829 1.13031,-0.74637 0.62319,-0.60537 0.77327,-0.70537 1.0587,-0.70537 0.39573,0 0.56405,0.18256 0.68021,0.7377 0.11026,0.52714 -0.0408,0.97562 -0.46866,1.3915 -0.25417,0.24702 -0.55386,0.40747 -1.14624,0.61366 -0.7572,0.26358 -1.03359,0.503 -1.03359,0.89542 0,0.4293 0.4131,0.72923 1.04619,0.75956 0.6131,0.0293 0.96132,-0.10664 1.67189,-0.65294 1.73748,-1.33585 2.43067,-1.82055 2.98494,-2.08714 0.18554,-0.0892 0.5441,-0.21707 0.79677,-0.28406 0.39059,-0.10361 0.56128,-0.1222 1.13895,-0.12425 0.59295,-0.002 0.71274,0.0105 0.94016,0.10057 0.29699,0.11727 0.5218,0.31685 0.66729,0.59237 0.19357,0.36659 0.11633,1.01587 -0.17425,1.46569 -0.16319,0.25261 -0.27791,0.27327 -0.95552,0.17211 -0.80036,-0.11949 -1.93991,-0.11949 -2.4928,2e-5 -0.61095,0.13207 -1.12093,0.32509 -1.9917,0.75378 -1.09801,0.54055 -1.34642,0.77089 -1.34642,1.24838 0,0.28855 0.13018,0.50024 0.44679,0.72654 0.32667,0.2335 0.58832,0.4823 0.66919,0.63631 0.0995,0.18969 0.086,0.68439 -0.0238,0.86436 -0.0494,0.0811 -0.23574,0.26375 -0.41404,0.40602 -0.17828,0.14225 -0.37973,0.32467 -0.44765,0.4054 -0.41819,0.49699 -0.17714,1.04702 0.62385,1.42355 0.49903,0.2346 0.83564,0.26539 1.61461,0.14763 0.74689,-0.11295 1.06376,-0.0799 1.54867,0.16135 0.82115,0.40851 1.30991,0.99674 1.61871,1.94816 0.0912,0.28124 0.10944,0.45666 0.12752,1.22932 0.0291,1.24246 -0.0341,1.57471 -0.37191,1.95952 -0.30907,0.35203 -0.68127,0.43275 -1.09314,0.23714 -0.60778,-0.28865 -1.12186,-1.11415 -1.45293,-2.33314 -0.29296,-1.07866 -0.43017,-1.39419 -0.75593,-1.73839 -0.47545,-0.50235 -1.64859,-0.99798 -2.14279,-0.90529 -0.21867,0.041 -0.60011,0.38933 -0.73552,0.67163 -0.0773,0.16123 -0.10711,0.30763 -0.10746,0.52773 -3.6e-4,0.38504 0.0881,0.56383 0.73819,1.48925 0.86726,1.23445 1.09441,1.66943 1.19829,2.29465 0.0751,0.45187 0.0321,0.68094 -0.1646,0.87763 -0.17281,0.17283 -0.59791,0.35301 -0.83182,0.35261 -0.38877,0 -0.77787,-0.23656 -0.87318,-0.52931 -0.0267,-0.0825 -0.0814,-0.44814 -0.12129,-0.81256 -0.1502,-1.37313 -0.27097,-1.7918 -0.63029,-2.18495 -0.31118,-0.34047 -0.58962,-0.47316 -1.03903,-0.49513 -0.28322,-0.0139 -0.4017,0.004 -0.57013,0.0766 -0.36111,0.15973 -0.38663,0.23714 -0.37117,1.12531 l 0.0133,0.76758 -0.16123,0.15206 c -0.0887,0.0836 -0.2558,0.17853 -0.3714,0.21092 -0.18297,0.0512 -0.23257,0.0481 -0.38327,-0.0235 -0.32246,-0.15301 -0.71434,-0.80123 -1.02637,-1.69762 -0.27977,-0.80379 -0.3604,-0.90075 -0.74886,-0.90075 -0.20015,0 -0.24927,0.0204 -0.37777,0.1566 -0.2977,0.31564 -0.37761,0.92141 -0.2192,1.66135 0.16516,0.77139 0.61606,2.02079 1.12816,3.12613 0.69655,1.5034 0.7906,1.84146 0.6516,2.3421 -0.11084,0.39911 -0.59683,0.69364 -0.88123,0.534 -0.30205,-0.16954 -0.68498,-0.8994 -0.79596,-1.51708 -0.0278,-0.15462 -0.0823,-0.67131 -0.12127,-1.14813 -0.15172,-1.85936 -0.42367,-3.10621 -0.94413,-4.32858 -0.39135,-0.91922 -0.60631,-1.09856 -1.04708,-0.87369 -0.36558,0.1865 -0.56798,0.60177 -0.5721,1.17368 -0.002,0.34683 0.004,0.36566 0.34294,1.04871 l 0.34547,0.69552 0,0.67731 0,0.67731 -0.14981,0.13394 c -0.19407,0.17348 -0.41889,0.23289 -0.88119,0.23289 -0.50003,0 -0.6914,-0.0591 -0.86193,-0.26591 -0.31246,-0.37905 -0.30651,-0.87581 0.0237,-1.98298 0.19916,-0.66774 0.21715,-0.76993 0.22282,-1.26535 0.006,-0.48862 -0.005,-0.56023 -0.11049,-0.76733 -0.13201,-0.25853 -0.39393,-0.49797 -0.54465,-0.49797 -0.22785,0 -0.59977,0.58276 -0.906,1.41959 -0.42543,1.16253 -0.69736,2.36619 -1.00808,4.46179 -0.26676,1.79922 -0.32371,2.07129 -0.52091,2.48823 -0.19488,0.41208 -0.47047,0.69486 -0.85202,0.87426 -0.2865,0.13474 -0.74562,0.20879 -0.90204,0.14553 z"
         style="opacity:0.7;fill:#ffc500;fill-opacity:1" />
      <path
         style="opacity:0.6;fill:#05cd00;fill-opacity:1"
         d="m 221.24766,873.251 c -0.2817,-0.1139 -0.44513,-0.6076 -0.36653,-1.10732 0.0495,-0.31472 0.15132,-0.53114 0.66289,-1.40895 0.7278,-1.24889 1.07546,-1.97197 1.41159,-2.93614 0.14113,-0.40475 0.68091,-2.2794 0.68091,-2.3647 0,-0.0845 -0.12883,-0.17116 -0.25459,-0.17116 -0.15137,0 -0.29563,0.14611 -0.38766,0.39263 -0.0814,0.21809 -0.15028,0.30127 -0.30292,0.36587 -0.24344,0.10302 -0.5497,0.0339 -0.75377,-0.17018 -0.16072,-0.16071 -0.16979,-0.23529 -0.0835,-0.68615 0.0768,-0.40107 0.0695,-0.53779 -0.0407,-0.7707 -0.17985,-0.38015 -0.5452,-0.52732 -0.84666,-0.34101 -0.0714,0.0441 -0.25887,0.26666 -0.44115,0.52371 -0.7452,1.05078 -1.24636,1.5276 -1.60846,1.53032 -0.2733,0.003 -0.65445,-0.39779 -0.70249,-0.73694 -0.0593,-0.41823 0.24826,-0.68433 1.35228,-1.17024 0.63723,-0.28045 0.80841,-0.38058 1.01097,-0.59142 0.21052,-0.21907 0.31548,-0.45224 0.33235,-0.73836 0.0382,-0.64769 -0.42145,-0.73498 -0.93181,-0.17692 -0.0815,0.0892 -0.30413,0.36888 -0.49457,0.62156 -0.42361,0.562 -0.6537,0.79134 -0.91849,0.91556 -0.17934,0.0841 -0.2473,0.0948 -0.58864,0.0927 -0.32458,-0.002 -0.4138,-0.0158 -0.56147,-0.0872 -0.29578,-0.14283 -0.56975,-0.51975 -0.67441,-0.92784 -0.0707,-0.27521 -0.0535,-0.74665 0.0347,-0.95716 0.0793,-0.18919 0.36384,-0.48365 0.6098,-0.63103 0.36356,-0.21784 0.65498,-0.27926 1.67552,-0.35308 0.99966,-0.0724 1.42701,-0.15437 2.33375,-0.44804 0.54379,-0.17612 0.77345,-0.2857 0.87841,-0.41915 0.0955,-0.12147 0.0965,-0.18452 0.005,-0.33443 -0.13065,-0.21427 -0.25785,-0.2481 -1.28533,-0.34184 -0.51529,-0.047 -0.62048,-0.0875 -0.77199,-0.29661 -0.13446,-0.18562 -0.17162,-0.38773 -0.10167,-0.55311 0.0856,-0.20237 0.18554,-0.26609 0.44298,-0.28247 0.21861,-0.0139 0.24608,-0.005 0.59514,0.18066 1.06657,0.56909 1.28626,0.64252 1.58359,0.52932 0.26225,-0.0999 0.38129,-0.24214 0.38022,-0.45443 -0.003,-0.52236 -0.67177,-1.42618 -1.34175,-1.81245 -0.16235,-0.0936 -0.38105,-0.24737 -0.486,-0.34173 -0.39141,-0.35192 -0.73349,-1.00531 -0.82075,-1.56775 -0.023,-0.14784 -0.0352,-0.47744 -0.0273,-0.73243 0.0136,-0.43447 0.022,-0.47886 0.13427,-0.70697 0.29697,-0.60323 0.78314,-0.70006 1.20515,-0.24 0.0832,0.0907 0.18442,0.25447 0.22501,0.36402 0.0405,0.10952 0.14401,0.65314 0.22986,1.208 0.2146,1.38726 0.25936,1.53766 0.59214,1.98981 0.31506,0.42812 0.65319,0.6949 0.88072,0.6949 0.043,0 0.13459,-0.0562 0.20332,-0.12496 0.15075,-0.15075 0.15732,-0.2475 0.0514,-0.75708 -0.0867,-0.41704 -0.0937,-0.82872 -0.0189,-1.10376 0.03,-0.1105 0.091,-0.33325 0.13523,-0.49495 0.0967,-0.35294 0.10188,-0.73327 0.0136,-0.9923 -0.0344,-0.10106 -0.17916,-0.39545 -0.32155,-0.65418 -0.30354,-0.55158 -0.33944,-0.71015 -0.2055,-0.90777 0.10895,-0.16079 0.44708,-0.36753 0.60109,-0.36753 0.23604,0 0.24141,0.0242 0.27079,1.21975 l 0.0264,1.07724 0.24523,0.49614 c 0.27483,0.55606 0.34082,0.7734 0.39598,1.30446 0.0443,0.42681 0.0822,0.5226 0.24363,0.61659 0.1337,0.0779 0.47317,0.0939 0.59602,0.0282 0.0418,-0.0224 0.18408,-0.18791 0.31618,-0.3679 0.29295,-0.3991 0.56503,-0.65162 0.73688,-0.68385 0.26993,-0.0507 0.50935,0.0137 0.77194,0.20756 0.21166,0.15625 0.2691,0.18122 0.41519,0.18053 0.20253,-0.002 0.41824,-0.0925 0.60566,-0.25709 0.29108,-0.25557 0.30671,-0.42253 0.0919,-0.98198 -0.18791,-0.48942 -0.20498,-0.76343 -0.0737,-1.18435 0.19267,-0.61806 0.44368,-0.97261 0.76641,-1.08256 0.2447,-0.0834 0.66004,-0.0754 0.90836,0.0176 0.34503,0.1291 0.57223,0.46457 0.57223,0.8449 0,0.18208 -0.0897,0.48484 -0.32992,1.1139 -0.3801,0.99523 -0.4536,1.44139 -0.29237,1.77449 0.13705,0.28309 0.49553,0.52528 0.77995,0.52693 0.22173,0.002 0.41166,-0.12414 0.88642,-0.58533 0.48873,-0.47475 0.60643,-0.55317 0.83027,-0.55317 0.31034,0 0.44235,0.14317 0.53344,0.57853 0.0865,0.4134 -0.032,0.76511 -0.36754,1.09126 -0.19932,0.19372 -0.43435,0.31955 -0.89891,0.48125 -0.59383,0.20671 -0.81058,0.39447 -0.81058,0.70222 0,0.33667 0.32397,0.57188 0.82046,0.59567 0.48081,0.023 0.7539,-0.0836 1.31115,-0.51206 1.36259,-1.04762 1.90621,-1.42773 2.34088,-1.6368 0.14551,-0.0699 0.42671,-0.17023 0.62486,-0.22277 0.30631,-0.0812 0.44017,-0.0958 0.8932,-0.0974 0.46501,-0.002 0.55895,0.008 0.7373,0.0789 0.23291,0.092 0.40922,0.24848 0.52331,0.46455 0.15181,0.2875 0.0912,0.79668 -0.13665,1.14945 -0.12798,0.1981 -0.21795,0.2143 -0.74935,0.13497 -0.62767,-0.0937 -1.52134,-0.0937 -1.95493,2e-5 -0.47913,0.10357 -0.87907,0.25494 -1.56196,0.59114 -0.86109,0.42391 -1.05591,0.60455 -1.05591,0.97902 0,0.22629 0.1021,0.3923 0.35039,0.56977 0.25619,0.18312 0.46138,0.37824 0.5248,0.49902 0.078,0.14876 0.0675,0.53672 -0.0187,0.67786 -0.0387,0.0636 -0.18488,0.20684 -0.32471,0.31841 -0.13981,0.11156 -0.29779,0.25462 -0.35106,0.31793 -0.32796,0.38975 -0.13892,0.8211 0.48925,1.11639 0.39135,0.18398 0.65533,0.20813 1.26623,0.11578 0.58573,-0.0886 0.83423,-0.0627 1.21451,0.12653 0.64397,0.32037 1.02728,0.78168 1.26945,1.52781 0.0715,0.22056 0.0858,0.35813 0.1,0.96408 0.0228,0.97437 -0.0267,1.23494 -0.29166,1.53672 -0.24238,0.27607 -0.53428,0.33937 -0.85728,0.18597 -0.47664,-0.22637 -0.8798,-0.87375 -1.13943,-1.82973 -0.22975,-0.84592 -0.33736,-1.09336 -0.59283,-1.3633 -0.37286,-0.39396 -1.29287,-0.78265 -1.68044,-0.70995 -0.17149,0.0322 -0.47063,0.30532 -0.57682,0.52671 -0.0606,0.12644 -0.084,0.24125 -0.0843,0.41386 -2.9e-4,0.30196 0.0691,0.44218 0.57891,1.16792 0.68013,0.9681 0.85827,1.30922 0.93974,1.79954 0.0589,0.35437 0.0252,0.53401 -0.12909,0.68827 -0.13552,0.13553 -0.4689,0.27684 -0.65234,0.27652 -0.30489,0 -0.61003,-0.18551 -0.68478,-0.4151 -0.0209,-0.0647 -0.0638,-0.35144 -0.0951,-0.63723 -0.1178,-1.07686 -0.21251,-1.40519 -0.4943,-1.71351 -0.24404,-0.26701 -0.4624,-0.37107 -0.81484,-0.3883 -0.22211,-0.0109 -0.31503,0.003 -0.44711,0.0601 -0.2832,0.12527 -0.30321,0.18598 -0.29109,0.88251 l 0.0104,0.60196 -0.12644,0.11925 c -0.0696,0.0656 -0.20061,0.14001 -0.29126,0.16541 -0.14349,0.0402 -0.18239,0.0377 -0.30058,-0.0184 -0.25288,-0.12 -0.5602,-0.62835 -0.80491,-1.33133 -0.2194,-0.63036 -0.28264,-0.7064 -0.58728,-0.7064 -0.15696,0 -0.19548,0.016 -0.29626,0.12281 -0.23346,0.24754 -0.29613,0.7226 -0.1719,1.30289 0.12952,0.60495 0.48313,1.58477 0.88474,2.45161 0.54625,1.17902 0.62001,1.44413 0.511,1.83675 -0.0869,0.313 -0.46805,0.54398 -0.69109,0.41878 -0.23687,-0.13296 -0.53718,-0.70534 -0.62421,-1.18974 -0.0218,-0.12126 -0.0645,-0.52646 -0.0951,-0.9004 -0.11898,-1.45817 -0.33225,-2.43599 -0.74041,-3.39462 -0.30691,-0.72088 -0.47549,-0.86152 -0.82116,-0.68517 -0.2867,0.14626 -0.44543,0.47193 -0.44866,0.92044 -0.002,0.27199 0.003,0.28676 0.26895,0.82243 l 0.27093,0.54545 0,0.53117 0,0.53117 -0.11749,0.10504 c -0.1522,0.13604 -0.32851,0.18264 -0.69106,0.18264 -0.39214,0 -0.54222,-0.0464 -0.67595,-0.20854 -0.24504,-0.29726 -0.24038,-0.68684 0.0186,-1.55512 0.15619,-0.52366 0.1703,-0.6038 0.17475,-0.99233 0.005,-0.38319 -0.004,-0.43935 -0.0867,-0.60176 -0.10353,-0.20275 -0.30894,-0.39052 -0.42714,-0.39052 -0.17868,0 -0.47035,0.45701 -0.71051,1.11328 -0.33364,0.9117 -0.54689,1.85565 -0.79057,3.49908 -0.2092,1.41101 -0.25386,1.62438 -0.40851,1.95136 -0.15283,0.32316 -0.36896,0.54493 -0.66819,0.68562 -0.22468,0.10567 -0.58473,0.16374 -0.7074,0.11413 z"
         id="path6825"
         inkscape:connector-curvature="0" />
      <g
         transform="translate(-40.406102,0)"
         id="g7210">
        <path
           style="fill:#1795d7;fill-opacity:1;stroke:#0e5f86;stroke-width:4.14895058px;stroke-linecap:butt;stroke-linejoin:round;stroke-opacity:1"
           d="m 425.96925,773.30927 -8.19486,-8.23206 -28.75133,25.6468 19.73319,-29.00503 -11.61461,-6.81993 -26.64545,37.01319 c -3.29677,2.87451 -9.66188,8.00505 -9.66188,8.00505 l 0.48571,-17.57871 -10.0628,-6.56965 -10.40064,32.28902 4.0076,11.68482 c 0,0 -5.88238,3.64688 -11.40855,3.91887 -2.00374,7.69349 -1.72081,17.34121 7.61059,27.03166 42.07153,4.43866 83.05645,-26.20535 83.05645,-26.20535 l -1.26802,-10.55652 -20.31167,4.8369 28.71831,-20.15458 -5.78189,-8.49342 -26.98786,12.28667 z"
           id="path6977"
           inkscape:connector-curvature="0"
           sodipodi:nodetypes="cccccccccccccccccccc" />
        <path
           style="fill:none;stroke:#0e5f86;stroke-width:4.14895058px;stroke-linecap:round;stroke-linejoin:miter;stroke-opacity:1"
           d="m 350.92472,831.77345 c 0,0 5.03402,7.49151 8.23589,10.62753 7.15686,7.00706 16.45137,5.11745 16.45137,5.11745"
           id="path6979"
           inkscape:connector-curvature="0"
           sodipodi:nodetypes="csc" />
        <path
           style="fill:#1277aa;fill-opacity:1;stroke:none"
           d="m 365.28006,798.81798 c 2.40769,1.76209 8.20157,11.93793 8.46788,17.1954 l -9.91324,-16.10333 z"
           id="path6981"
           inkscape:connector-curvature="0"
           sodipodi:nodetypes="cccc" />
        <path
           style="fill:#1277aa;fill-opacity:1;stroke:none"
           d="m 338.41695,844.0541 15.50941,-1.43066 c 0,0 1.55322,2.44242 4.36392,3.97692 1.59621,0.87147 5.29133,1.33313 5.29133,1.33313 -5.04239,0.76774 -13.73084,1.75908 -21.55849,0.80473 -1.4609,-1.50313 -2.51786,-2.97108 -3.60614,-4.68423 z"
           id="path7005"
           inkscape:connector-curvature="0"
           sodipodi:nodetypes="ccsccc" />
        <path
           style="fill:#1277aa;fill-opacity:1;stroke:none"
           d="m 352.36566,830.29032 c 0,0 4.36957,7.61255 7.6795,10.35177 6.39002,5.28791 10.8413,5.32737 14.79528,4.86597 10.60793,-1.23781 29.95501,-11.36625 29.95501,-11.36625 0,0 -18.45371,8.16323 -30.00465,9.13156 -5.24127,0.43934 -9.7887,-1.63588 -14.10564,-4.92166 -2.79907,-2.13088 -8.3195,-8.06139 -8.3195,-8.06139 z"
           id="path7025"
           inkscape:connector-curvature="0"
           sodipodi:nodetypes="csscssc" />
        <path
           style="fill:#1fa3e7;fill-opacity:1;stroke:none"
           d="m 334.56059,829.79219 c 4.11062,-2.3922 8.3682,-4.55298 11.59331,-8.34727 -3.59194,2.06079 -7.30161,3.04087 -10.99587,4.15929 -0.4549,1.32463 -0.61513,2.73157 -0.59744,4.18798 z"
           id="path7031"
           inkscape:connector-curvature="0"
           sodipodi:nodetypes="cccc" />
        <path
           style="fill:#1fa3e7;fill-opacity:1;stroke:none"
           d="m 402.6362,820.88722 18.67607,-2.70773 -0.26162,-1.67056 z"
           id="path7033"
           inkscape:connector-curvature="0"
           sodipodi:nodetypes="cccc" />
        <path
           sodipodi:nodetypes="cccc"
           inkscape:connector-curvature="0"
           id="path7035"
           d="m 397.10308,803.97883 2.93811,3.66837 0.0267,-4.6468 z"
           style="fill:#0e5f86;fill-opacity:1;stroke:none" />
        <path
           style="fill:#0e5f86;fill-opacity:1;stroke:none"
           d="m 398.67256,783.11845 5.26703,2.3121 -2.66464,-4.67689 z"
           id="path7037"
           inkscape:connector-curvature="0"
           sodipodi:nodetypes="cccc" />
        <path
           sodipodi:nodetypes="cccc"
           inkscape:connector-curvature="0"
           id="path7039"
           d="m 387.89499,792.5527 2.94019,4.00198 0.49901,-5.65754 z"
           style="fill:#0e5f86;fill-opacity:1;stroke:none" />
        <path
           style="fill:#0e5f86;fill-opacity:1;stroke:none"
           d="m 410.68135,797.59258 2.94032,4.00203 0.0267,-4.64694 z"
           id="path7041"
           inkscape:connector-curvature="0"
           sodipodi:nodetypes="cccc" />
        <path
           sodipodi:nodetypes="cccc"
           inkscape:connector-curvature="0"
           id="path7043"
           d="m 408.00898,819.24838 2.9402,4.002 0.0269,-4.6469 z"
           style="fill:#0e5f86;fill-opacity:1;stroke:none" />
        <path
           style="fill:#0e5f86;fill-opacity:1;stroke:none"
           d="m 359.33129,801.44254 c 6.36262,4.43548 11.35382,9.88238 14.74288,15.28817 -1.82611,-6.49893 -5.43452,-13.25294 -11.00993,-17.58708 z"
           id="path7069"
           inkscape:connector-curvature="0"
           sodipodi:nodetypes="cccc" />
        <path
           sodipodi:nodetypes="cccc"
           inkscape:connector-curvature="0"
           id="path7071"
           d="m 358.78726,799.39817 c -0.3162,2.79987 -3.29755,5.74478 -5.55206,6.71603 2.52523,0.0303 5.94756,-1.61925 7.79028,-3.8913 z"
           style="fill:#0e5f86;fill-opacity:1;stroke:none" />
        <path
           sodipodi:nodetypes="cccc"
           inkscape:connector-curvature="0"
           id="path6850"
           d="m 359.06185,795.26435 -4.95125,-2.9279 5.35293,-0.56543 z"
           style="fill:#0e5f86;fill-opacity:1;stroke:none" />
        <path
           sodipodi:nodetypes="cccc"
           inkscape:connector-curvature="0"
           id="path6852"
           d="m 384.71791,773.45957 5.26703,2.3121 -2.66463,-4.67689 z"
           style="fill:#0e5f86;fill-opacity:1;stroke:none" />
      </g>
      <path
         sodipodi:nodetypes="cccc"
         inkscape:connector-curvature="0"
         id="path7258"
         d="m 318.65575,795.26435 -4.95125,-2.9279 5.35293,-0.56543 z"
         style="fill:#0e5f86;fill-opacity:1;stroke:none" />
      <g
         transform="translate(-136.83467,-87.857143)"
         id="g7386">
        <path
           inkscape:connector-curvature="0"
           style="color:#000000;clip-rule:nonzero;display:inline;overflow:visible;visibility:visible;opacity:1;isolation:auto;mix-blend-mode:normal;color-interpolation:sRGB;color-interpolation-filters:linearRGB;solid-color:#000000;solid-opacity:1;fill:#efcec5;fill-opacity:1;fill-rule:nonzero;stroke:#6b797d;stroke-width:2;stroke-linecap:butt;stroke-linejoin:miter;stroke-miterlimit:4;stroke-dasharray:none;stroke-dashoffset:0;stroke-opacity:1;color-rendering:auto;image-rendering:auto;shape-rendering:auto;text-rendering:auto;enable-background:accumulate"
           d="m 495.70703,286.64258 c -3.24802,-0.0431 -6.53798,0.16667 -9.83398,0.62695 -31.95314,4.46293 -57.8566,31.04408 -57.85743,59.37109 -6.4e-4,28.32793 25.90324,47.67429 57.85743,43.21094 31.95401,-4.46305 57.85782,-31.04543 57.85742,-59.37304 -6.8e-4,-24.96312 -20.27429,-43.46893 -48.02344,-43.83594 z m -47.47461,25.65625 3.3418,2.18164 c 0.27786,-0.0272 0.55033,-0.1512 0.82812,-0.1582 1.71683,-0.0431 3.35238,0.31086 4.8086,1.03906 5.78499,2.89157 7.47348,10.92954 4.04687,18.27148 -0.13262,0.28417 -0.21899,0.57374 -0.36719,0.85547 -3.97716,7.56149 -12.07543,11.25623 -18.08593,8.25391 -1.39409,-0.69623 -2.5265,-1.71506 -3.43555,-2.92774 -3.01083,-4.01645 -3.30153,-10.39277 -0.24609,-16.20117 1.88058,-3.57519 4.78454,-6.24262 7.97656,-7.79883 l 1.13281,-3.51562 z"
           transform="translate(0,552.36216)"
           id="path7354" />
        <path
           style="fill:#1795d7;fill-opacity:1;stroke:#0e5f86;stroke-width:4.14895058px;stroke-linecap:butt;stroke-linejoin:round;stroke-opacity:1"
           d="m 448.23242,312.29883 -8.86328,27.51562 c 0.90905,1.21268 2.04146,2.23151 3.43555,2.92774 7.57189,3.48989 16.48399,-6.59069 15.0039,-6.29492 l 0.48633,-17.57813 z"
           transform="translate(0,552.36216)"
           id="path7230"
           inkscape:connector-curvature="0"
           sodipodi:nodetypes="cccccc" />
        <path
           sodipodi:nodetypes="cccc"
           inkscape:connector-curvature="0"
           id="path7363"
           d="m 456.54157,886.17808 -4.95125,-2.9279 5.35293,-0.56543 z"
           style="fill:#0e5f86;fill-opacity:1;stroke:none" />
        <circle
           style="color:#000000;clip-rule:nonzero;display:inline;overflow:visible;visibility:visible;opacity:1;isolation:auto;mix-blend-mode:normal;color-interpolation:sRGB;color-interpolation-filters:linearRGB;solid-color:#000000;solid-opacity:1;fill:#c80c1a;fill-opacity:1;fill-rule:nonzero;stroke:none;stroke-width:3;stroke-linecap:square;stroke-linejoin:round;stroke-miterlimit:4;stroke-dasharray:none;stroke-dashoffset:0;stroke-opacity:1;color-rendering:auto;image-rendering:auto;shape-rendering:auto;text-rendering:auto;enable-background:accumulate"
           id="path6712"
           cx="-524.26239"
           cy="880.09717"
           r="8.5714283"
           transform="scale(-1,1)" />
        <circle
           r="8.5714283"
           cy="857.24011"
           cx="-506.40521"
           id="circle6714"
           style="color:#000000;clip-rule:nonzero;display:inline;overflow:visible;visibility:visible;opacity:1;isolation:auto;mix-blend-mode:normal;color-interpolation:sRGB;color-interpolation-filters:linearRGB;solid-color:#000000;solid-opacity:1;fill:#05cd00;fill-opacity:1;fill-rule:nonzero;stroke:none;stroke-width:3;stroke-linecap:square;stroke-linejoin:round;stroke-miterlimit:4;stroke-dasharray:none;stroke-dashoffset:0;stroke-opacity:1;color-rendering:auto;image-rendering:auto;shape-rendering:auto;text-rendering:auto;enable-background:accumulate"
           transform="scale(-1,1)" />
        <circle
           style="color:#000000;clip-rule:nonzero;display:inline;overflow:visible;visibility:visible;opacity:1;isolation:auto;mix-blend-mode:normal;color-interpolation:sRGB;color-interpolation-filters:linearRGB;solid-color:#000000;solid-opacity:1;fill:#800080;fill-opacity:1;fill-rule:nonzero;stroke:none;stroke-width:3;stroke-linecap:square;stroke-linejoin:round;stroke-miterlimit:4;stroke-dasharray:none;stroke-dashoffset:0;stroke-opacity:1;color-rendering:auto;image-rendering:auto;shape-rendering:auto;text-rendering:auto;enable-background:accumulate"
           id="circle6716"
           cx="-490.26199"
           cy="924.1991"
           r="8.5714283"
           transform="scale(-1,1)" />
        <circle
           r="8.5714283"
           cy="915.51569"
           cx="-456.5278"
           id="circle6718"
           style="color:#000000;clip-rule:nonzero;display:inline;overflow:visible;visibility:visible;opacity:1;isolation:auto;mix-blend-mode:normal;color-interpolation:sRGB;color-interpolation-filters:linearRGB;solid-color:#000000;solid-opacity:1;fill:#009dff;fill-opacity:1;fill-rule:nonzero;stroke:none;stroke-width:3;stroke-linecap:square;stroke-linejoin:round;stroke-miterlimit:4;stroke-dasharray:none;stroke-dashoffset:0;stroke-opacity:1;color-rendering:auto;image-rendering:auto;shape-rendering:auto;text-rendering:auto;enable-background:accumulate"
           transform="scale(-1,1)" />
        <circle
           style="color:#000000;clip-rule:nonzero;display:inline;overflow:visible;visibility:visible;opacity:1;isolation:auto;mix-blend-mode:normal;color-interpolation:sRGB;color-interpolation-filters:linearRGB;solid-color:#000000;solid-opacity:1;fill:#ffc500;fill-opacity:1;fill-rule:nonzero;stroke:none;stroke-width:3;stroke-linecap:square;stroke-linejoin:round;stroke-miterlimit:4;stroke-dasharray:none;stroke-dashoffset:0;stroke-opacity:1;color-rendering:auto;image-rendering:auto;shape-rendering:auto;text-rendering:auto;enable-background:accumulate"
           id="circle6720"
           cx="-514.67029"
           cy="907.83185"
           r="8.5714283"
           transform="scale(-1,1)" />
        <circle
           style="color:#000000;clip-rule:nonzero;display:inline;overflow:visible;visibility:visible;opacity:1;isolation:auto;mix-blend-mode:normal;color-interpolation:sRGB;color-interpolation-filters:linearRGB;solid-color:#000000;solid-opacity:1;fill:#1a1a1a;fill-opacity:1;fill-rule:nonzero;stroke:none;stroke-width:3;stroke-linecap:square;stroke-linejoin:round;stroke-miterlimit:4;stroke-dasharray:none;stroke-dashoffset:0;stroke-opacity:1;color-rendering:auto;image-rendering:auto;shape-rendering:auto;text-rendering:auto;enable-background:accumulate"
           id="circle6724"
           cx="-494.25183"
           cy="886.45392"
           r="8.5714283"
           transform="scale(-1,1)" />
        <circle
           r="8.5714283"
           cy="900.62762"
           cx="-476.72644"
           id="circle6726"
           style="color:#000000;clip-rule:nonzero;display:inline;overflow:visible;visibility:visible;opacity:1;isolation:auto;mix-blend-mode:normal;color-interpolation:sRGB;color-interpolation-filters:linearRGB;solid-color:#000000;solid-opacity:1;fill:#ececec;fill-opacity:1;fill-rule:nonzero;stroke:none;stroke-width:3;stroke-linecap:square;stroke-linejoin:round;stroke-miterlimit:4;stroke-dasharray:none;stroke-dashoffset:0;stroke-opacity:1;color-rendering:auto;image-rendering:auto;shape-rendering:auto;text-rendering:auto;enable-background:accumulate"
           transform="scale(-1,1)" />
        <path
           inkscape:connector-curvature="0"
           style="color:#000000;clip-rule:nonzero;display:inline;overflow:visible;visibility:visible;opacity:1;isolation:auto;mix-blend-mode:normal;color-interpolation:sRGB;color-interpolation-filters:linearRGB;solid-color:#000000;solid-opacity:1;fill:#f5e1db;fill-opacity:1;fill-rule:nonzero;stroke:none;stroke-width:2;stroke-linecap:butt;stroke-linejoin:miter;stroke-miterlimit:4;stroke-dasharray:none;stroke-dashoffset:0;stroke-opacity:1;color-rendering:auto;image-rendering:auto;shape-rendering:auto;text-rendering:auto;enable-background:accumulate"
           d="m 495.13505,840.04101 c -3.24802,-0.0431 -6.53799,0.16668 -9.83399,0.62696 -12.13794,1.69531 -23.39738,6.58693 -32.70117,13.54882 8.55723,-5.62607 18.50595,-9.56483 29.13086,-11.04882 3.296,-0.46028 6.58597,-0.67006 9.83399,-0.62696 27.74914,0.36701 47.48704,18.87282 47.48772,43.83594 2.5e-4,17.56613 -10.14536,33.02603 -25.33287,44.39174 17.17664,-11.2942 28.90345,-27.98431 28.90318,-46.89174 -6.7e-4,-24.96312 -19.73857,-43.46893 -47.48772,-43.83594 z"
           id="path7384" />
        <path
           style="color:#000000;clip-rule:nonzero;display:inline;overflow:visible;visibility:visible;opacity:1;isolation:auto;mix-blend-mode:normal;color-interpolation:sRGB;color-interpolation-filters:linearRGB;solid-color:#000000;solid-opacity:1;fill:#e6b4a6;fill-opacity:1;fill-rule:nonzero;stroke:none;stroke-width:2;stroke-linecap:butt;stroke-linejoin:miter;stroke-miterlimit:4;stroke-dasharray:none;stroke-dashoffset:0;stroke-opacity:1;color-rendering:auto;image-rendering:auto;shape-rendering:auto;text-rendering:auto;enable-background:accumulate"
           d="m 441.26725,871.42913 c -3.00448,1.58335 -4.89799,4.14934 -6.68512,7.54687 -3.05544,5.80841 -2.36612,12.72044 0.64471,16.73689 0.90905,1.2127 2.04146,2.79974 3.43555,3.49594 4.3716,2.18373 9.84165,0.81095 14.0332,-3.00195 -3.45388,1.78354 -7.2544,2.10467 -10.46289,0.50195 -1.39409,-0.6962 -2.52649,-2.28326 -3.43554,-3.49594 -3.01083,-4.01645 -4.01582,-10.92848 -0.96038,-16.73689 1.03862,-1.97453 1.89141,-3.66038 3.43047,-5.04687 z"
           id="path7375"
           inkscape:connector-curvature="0"
           sodipodi:nodetypes="ccscccscc" />
      </g>
      <path
         sodipodi:nodetypes="cccccc"
         inkscape:connector-curvature="0"
         style="color:#000000;clip-rule:nonzero;display:inline;overflow:visible;visibility:visible;opacity:1;isolation:auto;mix-blend-mode:normal;color-interpolation:sRGB;color-interpolation-filters:linearRGB;solid-color:#000000;solid-opacity:1;fill:#803200;fill-opacity:1;fill-rule:nonzero;stroke:none;stroke-width:2;stroke-linecap:square;stroke-linejoin:round;stroke-miterlimit:4;stroke-dasharray:none;stroke-dashoffset:0;stroke-opacity:1;color-rendering:auto;image-rendering:auto;shape-rendering:auto;text-rendering:auto;enable-background:accumulate"
         d="m 162.28072,893.79668 -26.98216,13.28833 7.48829,13.54194 29.14855,-17.98196 0.14516,-4.04912 c 0,0 -5.13949,-2.58024 -9.79984,-4.79919 z"
         id="path7598" />
      <path
         transform="translate(0,552.36216)"
         id="rect7548"
         d="m 164.125,342.375 -20.625,10.22461 5.80078,10.49023 22.6836,-13.92968 0.12109,-2.95508 c 0,0 -4.37035,-2.11117 -7.98047,-3.83008 z"
         style="color:#000000;clip-rule:nonzero;display:inline;overflow:visible;visibility:visible;opacity:1;isolation:auto;mix-blend-mode:normal;color-interpolation:sRGB;color-interpolation-filters:linearRGB;solid-color:#000000;solid-opacity:1;fill:#913900;fill-opacity:1;fill-rule:nonzero;stroke:none;stroke-width:2;stroke-linecap:square;stroke-linejoin:round;stroke-miterlimit:4;stroke-dasharray:none;stroke-dashoffset:0;stroke-opacity:1;color-rendering:auto;image-rendering:auto;shape-rendering:auto;text-rendering:auto;enable-background:accumulate"
         inkscape:connector-curvature="0" />
      <path
         id="path7600"
         transform="translate(0,552.36216)"
         d="m 164.125,342.375 -20.625,10.22461 1.11133,2.00977 c 5.71475,-3.20295 17.26684,-9.16749 21.25586,-11.39844 -0.80716,-0.38658 -0.95411,-0.46071 -1.74219,-0.83594 z"
         style="fill:#b85d24;fill-opacity:1;stroke:none;stroke-width:1px;stroke-linecap:butt;stroke-linejoin:miter;stroke-opacity:1"
         inkscape:connector-curvature="0" />
      <g
         transform="translate(10.101525,-3.0304576)"
         id="g7589">
        <path
           style="fill:#eaeeef;fill-opacity:1;stroke:#6b797d;stroke-width:2;stroke-linecap:butt;stroke-linejoin:round;stroke-miterlimit:4;stroke-dasharray:none;stroke-opacity:1"
           d="m 121.37008,911.63672 c 19.15075,-20.4355 29.40335,8.45703 13.26439,12.87991 -16.22639,4.44684 -25.08712,-4.85755 -25.18311,-7.54532 0,0 1.53801,0.48552 4.66176,1.2976 -3.7789,-2.44675 -4.68247,-5.75611 -6.00742,-8.93904 0,0 5.09429,3.17192 7.30503,4.42146 -1.67854,-0.86245 -2.99208,-4.59601 -2.69133,-4.6137 2.84717,1.25153 5.57026,3.92999 8.65068,2.49909 z"
           id="path7538"
           inkscape:connector-curvature="0"
           sodipodi:nodetypes="cscccccc" />
        <path
           style="fill:#05cd00;fill-opacity:1;stroke:none;stroke-width:1px;stroke-linecap:butt;stroke-linejoin:miter;stroke-opacity:1"
           d="m 113.57819,910.7454 c -0.25202,0.0148 0.84877,3.14314 2.25536,3.86586 -1.85256,-1.04709 -6.12122,-3.70547 -6.12122,-3.70547 1.11029,2.66725 1.8678,5.4408 5.03446,7.49114 -2.61766,-0.68051 -3.90678,-1.0884 -3.90678,-1.0884 0.0627,1.75627 4.59281,6.88321 13.03133,7.28982 0.3126,-0.87226 1.34823,-2.51816 -1.79752,-3.43607 -1.01576,-0.29639 0.19516,-1.55391 0.19516,-1.55391 0,0 -0.46383,-2.58486 1.57643,-2.89564 1.05812,-0.84649 -2.80391,-1.43861 -2.80391,-1.43861 0,0 -0.88603,-1.19224 -2.03277,-2.37591 -1.86762,-0.14502 -3.61952,-1.35675 -5.43054,-2.15281 z"
           id="path7542"
           inkscape:connector-curvature="0"
           sodipodi:nodetypes="ccccccsccccc" />
        <path
           style="fill:#dae1e3;fill-opacity:1;stroke:none;stroke-width:2;stroke-linecap:butt;stroke-linejoin:round;stroke-miterlimit:4;stroke-dasharray:none;stroke-opacity:1"
           d="m 134.10316,905.38783 c -1.31859,0.0372 -2.78988,0.43708 -4.38069,1.25304 10.19735,-3.82846 14.53759,11.62535 6.07182,16.27318 9.19693,-3.38607 6.68431,-17.76246 -1.69113,-17.52622 z"
           id="path7568"
           inkscape:connector-curvature="0"
           sodipodi:nodetypes="sccs" />
        <path
           style="opacity:0.6;fill:#ffc500;fill-opacity:1;stroke:none;stroke-width:1px;stroke-linecap:butt;stroke-linejoin:miter;stroke-opacity:1"
           d="m 113.65275,910.82438 c -0.23408,0.0137 0.70373,2.68897 1.96485,3.65234 0.067,-0.85754 0.15049,-1.71365 0.25586,-2.56641 -0.73849,-0.3655 -1.47437,-0.75787 -2.22071,-1.08593 z m -3.86718,0.16015 c 1.11029,2.66725 1.86849,5.4399 5.03515,7.49024 -2.61766,-0.68051 -3.90625,-1.08789 -3.90625,-1.08789 0.0383,1.07206 1.74989,3.39695 4.99024,5.14062 -0.47218,-2.71835 -0.49486,-5.37983 -0.29102,-8.01367 -1.95212,-1.12116 -5.82812,-3.5293 -5.82812,-3.5293 z"
           id="path7583"
           inkscape:connector-curvature="0" />
      </g>
      <path
         id="path7605"
         transform="translate(0,552.36216)"
         d="m 164.125,342.375 -1.43555,0.71094 c 3.36455,1.73073 8.20313,3.8789 8.20313,3.8789 0,0 0.36785,1.18913 0.80273,2.37305 l 0.28907,-0.17773 0.12109,-2.95508 c 0,0 -4.37035,-2.11117 -7.98047,-3.83008 z"
         style="fill:#672800;fill-opacity:1;stroke:none;stroke-width:1px;stroke-linecap:butt;stroke-linejoin:miter;stroke-opacity:1"
         inkscape:connector-curvature="0" />
      <path
         sodipodi:nodetypes="ccccccc"
         inkscape:connector-curvature="0"
         id="path7735"
         transform="translate(0,552.36216)"
         d="m 243.84235,248.60721 15.62249,4.78537 c 2.47461,7.61068 6.54905,12.25025 7.41016,22.85742 l 0.22406,6.24972 c 0.48859,-2.78819 1.33985,-5.57638 1.41617,-8.36456 -1.63152,-9.69863 -4.2406,-16.34591 -8.12622,-22.66591 z"
         style="opacity:1;fill:#e71c2b;fill-opacity:1;stroke:none;stroke-width:1px;stroke-linecap:butt;stroke-linejoin:miter;stroke-opacity:1" />
      <path
         sodipodi:nodetypes="ccc"
         inkscape:connector-curvature="0"
         id="path7740"
         d="m 298.75262,713.20344 c 12.05577,-18.98507 11.7105,-29.27573 -1.13643,-40.91118 8.34953,10.98015 6.87741,25.23419 1.13643,40.91118 z"
         style="opacity:0.5;fill:#b3b3b3;stroke:none;stroke-width:1px;stroke-linecap:butt;stroke-linejoin:miter;stroke-opacity:1" />
      <path
         sodipodi:nodetypes="ccc"
         inkscape:connector-curvature="0"
         id="path7746"
         d="m 320.09209,684.54036 c -4.33943,-14.33311 -10.21989,-27.74657 -24.87501,-35.92355 12.69185,3.29982 23.1684,16.5034 24.87501,35.92355 z"
         style="opacity:0.5;fill:#b3b3b3;stroke:none;stroke-width:1px;stroke-linecap:butt;stroke-linejoin:miter;stroke-opacity:1" />
      <path
         sodipodi:nodetypes="ccc"
         inkscape:connector-curvature="0"
         id="path7748"
         d="m 271.22596,676.58541 c 0.62928,14.3695 4.42148,17.2609 -3.21986,27.7792 3.64182,-8.70938 2.77623,-14.46287 3.21986,-27.7792 z"
         style="opacity:0.5;fill:#b3b3b3;stroke:none;stroke-width:1px;stroke-linecap:butt;stroke-linejoin:miter;stroke-opacity:1" />
      <path
         sodipodi:nodetypes="ccc"
         inkscape:connector-curvature="0"
         id="path7750"
         d="m 294.38997,648.16119 c -8.87092,-13.63184 -33.34489,-34.58645 -67.79929,-42.8274 26.95668,2.95149 59.52683,21.63627 67.79929,42.8274 z"
         style="opacity:0.5;fill:#b3b3b3;stroke:none;stroke-width:1px;stroke-linecap:butt;stroke-linejoin:miter;stroke-opacity:1" />
    </g>
  </g>
</svg>
