<?xml version="1.0" encoding="UTF-8" standalone="no"?>
<!-- Created with Inkscape (http://www.inkscape.org/) -->

<svg
   xmlns:dc="http://purl.org/dc/elements/1.1/"
   xmlns:cc="http://creativecommons.org/ns#"
   xmlns:rdf="http://www.w3.org/1999/02/22-rdf-syntax-ns#"
   xmlns:svg="http://www.w3.org/2000/svg"
   xmlns="http://www.w3.org/2000/svg"
   xmlns:sodipodi="http://sodipodi.sourceforge.net/DTD/sodipodi-0.dtd"
   xmlns:inkscape="http://www.inkscape.org/namespaces/inkscape"
   width="400"
   height="400"
   viewBox="0 0 105.83333 105.83334"
   version="1.1"
   id="svg6734"
   inkscape:version="0.92.0 r15299"
   sodipodi:docname="Boni-Constructor.svg"
   inkscape:export-filename="/home/ars/git/BlankOn/blankon-mascot/Boni-Constructor.png"
   inkscape:export-xdpi="90"
   inkscape:export-ydpi="90">
  <defs
     id="defs6728" />
  <sodipodi:namedview
     id="base"
     pagecolor="#ffffff"
     bordercolor="#666666"
     borderopacity="1.0"
     inkscape:pageopacity="0.0"
     inkscape:pageshadow="2"
     inkscape:zoom="0.98994949"
     inkscape:cx="72.142963"
     inkscape:cy="129.27974"
     inkscape:document-units="mm"
     inkscape:current-layer="layer1"
     showgrid="false"
     units="px"
     inkscape:window-width="1366"
     inkscape:window-height="724"
     inkscape:window-x="0"
     inkscape:window-y="0"
     inkscape:window-maximized="1" />
  <metadata
     id="metadata6731">
    <rdf:RDF>
      <cc:Work
         rdf:about="">
        <dc:format>image/svg+xml</dc:format>
        <dc:type
           rdf:resource="http://purl.org/dc/dcmitype/StillImage" />
        <dc:title />
      </cc:Work>
    </rdf:RDF>
  </metadata>
  <g
     inkscape:label="Layer 1"
     inkscape:groupmode="layer"
     id="layer1"
     transform="translate(0,-191.16665)">
    <ellipse
       ry="0.91216505"
       rx="13.023538"
       cy="277.74176"
       cx="82.987991"
       id="ellipse7911"
       style="color:#000000;display:inline;overflow:visible;visibility:visible;fill:#b2bfc5;fill-opacity:1;fill-rule:nonzero;stroke:none;stroke-width:0.20749737;enable-background:accumulate" />
    <g
       id="boni-constructor">
      <path
         sodipodi:nodetypes="ccccc"
         inkscape:connector-curvature="0"
         id="rect6080"
         d="m 50.797217,243.37546 3.80307,-2.65746 c 3.01998,4.89525 6.43053,9.59521 9.9507,14.24036 l -3.80307,2.65747 c -3.33613,-4.74809 -7.41904,-9.33992 -9.9507,-14.24037 z"
         style="opacity:1;fill:#eaeeef;fill-opacity:1;fill-rule:nonzero;stroke:#495b5f;stroke-width:0.60379064;stroke-linecap:round;stroke-linejoin:miter;stroke-miterlimit:4;stroke-dasharray:none;stroke-opacity:1;paint-order:fill markers stroke" />
      <path
         sodipodi:nodetypes="cccccc"
         inkscape:connector-curvature="0"
         id="path6070"
         d="m 27.659284,247.35195 0.885711,4.48884 c 6.8485,2.24383 6.7888,1.28571 11.09055,-4.40401 l -4.09114,-2.54612 c -0.41494,1.01307 -0.52775,2.58084 -2.09075,3.3087 z"
         style="fill:#eaeeef;fill-opacity:1;fill-rule:evenodd;stroke:#495b5f;stroke-width:0.79374999;stroke-linecap:butt;stroke-linejoin:miter;stroke-miterlimit:4;stroke-dasharray:none;stroke-opacity:1" />
      <path
         sodipodi:nodetypes="ccccccccccccccc"
         inkscape:connector-curvature="0"
         id="rect5846"
         d="m 42.290306,228.96983 -0.161747,1.0759 -0.562756,0.0873 0.274918,1.82728 -5.046866,37.01738 6.657104,1.68296 2.230872,-10.41561 2.230872,10.41561 6.657624,-1.68296 -5.04687,-37.01583 0.274918,-1.82883 -0.563272,-0.0873 -0.161747,-1.0759 -3.391525,0.52555 z"
         style="opacity:1;fill:#eaeeef;fill-opacity:1;fill-rule:nonzero;stroke:#495b5f;stroke-width:0.65774614;stroke-linecap:round;stroke-linejoin:miter;stroke-miterlimit:4;stroke-dasharray:none;stroke-opacity:1;paint-order:fill markers stroke" />
      <ellipse
         ry="0.91216505"
         rx="21.175259"
         cy="277.8754"
         cx="45.703892"
         id="ellipse6503"
         style="color:#000000;display:inline;overflow:visible;visibility:visible;fill:#b2bfc5;fill-opacity:1;fill-rule:nonzero;stroke:none;stroke-width:0.26458332;enable-background:accumulate" />
      <path
         inkscape:connector-curvature="0"
         id="path6513"
         d="m 36.462975,268.03254 -0.90333,6.18717 c -1.079751,0.8284 -1.7819,2.06422 -1.7819,3.45244 h 5.1601 4.59088 c 0,-1.25336 -0.21844,-2.30501 -0.82908,-3.08121 l 0.89095,-4.727 c -2.51275,0.87546 -4.42205,-1.91626 -7.12762,-1.8314 z"
         style="fill:#ffd42a;fill-opacity:1;stroke:#d4aa00;stroke-width:0.59396857;stroke-linecap:butt;stroke-linejoin:miter;stroke-miterlimit:4;stroke-dasharray:none;stroke-opacity:1" />
      <path
         sodipodi:nodetypes="cczcccc"
         inkscape:connector-curvature="0"
         id="path6515"
         d="m 41.486955,273.75877 c -0.3096,-0.06 -0.71572,0.007 -0.94045,0.0773 0.32196,0.0434 0.60061,0.11785 0.90333,0.21036 0.30272,0.0925 0.75761,0.41839 0.94045,0.61872 l 0.82908,-4.39289 c -0.23682,0.0608 -1.03917,0.0473 -1.2079,0.005 z"
         style="fill:#c39c00;fill-opacity:1;stroke:none;stroke-width:0.39597902" />
      <path
         sodipodi:nodetypes="cscscc"
         inkscape:connector-curvature="0"
         id="path6519"
         d="m 35.202755,274.89644 c 0,0 0.61092,-0.52737 1.30078,-0.76792 1.26131,-0.43982 2.41045,-0.46901 2.41045,-0.46901 0,0 -1.2779,-0.3501 -2.72148,0.11151 -0.45621,0.14588 -1.10644,0.53785 -1.10644,0.53785 z"
         style="fill:#c39c00;fill-opacity:1;stroke:none;stroke-width:0.39597902" />
      <path
         style="fill:#ffd42a;fill-opacity:1;stroke:#d4aa00;stroke-width:0.59396857;stroke-linecap:butt;stroke-linejoin:miter;stroke-miterlimit:4;stroke-dasharray:none;stroke-opacity:1"
         d="m 54.755877,268.03254 0.90333,6.18717 c 1.07975,0.8284 1.7819,2.06422 1.7819,3.45244 h -5.1601 -4.590882 c 0,-1.25336 0.21844,-2.30501 0.829079,-3.08121 l -0.89095,-4.727 c 2.512751,0.87546 4.422053,-1.91626 7.127623,-1.8314 z"
         id="path6527"
         inkscape:connector-curvature="0" />
      <path
         style="fill:#c39c00;fill-opacity:1;stroke:none;stroke-width:0.39597902"
         d="m 49.731896,273.75877 c 0.309599,-0.06 0.715719,0.007 0.940448,0.0773 -0.321958,0.0434 -0.60061,0.11785 -0.90333,0.21036 -0.30272,0.0925 -0.75761,0.41839 -0.940448,0.61872 l -0.829083,-4.39289 c 0.236821,0.0608 1.039173,0.0473 1.207903,0.005 z"
         id="path6529"
         inkscape:connector-curvature="0"
         sodipodi:nodetypes="cczcccc" />
      <path
         style="fill:#c39c00;fill-opacity:1;stroke:none;stroke-width:0.39597902"
         d="m 56.016097,274.89644 c 0,0 -0.61092,-0.52737 -1.30078,-0.76792 -1.26131,-0.43982 -2.41045,-0.46901 -2.41045,-0.46901 0,0 1.2779,-0.3501 2.72148,0.11151 0.45621,0.14588 1.10644,0.53785 1.10644,0.53785 z"
         id="path6533"
         inkscape:connector-curvature="0"
         sodipodi:nodetypes="cscscc" />
      <path
         style="color:#000000;display:inline;overflow:visible;visibility:visible;fill:#688086;fill-opacity:1;fill-rule:nonzero;stroke:#495b5f;stroke-width:0.59396857;stroke-miterlimit:4;stroke-dasharray:none;stroke-opacity:1;enable-background:accumulate"
         d="m 60.965897,226.11976 -2.11349,8.63813 1.8319,0.44821 c 0.79247,-1.19909 1.41344,-2.59756 1.79069,-4.1395 0.37736,-1.54234 0.4723,-3.06877 0.32291,-4.49862 z"
         id="path6537"
         inkscape:connector-curvature="0"
         sodipodi:nodetypes="cccscc" />
      <path
         sodipodi:nodetypes="cccscc"
         inkscape:connector-curvature="0"
         id="path6539"
         d="m 30.441935,226.11976 2.11349,8.63813 -1.831901,0.44821 c -0.792469,-1.19909 -1.413439,-2.59756 -1.790689,-4.1395 -0.377361,-1.54234 -0.472301,-3.06877 -0.32291,-4.49862 z"
         style="color:#000000;display:inline;overflow:visible;visibility:visible;fill:#688086;fill-opacity:1;fill-rule:nonzero;stroke:#495b5f;stroke-width:0.59396857;stroke-miterlimit:4;stroke-dasharray:none;stroke-opacity:1;enable-background:accumulate" />
      <path
         style="fill:#738d93;fill-opacity:1;stroke:#495b5f;stroke-width:0.63701689;stroke-linecap:butt;stroke-linejoin:miter;stroke-miterlimit:4;stroke-dasharray:none;stroke-opacity:1"
         d="m 34.844115,242.8391 c 0,0 -0.759831,3.26295 2.07245,4.12067 5.53121,1.67504 11.900499,1.71385 17.090742,0 2.403,-0.79351 2.5564,-4.12067 2.5564,-4.12067 z"
         id="path6541"
         inkscape:connector-curvature="0"
         sodipodi:nodetypes="csscc" />
      <path
         sodipodi:nodetypes="ccccccccc"
         inkscape:connector-curvature="0"
         id="rect5591"
         d="m 38.627735,242.11234 h 14.196342 v 9.73813 l -1.1359,1.36975 -0.46772,3.08846 c -3.923813,1.53554 -7.599402,1.49125 -10.989102,0 l -0.46772,-3.08846 -1.1359,-1.36975 z"
         style="opacity:1;fill:#ff7f2a;fill-opacity:1;fill-rule:nonzero;stroke:#495b5f;stroke-width:0.66660738;stroke-linecap:square;stroke-linejoin:miter;stroke-miterlimit:4;stroke-dasharray:none;stroke-opacity:1;paint-order:markers fill stroke" />
      <ellipse
         ry="1.3649973"
         rx="2.6369784"
         cy="242.71599"
         cx="45.703876"
         id="ellipse6549"
         style="color:#000000;display:inline;overflow:visible;visibility:visible;fill:#eaeeef;fill-opacity:1;fill-rule:nonzero;stroke:#495b5f;stroke-width:0.59396857;stroke-linecap:round;stroke-linejoin:round;stroke-miterlimit:4;stroke-dasharray:none;stroke-dashoffset:0;stroke-opacity:1;enable-background:accumulate" />
      <path
         inkscape:connector-curvature="0"
         id="path5834"
         d="m 40.748799,242.11218 v 11.10785 h 0.16433 0.547254 v -11.10785 z"
         style="opacity:1;fill:#e6e6e6;fill-opacity:1;fill-rule:nonzero;stroke:none;stroke-width:0.52453738;stroke-linecap:round;stroke-linejoin:miter;stroke-miterlimit:4;stroke-dasharray:none;stroke-opacity:1;paint-order:fill markers stroke" />
      <path
         inkscape:connector-curvature="0"
         id="path5826"
         d="m 49.991645,242.11218 v 11.08408 h 0.163814 0.547254 v -11.08408 z"
         style="opacity:1;fill:#e6e6e6;fill-opacity:1;fill-rule:nonzero;stroke:none;stroke-width:0.52453738;stroke-linecap:round;stroke-linejoin:miter;stroke-miterlimit:4;stroke-dasharray:none;stroke-opacity:1;paint-order:fill markers stroke" />
      <path
         inkscape:connector-curvature="0"
         id="path6547"
         d="m 45.608968,241.34272 c -2.238728,0.004 -4.499502,0.33602 -6.648173,0.96532 v 1.4428 c 0.157766,-0.0918 2.226307,-1.24488 6.751524,-1.24488 4.695135,0 6.766088,1.25198 6.779948,1.26039 v -1.33997 c -2.145128,-0.72742 -4.496504,-1.0881 -6.883299,-1.08366 z"
         style="fill:#ec5f00;fill-opacity:1;stroke:none;stroke-width:0.26458332" />
      <path
         inkscape:connector-curvature="0"
         id="path5841"
         d="m 49.991645,242.11218 v 0.80719 c 0.258948,0.0557 0.493961,0.11384 0.711068,0.1726 v -0.97979 z"
         style="opacity:1;fill:#b3b3b3;fill-opacity:1;fill-rule:nonzero;stroke:none;stroke-width:0.52453738;stroke-linecap:round;stroke-linejoin:miter;stroke-miterlimit:4;stroke-dasharray:none;stroke-opacity:1;paint-order:fill markers stroke" />
      <path
         sodipodi:nodetypes="cccc"
         inkscape:connector-curvature="0"
         id="path6551"
         d="m 56.098867,236.416 4.68996,6.43999 -8.95996,-1.08501 z"
         style="fill:#738d93;fill-opacity:1;stroke:#495b5f;stroke-width:0.79195803;stroke-linecap:butt;stroke-linejoin:round;stroke-miterlimit:4;stroke-dasharray:none;stroke-opacity:1" />
      <path
         style="fill:#738d93;fill-opacity:1;stroke:#495b5f;stroke-width:0.59396851;stroke-linecap:butt;stroke-linejoin:round;stroke-miterlimit:4;stroke-dasharray:none;stroke-opacity:1"
         d="m 35.308875,236.416 -4.68996,6.43999 8.95996,-1.08501 z"
         id="path6553"
         inkscape:connector-curvature="0"
         sodipodi:nodetypes="cccc" />
      <path
         style="fill:#8a9fa4;fill-opacity:1;stroke:none;stroke-width:0.26458332"
         d="m 56.392297,238.09988 2.7956,3.77173 -4.09009,-3.10673 z"
         id="path6555"
         inkscape:connector-curvature="0"
         sodipodi:nodetypes="cccc" />
      <path
         style="fill:#5d757b;fill-opacity:1;stroke:none;stroke-width:0.26458332"
         d="m 39.536815,241.47075 -8.27751,1.00544 8.34884,-2.45899 z"
         id="path6557"
         inkscape:connector-curvature="0"
         sodipodi:nodetypes="cccc" />
      <path
         sodipodi:nodetypes="cccc"
         inkscape:connector-curvature="0"
         id="path6559"
         d="m 51.691307,241.35701 8.27751,1.00542 -8.34884,-2.45896 z"
         style="fill:#5d757b;fill-opacity:1;stroke:none;stroke-width:0.26458332" />
      <path
         inkscape:connector-curvature="0"
         id="path5836"
         d="m 40.748799,242.11218 v 0.96894 c 0.215604,-0.0577 0.454819,-0.11439 0.711584,-0.16898 v -0.79996 z"
         style="opacity:1;fill:#b3b3b3;fill-opacity:1;fill-rule:nonzero;stroke:none;stroke-width:0.52453738;stroke-linecap:round;stroke-linejoin:miter;stroke-miterlimit:4;stroke-dasharray:none;stroke-opacity:1;paint-order:fill markers stroke" />
      <circle
         r="15.914678"
         cy="226.86102"
         cx="45.703892"
         style="color:#000000;display:inline;overflow:visible;visibility:visible;fill:#738d93;fill-opacity:1;stroke:#495b5f;stroke-width:0.59396857;stroke-linecap:round;stroke-linejoin:round;stroke-miterlimit:4;stroke-dasharray:none;stroke-dashoffset:0;stroke-opacity:1;enable-background:accumulate"
         id="circle6561" />
      <path
         inkscape:connector-curvature="0"
         id="path6563"
         d="m 45.699294,212.38676 c -7.997289,0 -14.477989,6.4807 -14.477989,14.47796 0,6.36313 4.1072,11.75538 9.81287,13.6984 1.25003,-0.73117 2.80652,-1.15082 4.665119,-1.15082 1.858682,0 3.414702,0.41981 4.665131,1.15082 5.708772,-1.94127 9.825212,-7.33305 9.825212,-13.6984 0,-7.99726 -6.49305,-14.47796 -14.490343,-14.47796 z"
         style="color:#000000;display:inline;overflow:visible;visibility:visible;fill:#fae1d2;fill-opacity:1;stroke:#495b5f;stroke-width:0.59396851;stroke-linecap:round;stroke-linejoin:round;stroke-miterlimit:4;stroke-dasharray:none;stroke-dashoffset:0;stroke-opacity:1;enable-background:accumulate" />
      <path
         inkscape:connector-curvature="0"
         style="fill:#657d83;fill-opacity:1;stroke:#495b5f;stroke-width:0.59396851;stroke-linecap:butt;stroke-linejoin:miter;stroke-miterlimit:4;stroke-dasharray:none;stroke-opacity:1"
         d="m 34.252645,227.80607 -1.07659,2.43775 -2.61098,1.29929 c -0.17295,-0.57771 -0.301301,-1.16624 -0.40834,-1.76952 z"
         id="path6565" />
      <rect
         style="color:#000000;display:inline;overflow:visible;visibility:visible;fill:#ffd42a;fill-opacity:1;stroke:#d4aa00;stroke-width:0.63221943;stroke-linecap:round;stroke-linejoin:round;stroke-miterlimit:4;stroke-dasharray:none;stroke-dashoffset:0;stroke-opacity:1;enable-background:accumulate"
         id="rect6567"
         width="8.2371101"
         height="8.2371101"
         x="241.17006"
         y="187.86034"
         rx="0"
         ry="0"
         transform="matrix(0.85732744,0.51477146,-0.85732744,0.51477146,0,0)" />
      <rect
         transform="matrix(0.85732744,0.51477146,-0.85732744,0.51477146,0,0)"
         ry="0"
         rx="0"
         y="186.11217"
         x="239.42195"
         height="8.2371101"
         width="8.2371101"
         id="rect6569"
         style="color:#000000;display:inline;overflow:visible;visibility:visible;fill:#ffe680;fill-opacity:1;stroke:#d4aa00;stroke-width:0.63221943;stroke-linecap:round;stroke-linejoin:round;stroke-miterlimit:4;stroke-dasharray:none;stroke-dashoffset:0;stroke-opacity:1;enable-background:accumulate" />
      <path
         inkscape:connector-curvature="0"
         id="path6571"
         d="m 57.269307,227.69382 1.07656,2.43773 2.61098,1.29931 c 0.17297,-0.57771 0.30133,-1.16624 0.40836,-1.76952 z"
         style="fill:#657d83;fill-opacity:1;stroke:#495b5f;stroke-width:0.59396851;stroke-linecap:butt;stroke-linejoin:miter;stroke-miterlimit:4;stroke-dasharray:none;stroke-opacity:1" />
      <path
         style="fill:#ffd52e;fill-opacity:1;stroke:#d4aa00;stroke-width:0.59396851;stroke-linecap:butt;stroke-linejoin:miter;stroke-miterlimit:4;stroke-dasharray:none;stroke-opacity:1"
         d="m 45.703855,211.26138 c -8.75613,0 -15.859711,7.52591 -15.91337,16.26943 l 3.24204,2.78708 12.770311,-5.81596 12.980711,5.81596 2.82135,-2.82135 c 0.004,-0.10772 0.0123,-0.21353 0.0123,-0.32174 0,-8.78944 -7.12398,-15.91342 -15.913443,-15.91342 z"
         id="path6573"
         inkscape:connector-curvature="0"
         sodipodi:nodetypes="ccccccscc" />
      <path
         sodipodi:nodetypes="sccccccccccccs"
         inkscape:connector-curvature="0"
         id="path6575"
         d="m 45.708126,210.95132 c -1.969781,0 -3.864031,0.34819 -5.605591,1.00232 -0.009,0.003 -0.0162,0.009 -0.0248,0.0122 -1.3228,0.37797 -2.60053,0.87396 -3.79894,1.4973 v 0.56922 c -3.28762,2.41682 -5.60556,6.07025 -6.28617,10.27072 l 3.60094,3.25445 12.21347,-5.12296 12.015512,5.12298 3.60092,-3.25447 c -0.68449,-4.23143 -3.04632,-7.90391 -6.37278,-10.32018 v -0.5816 c -1.2578,-0.64352 -2.59735,-1.14808 -3.98455,-1.52204 -1.676403,-0.59971 -3.475943,-0.92809 -5.358083,-0.92809 z"
         style="fill:#ffd42a;fill-opacity:1;stroke:#d4aa00;stroke-width:0.59396851;stroke-linecap:butt;stroke-linejoin:miter;stroke-miterlimit:4;stroke-dasharray:none;stroke-opacity:1" />
      <path
         style="fill:#ffe680;fill-opacity:1;stroke:none;stroke-width:0.26458332"
         d="m 45.551966,211.08744 v 1.05183 c 1.676929,0.059 3.281608,0.3765 4.788868,0.91569 1.387193,0.37399 2.726753,0.87854 3.984543,1.52204 l -0.0866,4.57852 c 0.0906,0.0658 0.36609,-3.83959 0.45525,-3.77191 2.99922,2.277 5.05782,5.57127 5.85565,9.38985 l 0.55684,-0.5321 c -0.72582,-4.14668 -3.06195,-7.74425 -6.33566,-10.12219 v -0.5816 c -1.2578,-0.64352 -2.59735,-1.14807 -3.984552,-1.52206 -1.63962,-0.58655 -3.39703,-0.91402 -5.234339,-0.92807 z"
         id="path6577"
         inkscape:connector-curvature="0"
         sodipodi:nodetypes="cccccscccccc" />
      <path
         style="color:#000000;display:inline;overflow:visible;visibility:visible;fill:#c39c00;fill-opacity:1;stroke:#d4aa00;stroke-width:0.59396851;stroke-linecap:round;stroke-linejoin:round;stroke-miterlimit:4;stroke-dasharray:none;stroke-dashoffset:0;stroke-opacity:1;enable-background:accumulate"
         d="m 42.107815,210.46801 c 0,0 1.43491,-0.79195 3.596069,-0.79195 2.161181,0 3.59609,0.79195 3.59609,0.79195 l 1.583913,9.10799 -5.180003,2.47486 -5.179979,-2.47486 z"
         id="path6579"
         inkscape:connector-curvature="0"
         sodipodi:nodetypes="czccccc" />
      <path
         style="fill:#d4aa00;fill-opacity:1;stroke:none;stroke-width:0.26458332"
         d="m 54.791987,213.73835 -0.6492,6.26592 1.22507,-5.63032 z"
         id="path6581"
         inkscape:connector-curvature="0"
         sodipodi:nodetypes="cccc" />
      <path
         style="fill:#c39c00;fill-opacity:1;stroke:none;stroke-width:0.26458332"
         d="m 35.998915,214.41726 c -4.41285,3.28392 -5.43259,8.58345 -5.43259,8.58345 0,0 1.365509,-2.58336 2.19983,-3.91316 1.24719,-1.98792 2.9471,-3.31452 2.9471,-3.31452 l 1.48604,4.1903 c 0,0 -0.69291,-4.1636 -1.20038,-5.54607 z"
         id="path6583"
         inkscape:connector-curvature="0"
         sodipodi:nodetypes="ccsccc" />
      <path
         style="fill:#ffffff;fill-opacity:1;stroke:none;stroke-width:0.19863722"
         d="m 37.383275,229.5302 c 0,0 -0.46205,1.04062 -0.2016,2.14683 0.35974,1.52788 1.19793,1.87361 1.19793,1.87361 l 2.69461,0.007 c 0,0 0.83676,-0.65874 0.88693,-1.81471 0.0721,-1.66007 -0.47947,-2.31825 -0.47947,-2.31825 l -2.23796,-0.40342 z"
         id="path6587"
         inkscape:connector-curvature="0"
         sodipodi:nodetypes="csccsccc" />
      <path
         sodipodi:nodetypes="cscsc"
         inkscape:connector-curvature="0"
         id="path6589"
         d="m 36.768155,229.88135 c 0,0 1.60352,-0.69769 2.458,-0.7374 1.24212,-0.0577 2.79161,0.56183 2.79161,0.56183 0,0 -1.04637,-0.98026 -2.96717,-0.84276 -1.28266,0.0918 -2.28244,1.01833 -2.28244,1.01833 z"
         style="fill:#39474a;fill-opacity:1;stroke:none;stroke-width:0.19863722" />
      <path
         sodipodi:nodetypes="csccsccc"
         inkscape:connector-curvature="0"
         id="path6591"
         d="m 37.575775,229.5302 c 0,0 -0.36579,1.11062 -0.10534,2.21683 0.35974,1.52788 1.15877,1.80377 1.15877,1.80377 l 2.16718,0.0175 c 0,0 0.85207,-0.65219 0.91101,-1.73816 0.0901,-1.65919 -0.40948,-2.52825 -0.40948,-2.52825 l -2.0542,-0.28091 z"
         style="fill:#39474a;fill-opacity:1;stroke:none;stroke-width:0.19863722" />
      <circle
         id="circle6593"
         style="color:#000000;display:inline;overflow:visible;visibility:visible;fill:#ffffff;fill-opacity:1;fill-rule:nonzero;stroke:none;stroke-width:0.19863722;enable-background:accumulate"
         cx="40.156406"
         cy="230.40053"
         r="0.67040068" />
      <path
         sodipodi:nodetypes="cscsc"
         inkscape:connector-curvature="0"
         id="path6595"
         d="m 37.761405,230.95028 c 0,0 -0.23495,2.24549 1.84488,2.27032 1.17917,0.0141 1.59192,-1.07307 1.59192,-1.07307 0,0 -0.90056,0.81282 -1.8421,0.59239 -1.25851,-0.29464 -1.5947,-1.78964 -1.5947,-1.78964 z"
         style="fill:#506e76;fill-opacity:1;stroke:none;stroke-width:0.19863722" />
      <path
         sodipodi:nodetypes="csccccsccc"
         inkscape:connector-curvature="0"
         id="path6597"
         d="m 54.024497,229.5302 c 0,0 0.46205,1.04062 0.20159,2.14682 -0.35971,1.52787 -1.4739,2.04684 -1.4739,2.04684 l -0.0985,-0.0951 c -0.74117,-0.2014 -1.19723,-0.098 -1.906191,0.007 l -0.19517,0.0708 c 0,0 -1.055508,-0.80747 -1.105678,-1.96345 -0.0721,-1.66009 0.479459,-2.31825 0.479459,-2.31825 l 2.23798,-0.40342 z"
         style="fill:#ffffff;fill-opacity:1;stroke:none;stroke-width:0.26458332" />
      <path
         style="fill:#39474a;fill-opacity:1;stroke:none;stroke-width:0.26458332"
         d="m 54.639607,229.88135 c 0,0 -1.60351,-0.6977 -2.458,-0.73742 -1.24211,-0.0577 -2.791593,0.56184 -2.791593,0.56184 0,0 1.046361,-0.98026 2.967173,-0.84276 1.28266,0.0918 2.28242,1.01834 2.28242,1.01834 z"
         id="path6599"
         inkscape:connector-curvature="0"
         sodipodi:nodetypes="cscsc" />
      <path
         style="fill:#39474a;fill-opacity:1;stroke:none;stroke-width:0.26458332"
         d="m 53.832007,229.5302 c 0,0 0.36578,1.11062 0.10534,2.21682 -0.35973,1.52788 -1.26642,1.88367 -1.26642,1.88367 -0.73323,-0.21058 -1.24177,-0.11207 -1.958893,0 0,0 -0.95272,-0.71344 -1.01164,-1.79941 -0.0901,-1.65921 0.409451,-2.52826 0.409451,-2.52826 l 2.054222,-0.28093 z"
         id="path6601"
         inkscape:connector-curvature="0"
         sodipodi:nodetypes="csccsccc" />
      <circle
         r="0.67040056"
         cy="230.17776"
         cx="-52.216557"
         style="color:#000000;display:inline;overflow:visible;visibility:visible;fill:#ffffff;fill-opacity:1;fill-rule:nonzero;stroke:none;stroke-width:0.26458332;enable-background:accumulate"
         id="circle6603"
         transform="scale(-1,1)" />
      <path
         style="fill:#506e76;fill-opacity:1;stroke:none;stroke-width:0.26458332"
         d="m 53.646367,230.95028 c 0,0 0.23495,2.24549 -1.84487,2.27033 -1.179173,0.0141 -1.591941,-1.0731 -1.591941,-1.0731 0,0 0.900571,0.81282 1.842111,0.59241 1.25853,-0.29465 1.5947,-1.78964 1.5947,-1.78964 z"
         id="path6605"
         inkscape:connector-curvature="0"
         sodipodi:nodetypes="cscsc" />
      <path
         sodipodi:nodetypes="czczc"
         inkscape:connector-curvature="0"
         id="path6607"
         d="m 50.283965,233.90684 c 0,0 0.597782,-0.63171 1.571562,-0.56304 0.97375,0.0687 1.06418,0.64967 1.06418,0.64967 0,0 -0.52512,-0.45256 -1.11367,-0.44547 -0.58856,0.007 -1.522072,0.35884 -1.522072,0.35884 z"
         style="fill:#e8c8b5;fill-opacity:1;stroke:none;stroke-width:0.26458332" />
      <path
         sodipodi:nodetypes="cscsc"
         inkscape:connector-curvature="0"
         id="path6609"
         d="m 45.681524,232.73208 c 0,0 -0.856059,0.3184 -1.0093,0.95821 -0.10813,0.45145 0.767212,0.64347 0.767212,0.64347 0,0 -0.491173,-0.34357 -0.43312,-0.63109 0.0631,-0.31227 0.675208,-0.97059 0.675208,-0.97059 z"
         style="fill:#e8c8b5;fill-opacity:1;stroke:none;stroke-width:0.26458332" />
      <path
         inkscape:connector-curvature="0"
         id="path6611"
         d="m 45.699294,209.79319 c -1.644919,0 -2.873999,0.42449 -3.445249,0.66807 l -1.38857,8.01707 4.833819,2.30556 4.8338,-2.30556 -1.40166,-8.01707 c -0.5804,-0.24506 -1.806969,-0.66807 -3.43214,-0.66807 z"
         style="color:#000000;display:inline;overflow:visible;visibility:visible;fill:#ffd42a;fill-opacity:1;stroke:#d4aa00;stroke-width:0.62878972;stroke-linecap:round;stroke-linejoin:round;stroke-miterlimit:4;stroke-dasharray:none;stroke-dashoffset:0;stroke-opacity:1;enable-background:accumulate" />
      <path
         sodipodi:nodetypes="cscscsscc"
         inkscape:connector-curvature="0"
         id="path6613"
         d="m 51.199287,234.57887 c 0,0 -0.505551,1.12932 -5.811514,1.19251 -2.017518,0.024 -4.012138,-0.52264 -4.012138,-0.52264 0,0 0.77748,0.82718 0.95988,1.72908 0.0942,0.46596 -0.003,1.16353 -0.003,1.16353 0,0 1.032991,0.53932 2.797582,0.49181 3.4129,-0.0919 4.98561,-0.51389 5.73926,-1.57481 0.69197,-0.97404 0.3288,-2.47948 0.3288,-2.47948 z"
         style="fill:#812323;fill-opacity:1;stroke:#e8c8b5;stroke-width:0.27718529;stroke-linecap:butt;stroke-linejoin:miter;stroke-miterlimit:4;stroke-dasharray:none;stroke-opacity:1" />
      <path
         inkscape:connector-curvature="0"
         id="path6615"
         d="m 47.058265,237.6304 c -0.75892,-0.0125 -1.222481,0.38846 -1.222481,0.38846 0.0545,-0.16487 0.237602,-0.27923 0.39986,-0.37704 0,0 -0.807569,-0.0569 -1.41669,0.21707 -0.386269,0.17373 -0.532599,0.36877 -0.651239,0.60555 0.31079,0.038 0.65757,0.0677 1.051101,0.0571 1.356339,-0.0365 2.38565,-0.1363 3.187599,-0.30849 -0.138231,-0.21178 -0.488,-0.56841 -1.34815,-0.58267 z"
         style="fill:#a62d2d;fill-opacity:1;stroke:none;stroke-width:0.26458332" />
      <path
         sodipodi:nodetypes="csccsccc"
         inkscape:connector-curvature="0"
         id="path6617"
         d="m 51.114407,234.86996 c 0,0 -1.140113,1.01667 -5.478941,1.01667 -2.368701,0 -3.902161,-0.4141 -3.902161,-0.4141 0,0 0.34589,0.4331 0.59262,1.04389 0,0 1.18227,0.47383 3.773239,0.42637 3.91827,-0.0717 5.057593,-1.44855 5.057593,-1.44855 0.0128,-0.37943 -0.0424,-0.62428 -0.0424,-0.62428 z"
         style="fill:#ffffff;stroke:none;stroke-width:0.26458332" />
      <path
         style="color:#000000;display:inline;overflow:visible;visibility:visible;fill:#ffe680;fill-opacity:1;stroke:none;stroke-width:0.26458332;enable-background:accumulate"
         d="m 47.296755,210.28312 2.213251,6.76246 -0.876822,-6.44075 c -0.362968,-0.11524 -0.815919,-0.24076 -1.336429,-0.32171 z"
         id="path6619"
         inkscape:connector-curvature="0"
         sodipodi:nodetypes="cccc" />
      <path
         sodipodi:nodetypes="cccc"
         inkscape:connector-curvature="0"
         id="path6621"
         d="m 36.574755,213.78167 0.649219,6.26592 -1.225059,-5.63033 z"
         style="fill:#d4aa00;fill-opacity:1;stroke:none;stroke-width:0.26458332" />
      <path
         inkscape:connector-curvature="0"
         id="path6693"
         d="m 45.700466,239.95679 c -1.220661,0 -2.246951,0.28668 -3.093561,0.79197 0.89399,-0.31095 1.922841,-0.48262 3.093561,-0.48262 1.182378,0 2.217949,0.17834 3.118358,0.49497 -0.84967,-0.51068 -1.890429,-0.80432 -3.118358,-0.80432 z"
         style="color:#000000;display:inline;overflow:visible;visibility:visible;fill:#9fb0b4;fill-opacity:1;fill-rule:nonzero;stroke:none;stroke-width:0.26458332;enable-background:accumulate" />
      <path
         sodipodi:nodetypes="ccscsc"
         inkscape:connector-curvature="0"
         id="path6697"
         d="m 36.184835,227.13253 0.32974,1.00075 c 0,0 2.38804,-0.48952 3.64472,-0.26294 0.66145,0.11926 1.42658,0.52473 1.42658,0.52473 0,0 -0.44454,-1.00382 -1.89356,-1.3198 -1.54466,-0.33685 -3.50748,0.0573 -3.50748,0.0573 z"
         style="fill:#39474a;fill-opacity:1;stroke:none;stroke-width:0.26061857" />
      <path
         style="fill:#39474a;fill-opacity:1;stroke:none;stroke-width:0.26061857"
         d="m 55.222977,227.13253 -0.32974,1.00075 c 0,0 -2.38805,-0.48952 -3.64472,-0.26294 -0.661454,0.11926 -1.426581,0.52473 -1.426581,0.52473 0,0 0.44454,-1.00382 1.893551,-1.3198 1.54466,-0.33685 3.50749,0.0573 3.50749,0.0573 z"
         id="path6699"
         inkscape:connector-curvature="0"
         sodipodi:nodetypes="ccscsc" />
      <path
         sodipodi:nodetypes="cccc"
         inkscape:connector-curvature="0"
         id="path11880"
         d="m 33.980834,248.24202 c 0.138501,-0.0518 0.598091,0.63166 0.50438,1.13026 -0.248989,-0.40355 -0.452219,-0.72392 -1.117229,-0.80447 z"
         style="fill:#495b5f;fill-opacity:1;stroke:none;stroke-width:0.26458332" />
      <g
         transform="matrix(-0.99425104,0.10707425,0.10707425,0.99425104,152.93973,-11.36322)"
         id="g6078">
        <path
           sodipodi:nodetypes="csccscccccccccccccsccc"
           inkscape:connector-curvature="0"
           id="path6319"
           d="m 147.26482,244.33501 c 0,0 -0.105,1.48547 1.11235,2.91666 1.50163,1.76562 3.2091,1.85224 3.2091,1.85224 l 3.32617,-3.5075 c 0,0 0.92506,-0.25966 1.59457,-0.64818 0.5688,-0.33009 1.2507,-1.23691 1.2507,-1.23691 l 3.33845,-0.86138 -0.26953,-1.18925 -2.7856,0.55056 3.14867,-1.93842 -0.45624,-1.07552 -3.32479,1.55365 2.94759,-3.39437 -0.72097,-0.99346 -3.5078,3.00673 1.9487,-3.25858 -1.09577,-0.66934 -3.63855,3.98861 c 0,0 0.29541,-2.07978 -0.17276,-2.75935 -0.29354,-0.42608 -0.95478,-0.70212 -0.95478,-0.70212 l -1.52193,5.41817 z"
           style="fill:#738d93;fill-opacity:1;stroke:#495b5f;stroke-width:0.68583715;stroke-linecap:butt;stroke-linejoin:round;stroke-miterlimit:4;stroke-dasharray:none;stroke-opacity:1" />
        <path
           sodipodi:nodetypes="cccc"
           inkscape:connector-curvature="0"
           id="path6343"
           d="m 153.62261,239.34977 -0.50784,0.33678 1.42326,1.32875 z"
           style="fill:#495b5f;fill-opacity:1;stroke:none;stroke-width:0.26061857" />
        <path
           sodipodi:nodetypes="cccccc"
           inkscape:connector-curvature="0"
           id="path6345"
           d="m 148.36606,246.62628 c 0.5183,0.52125 1.77534,1.25578 2.85651,1.45685 l 3.00014,-2.73038 0.28785,0.11065 -3.03279,3.24011 c -1.49092,-0.26504 -2.64556,-1.35918 -3.11171,-2.07723 z"
           style="fill:#657d83;fill-opacity:1;stroke:none;stroke-width:0.26061857" />
        <path
           style="fill:#495b5f;fill-opacity:1;stroke:none;stroke-width:0.26061857"
           d="m 154.54864,245.73746 0.26309,-0.44152 c -0.72212,-0.075 -1.32196,-0.47799 -1.63152,-0.8393 0.16091,0.44173 0.65043,0.9895 1.36843,1.28082 z"
           id="path6347"
           inkscape:connector-curvature="0"
           sodipodi:nodetypes="cccc" />
        <path
           sodipodi:nodetypes="cccc"
           inkscape:connector-curvature="0"
           id="path6353"
           d="m 147.90399,244.51381 c -0.01,0.14687 0.10242,0.53355 0.15003,0.64297 l 2.81839,-3.15592 z"
           style="fill:#95a9af;fill-opacity:1;stroke:none;stroke-width:0.26061857" />
        <path
           sodipodi:nodetypes="cscsc"
           inkscape:connector-curvature="0"
           id="path6359"
           d="m 154.34593,243.91383 c 0,0 0.75532,0.42047 1.48959,0.1929 0.54183,-0.16793 1.07161,-0.90015 1.07161,-0.90015 0,0 -0.73181,0.61705 -1.32881,0.68582 -0.40813,0.047 -1.23239,0.0213 -1.23239,0.0213 z"
           style="fill:#95a9af;fill-opacity:1;stroke:none;stroke-width:0.26061857" />
      </g>
      <path
         sodipodi:nodetypes="cscccc"
         inkscape:connector-curvature="0"
         id="path6307"
         d="m 63.036017,251.9652 c 0,0 -1.20515,0.0134 -2.30857,1.16436 -1.31394,1.37054 -1.9025,3.03117 -1.9025,3.03117 l 1.84392,2.94916 6.11951,-3.94275 z"
         style="fill:#738d93;fill-opacity:1;stroke:#495b5f;stroke-width:0.79073769;stroke-linecap:butt;stroke-linejoin:miter;stroke-miterlimit:4;stroke-dasharray:none;stroke-opacity:1" />
      <path
         sodipodi:nodetypes="cssscc"
         inkscape:connector-curvature="0"
         id="path6321"
         d="m 67.258857,255.42625 c 0,0 -1.12672,-2.3063 -2.69484,-2.74566 -1.04862,-0.29381 -2.71225,0.41711 -3.07819,1.44046 -0.13818,0.38486 0.2502,0.91289 0.63587,1.04952 0.52901,0.1871 1.64117,-1.09097 1.64117,-1.09097 z"
         style="fill:#738d93;fill-opacity:1;stroke:#495b5f;stroke-width:0.79073769;stroke-linecap:butt;stroke-linejoin:miter;stroke-miterlimit:4;stroke-dasharray:none;stroke-opacity:1" />
      <g
         transform="translate(-164.12012,44.89785)"
         id="g6392">
        <path
           style="fill:#c3c3c3;fill-opacity:1;fill-rule:evenodd;stroke:none;stroke-width:0.99999994px;stroke-linecap:butt;stroke-linejoin:miter;stroke-opacity:1"
           d="m 887.0396,426.18987 c 0,0 -3.89729,2.28228 -6.0451,2.6657 0.66157,0.36848 1.61345,0.79192 2.31214,0.4999 l 0.002,0.008 0.14063,-0.0703 4.32617,-2.13672 0.3887,-0.66491 z"
           transform="matrix(0.26458333,0,0,0.26458333,0,93.799983)"
           id="path6326"
           inkscape:connector-curvature="0"
           sodipodi:nodetypes="cccccccc" />
        <path
           style="opacity:1;fill:#e6e6e6;fill-opacity:1;fill-rule:nonzero;stroke:#495b5f;stroke-width:0.23949006;stroke-linecap:round;stroke-linejoin:round;stroke-miterlimit:4;stroke-dasharray:none;stroke-opacity:1;paint-order:markers stroke fill"
           d="m 231.65063,206.50007 1.33897,2.02822 c -0.30635,0.0991 -0.5797,0.11704 -0.97019,0.42293 l -6.64902,5.84096 c -0.46329,0.41839 -0.67997,0.93713 -0.91457,1.44857 l -1.7563,-1.99927 c 0.59842,-0.14868 1.10631,-0.40043 1.55434,-0.7203 l 6.60358,-5.80105 c 0.46344,-0.46399 0.61867,-0.70138 0.79319,-1.22006 z"
           id="rect6251"
           inkscape:connector-curvature="0"
           sodipodi:nodetypes="ccccccccc" />
        <path
           style="opacity:1;fill:#ffffff;fill-opacity:1;fill-rule:nonzero;stroke:none;stroke-width:0.13659424;stroke-linecap:round;stroke-linejoin:round;stroke-miterlimit:4;stroke-dasharray:none;stroke-opacity:1;paint-order:fill markers stroke"
           d="m 231.2421,209.01301 c -0.0147,0.0564 -0.0406,0.11043 -0.0879,0.15193 l -5.8198,5.11235 c -0.12558,0.11032 -0.31549,0.0981 -0.42581,-0.0274 l -0.11421,-0.12971 c -0.0283,-0.0323 -0.0481,-0.0692 -0.0605,-0.10748 -0.0244,0.0935 -0.008,0.196 0.0605,0.2744 l 0.11421,0.12971 c 0.11032,0.1255 0.30023,0.13822 0.42581,0.0279 l 5.8198,-5.11286 c 0.0934,-0.0821 0.12374,-0.2079 0.0879,-0.31885 z"
           id="path6340"
           inkscape:connector-curvature="0" />
        <path
           style="opacity:1;fill:#ffffff;fill-opacity:1;fill-rule:nonzero;stroke:none;stroke-width:0.23949006;stroke-linecap:round;stroke-linejoin:round;stroke-miterlimit:4;stroke-dasharray:none;stroke-opacity:1;paint-order:markers stroke fill"
           d="m 231.65082,206.4999 c -0.17452,0.51868 -0.32979,0.75609 -0.79323,1.22008 l -6.60373,5.8012 c -0.44803,0.31987 -0.95601,0.57169 -1.55443,0.72037 l 0.34469,0.39222 c 0.45127,-0.15083 0.85098,-0.36036 1.20974,-0.6165 l 6.60373,-5.80119 c 0.46344,-0.46399 0.61871,-0.7014 0.79323,-1.22008 l 1.06402,1.6123 c 0.0912,-0.0255 0.18182,-0.05 0.27492,-0.0801 z"
           id="path6332"
           inkscape:connector-curvature="0" />
        <path
           style="fill:#1c1c1c;stroke:#495b5f;stroke-width:0.26458332;stroke-linecap:round;stroke-linejoin:round;stroke-miterlimit:4;stroke-dasharray:none;stroke-opacity:1;paint-order:markers stroke fill"
           d="m 224.06224,214.81523 a 1.7136106,1.7136106 0 0 0 -2.41825,-0.15645 1.7136106,1.7136106 0 0 0 -0.15646,2.41826 1.7136106,1.7136106 0 0 0 2.41847,0.15668 1.7136106,1.7136106 0 0 0 0.15624,-2.41849 z m -0.38796,0.34082 a 1.1972384,1.1972384 0 0 1 0.17694,1.31225 c 0.0566,-0.12098 0.11382,-0.33882 0.091,-0.34721 -0.005,-7.3e-4 -0.0283,4e-4 -0.0514,0.005 -0.0839,0.0163 -0.175,0.0893 -0.21364,0.17024 -0.0433,0.0916 -0.0293,0.22678 0.0316,0.30432 0.0149,0.0197 0.0316,0.0352 0.0359,0.0361 6.8e-4,4e-5 0.003,-0.002 0.006,-0.004 0,0 2.4e-4,-2.1e-4 2.4e-4,-2.1e-4 0.01,-0.01 0.0277,-0.0359 0.0468,-0.0668 0.0188,-0.0305 0.0383,-0.0654 0.0516,-0.0934 a 1.1972384,1.1972384 0 0 1 -0.0516,0.0934 1.1972384,1.1972384 0 0 1 -0.23267,0.27994 1.1972384,1.1972384 0 0 1 -0.26089,0.17314 c 0.0457,-0.0226 0.12468,-0.0761 0.19981,-0.13401 0.0621,-0.0473 0.12015,-0.0983 0.15343,-0.13436 0.0531,-0.059 0.0515,-0.0659 -0.0189,-0.0876 -0.0561,-0.0176 -0.12542,-0.015 -0.18738,0.007 -0.0459,0.0162 -0.11689,0.0678 -0.14122,0.10289 -0.0269,0.039 -0.0513,0.10079 -0.0567,0.14614 -0.006,0.051 0.001,0.10639 0.0153,0.11147 0.005,0.002 0.0153,-0.002 0.0293,-0.008 a 1.1972384,1.1972384 0 0 1 -1.42264,-0.2856 1.1972384,1.1972384 0 0 1 0.10954,-1.68969 1.1972384,1.1972384 0 0 1 1.68947,0.10931 z m 0.003,0.0172 c -0.0294,-0.0357 -0.0589,-0.0685 -0.085,-0.0943 -0.081,-0.0797 -0.0892,-0.081 -0.11025,-0.0173 -0.019,0.0575 -0.0175,0.13087 0.004,0.19295 0.022,0.0627 0.0957,0.14354 0.15772,0.17151 0.0595,0.0272 0.17297,0.0369 0.20172,0.0208 0.005,-0.002 0.006,-0.005 0.006,-0.008 0.002,-0.0283 -0.0865,-0.1588 -0.17483,-0.26564 z m -0.25004,-0.2199 c -0.0455,-0.0528 -0.28494,-0.15055 -0.42949,-0.17517 -0.0283,-0.005 -0.0542,-0.006 -0.0579,-0.004 -0.008,0.007 0.004,0.0617 0.0274,0.11292 0.0257,0.0577 0.076,0.10529 0.14548,0.13868 0.096,0.0461 0.20735,0.0382 0.2917,-0.0209 l 0.0426,-0.0295 z m 0.45637,0.55541 c -0.0103,-0.0127 -0.0681,0.0335 -0.0993,0.0802 -0.0488,0.071 -0.0661,0.16884 -0.0452,0.25428 0.0173,0.0704 0.0863,0.15502 0.15515,0.19079 0.029,0.0147 0.0562,0.0241 0.0605,0.0207 l 3e-4,-0.001 c 0.02,-0.0159 0.0145,-0.22243 -0.009,-0.34264 -0.016,-0.0814 -0.0474,-0.18335 -0.0623,-0.20223 z m -1.03054,-0.74502 c -0.008,-0.003 -0.022,-0.005 -0.0464,-0.007 -0.0772,-0.005 -0.22601,0.009 -0.30676,0.0283 -0.0877,0.0213 -0.16338,0.0479 -0.16457,0.0574 -0.002,0.0169 0.0453,0.0652 0.0918,0.0932 0.10082,0.0615 0.24024,0.0524 0.33485,-0.0219 l 4.5e-4,3e-5 c 0.0496,-0.0387 0.0994,-0.10496 0.0997,-0.13364 2.4e-4,-0.009 -0.001,-0.0136 -0.009,-0.0169 z m -0.58646,0.12336 c -0.0111,-0.0184 -0.0454,0.002 -0.13204,0.0566 -0.0848,0.053 -0.10906,0.073 -0.18655,0.14768 -0.0699,0.0678 -0.10277,0.10707 -0.0987,0.11912 0.007,0.0192 0.12903,0.0321 0.18743,0.0196 0.0492,-0.0105 0.0668,-0.0194 0.11649,-0.0588 0.0758,-0.0602 0.10613,-0.11492 0.11467,-0.20824 0.004,-0.0398 0.005,-0.065 -0.001,-0.0761 z m -0.4579,0.39728 c -0.0163,-0.0195 -0.0238,-0.01 -0.0478,0.0292 -0.0311,0.0509 -0.0928,0.18759 -0.11458,0.25464 -0.0243,0.0743 -0.0489,0.1869 -0.0427,0.19478 0.0108,0.0132 0.0844,-0.0141 0.13787,-0.051 0.0118,-0.008 0.0216,-0.0147 0.0301,-0.0215 l -4.2e-4,-4.8e-4 c 0.0252,-0.0205 0.0396,-0.0371 0.0571,-0.0659 0.0582,-0.0962 0.0585,-0.22135 6.5e-4,-0.31064 -0.008,-0.013 -0.0148,-0.0226 -0.0202,-0.0292 z m 1.35124,1.72386 c -0.0264,-0.0259 -0.0615,-0.0535 -0.0885,-0.0663 -0.0624,-0.0289 -0.16312,-0.036 -0.2189,-0.0148 -0.0233,0.01 -0.0557,0.0241 -0.0711,0.0334 -0.0633,0.0383 -0.13917,0.14571 -0.11717,0.16477 0.0168,0.0137 0.16897,0.0167 0.26796,0.005 0.0822,-0.0101 0.24558,-0.0502 0.26427,-0.0649 l -2.1e-4,-2.4e-4 c 0.008,-0.006 -0.01,-0.0306 -0.0363,-0.0565 z m -1.44345,-1.08418 c -0.0147,-0.0166 -0.0315,-0.0319 -0.0503,-0.0455 -0.0706,-0.0515 -0.0784,-0.0459 -0.0803,0.0564 -0.003,0.11081 0.0129,0.23377 0.0432,0.33977 0.0248,0.0869 0.0354,0.10408 0.0633,0.0801 l -4.5e-4,-3e-5 c 0.004,-0.003 0.008,-0.008 0.0127,-0.0129 0.11404,-0.12001 0.11448,-0.30192 0.0118,-0.41796 z m 0.8021,1.02457 c -0.0282,-0.0349 -0.0632,-0.0644 -0.0997,-0.0818 -0.0615,-0.0296 -0.14936,-0.0394 -0.21169,-0.0236 -0.0519,0.0131 -0.12248,0.0538 -0.12073,0.0695 0.003,0.0219 0.15363,0.10812 0.25762,0.14726 0.0711,0.0267 0.22998,0.0661 0.23878,0.0592 l 4.8e-4,-4.2e-4 c 0.004,-0.003 6.4e-4,-0.028 -0.006,-0.0565 -0.009,-0.0386 -0.0305,-0.0787 -0.0587,-0.11362 z m -0.52258,-0.38933 c -0.0124,-0.0168 -0.0261,-0.0324 -0.0419,-0.0462 -0.048,-0.0423 -0.0811,-0.0586 -0.14529,-0.0733 -0.0258,-0.006 -0.0622,-0.009 -0.0805,-0.006 -0.0332,0.005 -0.0331,0.005 -0.0265,0.0275 0.0152,0.0485 0.10962,0.19006 0.1803,0.26997 0.0708,0.0799 0.12546,0.1334 0.14043,0.13481 9e-4,6e-5 0.002,-9.9e-4 0.002,-9.9e-4 l 0.001,7.5e-4 c 0.0123,-0.008 0.0309,-0.088 0.0303,-0.12952 -0.001,-0.0644 -0.0224,-0.1264 -0.0595,-0.17686 z"
           id="path6184"
           inkscape:connector-curvature="0" />
        <path
           style="opacity:1;fill:#e6e6e6;fill-opacity:1;fill-rule:nonzero;stroke:none;stroke-width:0.31932011;stroke-linecap:round;stroke-linejoin:miter;stroke-miterlimit:4;stroke-dasharray:none;stroke-opacity:1;paint-order:fill markers stroke"
           d="m 224.06224,214.81523 a 1.7136106,1.7136106 0 0 0 -2.41825,-0.15645 1.7136106,1.7136106 0 0 0 -0.15646,2.41826 1.7136106,1.7136106 0 0 0 2.41847,0.15668 1.7136106,1.7136106 0 0 0 0.15624,-2.41849 z m -0.38796,0.34082 a 1.1972384,1.1972384 45 0 1 -0.1091,1.68971 1.1972384,1.1972384 45 0 1 -1.68992,-0.10933 1.1972384,1.1972384 45 0 1 0.10954,-1.68969 1.1972384,1.1972384 45 0 1 1.68948,0.10931 z"
           id="path6083"
           inkscape:connector-curvature="0" />
        <g
           id="g6182"
           transform="matrix(0.60345718,0.68694111,-0.68694111,0.60345718,217.78317,-57.23482)"
           style="fill:#b3b3b3;fill-opacity:1">
          <path
             inkscape:connector-curvature="0"
             id="path6154"
             d="m 229.36044,193.15806 c 0.006,-0.0852 0.006,-0.16955 3.1e-4,-0.22293 -0.0101,-0.0862 -0.0169,-0.0899 -0.0855,-0.0478 -0.0549,0.0334 -0.10296,0.0923 -0.12974,0.15897 -0.0198,0.0494 -0.0288,0.14502 -0.0175,0.19035 0.0126,0.0503 0.046,0.11486 0.0793,0.1521 0.0375,0.0419 0.0884,0.0756 0.10256,0.0679 0.0201,-0.0112 0.0413,-0.15629 0.0505,-0.29854 z"
             style="fill:#b3b3b3;fill-opacity:1;stroke-width:0.0102054" />
          <path
             inkscape:connector-curvature="0"
             id="path6152"
             d="m 229.33134,192.77357 c -0.002,-0.0302 -0.0342,-0.13603 -0.0614,-0.19866 -0.0579,-0.1338 -0.1974,-0.34097 -0.22094,-0.32817 -0.004,0.003 -0.0201,0.0235 -0.0331,0.0457 -0.0471,0.0807 -0.053,0.20827 -0.0144,0.29844 0.044,0.10164 0.16531,0.18779 0.27297,0.19373 0.027,0.002 0.0517,-3.8e-4 0.0555,-0.003 8.1e-4,-7.4e-4 0,-0.004 0.001,-0.009 z"
             style="fill:#b3b3b3;fill-opacity:1;stroke-width:0.0102054" />
          <path
             inkscape:connector-curvature="0"
             id="path6150"
             d="m 229.28604,193.54087 c 9.7e-4,-0.022 -0.13098,-0.0122 -0.19098,0.0137 -0.0688,0.0304 -0.14721,0.10825 -0.1701,0.16934 -0.009,0.026 -0.0206,0.0632 -0.024,0.0826 -0.0142,0.0797 0.0193,0.21947 0.0508,0.21516 0.0234,-0.004 0.1357,-0.12673 0.19712,-0.21688 0.051,-0.0748 0.13592,-0.23816 0.13735,-0.2641 z"
             style="fill:#b3b3b3;fill-opacity:1;stroke-width:0.0102054" />
          <path
             inkscape:connector-curvature="0"
             id="path6146"
             d="m 229.00294,192.18756 c 0.001,-0.0279 -0.17232,-0.17266 -0.28824,-0.23991 -0.0785,-0.0456 -0.18474,-0.0933 -0.211,-0.0947 -0.0179,-7.5e-4 -0.0218,0.08 -0.006,0.13939 0.0231,0.0913 0.091,0.17625 0.17628,0.22076 0.0703,0.0366 0.18994,0.0408 0.26903,0.01 0.033,-0.0132 0.0603,-0.0288 0.0607,-0.0348 z"
             style="fill:#b3b3b3;fill-opacity:1;stroke-width:0.0102054" />
          <path
             inkscape:connector-curvature="0"
             id="path6144"
             d="m 228.88813,194.0835 c -2.2e-4,-0.005 -0.0225,-0.0208 -0.0508,-0.0359 -0.0765,-0.041 -0.19391,-0.0459 -0.27512,-0.0111 -0.0687,0.0292 -0.14011,0.0945 -0.17212,0.15712 -0.0267,0.0521 -0.0441,0.13947 -0.0299,0.14939 0.0198,0.0137 0.19966,-0.0484 0.30688,-0.10557 0.0733,-0.0391 0.2202,-0.14133 0.22089,-0.15354 z"
             style="fill:#b3b3b3;fill-opacity:1;stroke-width:0.0102054" />
          <path
             inkscape:connector-curvature="0"
             id="path6142"
             d="m 228.42541,191.83992 c 0.002,-0.006 7.3e-4,-0.009 -0.002,-0.0116 -0.029,-0.0295 -0.32322,-0.0575 -0.48303,-0.0463 -0.12398,0.009 -0.13101,0.0149 -0.0939,0.0782 0.0335,0.0571 0.0949,0.10871 0.16164,0.13563 0.0674,0.0272 0.18686,0.0248 0.25459,-0.006 0.0653,-0.0292 0.1552,-0.11526 0.16274,-0.15048 z"
             style="fill:#b3b3b3;fill-opacity:1;stroke-width:0.0102054" />
          <path
             inkscape:connector-curvature="0"
             id="path6140"
             d="m 228.27739,194.35922 c 0.002,-0.0162 -0.05,-0.0888 -0.0846,-0.1183 -0.0717,-0.0607 -0.16571,-0.0892 -0.25678,-0.0776 -0.0694,0.009 -0.10665,0.0242 -0.16506,0.0664 -0.0234,0.0171 -0.0517,0.0449 -0.0628,0.0617 -0.0202,0.0306 -0.0201,0.0307 0.003,0.0417 0.0508,0.0226 0.23521,0.0471 0.35188,0.0467 0.11677,-5.7e-4 0.20018,-0.007 0.21215,-0.0183 7.2e-4,-6.5e-4 4.8e-4,-0.002 4.8e-4,-0.002 z"
             style="fill:#b3b3b3;fill-opacity:1;stroke-width:0.0102054" />
          <path
             inkscape:connector-curvature="0"
             id="path6138"
             d="m 227.61685,194.26442 c -2.2e-4,-0.005 -9.2e-4,-0.0121 -0.001,-0.0199 -0.0186,-0.20608 -0.21085,-0.34853 -0.4085,-0.30271 -0.0933,0.0208 -0.0943,0.0314 -0.0116,0.10685 0.0891,0.0822 0.2013,0.15797 0.31027,0.20957 0.0893,0.0423 0.11101,0.0462 0.11147,0.006 z"
             style="fill:#b3b3b3;fill-opacity:1;stroke-width:0.0102054" />
          <path
             inkscape:connector-curvature="0"
             id="path6136"
             d="m 227.75061,191.82684 -0.0329,6e-5 c -0.0762,-8.1e-4 -0.32904,0.12543 -0.4536,0.22643 -0.0244,0.0198 -0.0445,0.04 -0.0448,0.045 -1e-4,0.0121 0.0537,0.041 0.11234,0.0591 0.0659,0.0205 0.14168,0.0137 0.21928,-0.0193 0.10725,-0.0456 0.18107,-0.14304 0.19336,-0.25502 z"
             style="fill:#b3b3b3;fill-opacity:1;stroke-width:0.0102054" />
          <path
             inkscape:connector-curvature="0"
             id="path6134"
             d="m 227.20584,192.34507 c 0.004,-0.0687 -0.0143,-0.15752 -0.0377,-0.17845 -0.0138,-0.0128 -0.0214,-0.009 -0.0593,0.0287 -0.06,0.0597 -0.15601,0.19197 -0.19812,0.27252 -0.0458,0.0875 -0.0787,0.16872 -0.0717,0.1766 0.0126,0.0137 0.0861,0.01 0.1428,-0.008 0.12326,-0.0385 0.21649,-0.15986 0.22374,-0.29121 z"
             style="fill:#b3b3b3;fill-opacity:1;stroke-width:0.0102054" />
          <path
             inkscape:connector-curvature="0"
             id="path6132"
             d="m 227.12794,193.71958 c 0.001,-0.0355 -0.002,-0.0595 -0.013,-0.0947 -0.0371,-0.11726 -0.13958,-0.20766 -0.25473,-0.22453 -0.0668,-0.01 -0.0686,-0.008 -0.049,0.0558 0.0194,0.0623 0.087,0.21153 0.12635,0.27785 0.0435,0.0736 0.11832,0.17516 0.12928,0.17575 0.0186,6.7e-4 0.0495,-0.0795 0.0578,-0.15007 0.002,-0.0154 0.003,-0.0283 0.004,-0.0402 z"
             style="fill:#b3b3b3;fill-opacity:1;stroke-width:0.0102054" />
          <path
             inkscape:connector-curvature="0"
             id="path6010"
             d="m 226.97762,193.0311 c 0.005,-0.10577 -0.0181,-0.17018 -0.0886,-0.24456 -0.0802,-0.0846 -0.0839,-0.0815 -0.11203,0.0955 -0.0177,0.10789 -0.0188,0.14232 -0.0133,0.25993 0.005,0.10642 0.0139,0.16188 0.0267,0.16726 0.0209,0.008 0.11956,-0.083 0.15146,-0.13999 0.0269,-0.048 0.0322,-0.0688 0.0357,-0.13807 z"
             style="fill:#b3b3b3;fill-opacity:1;stroke-width:0.0102054" />
        </g>
        <path
           style="fill:#bdbdbd;fill-opacity:1;fill-rule:evenodd;stroke:none;stroke-width:0.99999994px;stroke-linecap:butt;stroke-linejoin:miter;stroke-opacity:1"
           d="m 875.625,431.70508 c 0.36411,0.72825 1.51868,1.96509 2.41016,2.79297 0.61596,-0.32226 1.1676,-0.49011 1.71289,-0.63867 A 6.4766384,6.4766384 0 0 1 876.5,431.9082 c -0.24715,-0.0541 -0.875,-0.20312 -0.875,-0.20312 z"
           transform="matrix(0.26458333,0,0,0.26458333,0,93.799983)"
           id="path6352"
           inkscape:connector-curvature="0" />
        <path
           style="opacity:1;fill:#e6e6e6;fill-opacity:1;fill-rule:nonzero;stroke:#495b5f;stroke-width:0.23949006;stroke-linecap:round;stroke-linejoin:miter;stroke-miterlimit:4;stroke-dasharray:none;stroke-opacity:1;paint-order:markers stroke fill"
           d="m 234.31216,205.64625 a 1.7136106,1.7136106 0 0 0 -1.88907,-0.24908 1.7136106,1.7136106 0 0 0 -0.77701,2.29536 1.7136106,1.7136106 0 0 0 2.2955,0.77729 1.7136106,1.7136106 0 0 0 0.94903,-1.65166 l -1.1448,0.56576 -0.0369,0.0183 -8.3e-4,-0.002 a 0.65349905,0.65349905 0 0 1 -0.83781,-0.31295 0.65349905,0.65349905 0 0 1 0.26017,-0.8559 l -5.5e-4,-0.001 0.0369,-0.0182 z"
           id="path6258"
           inkscape:connector-curvature="0" />
        <path
           style="opacity:1;fill:#e6e6e6;fill-opacity:1;fill-rule:nonzero;stroke:#495b5f;stroke-width:0.13659424;stroke-linecap:round;stroke-linejoin:round;stroke-miterlimit:4;stroke-dasharray:none;stroke-opacity:1;paint-order:fill markers stroke"
           d="m 231.03406,208.57573 0.11421,0.13001 c 0.11032,0.12558 0.098,0.31549 -0.0275,0.4258 l -5.81981,5.11253 c -0.12558,0.11032 -0.31549,0.098 -0.42581,-0.0275 l -0.1142,-0.13 c -0.11032,-0.12558 -0.098,-0.31549 0.0275,-0.42581 l 5.81981,-5.11253 c 0.12558,-0.11032 0.31549,-0.098 0.42581,0.0275 z"
           id="rect6273"
           inkscape:connector-curvature="0" />
        <path
           style="opacity:1;fill:#ffffff;fill-opacity:1;fill-rule:nonzero;stroke:none;stroke-width:0.23949006;stroke-linecap:round;stroke-linejoin:miter;stroke-miterlimit:4;stroke-dasharray:none;stroke-opacity:1;paint-order:markers stroke fill"
           d="m 233.21662,205.22045 a 1.7136106,1.7136106 0 0 0 -0.79323,0.17674 1.7136106,1.7136106 0 0 0 -0.95033,1.61902 1.7136106,1.7136106 0 0 1 0.95033,-1.45211 1.7136106,1.7136106 0 0 1 1.75958,0.14625 l 0.12919,-0.0641 a 1.7136106,1.7136106 0 0 0 -1.09554,-0.42582 z m 1.67432,1.59732 -1.14515,0.56586 -0.0367,0.0186 -0.001,-0.002 a 0.65349905,0.65349905 0 0 1 -0.83767,-0.31316 0.65349905,0.65349905 0 0 1 -0.0615,-0.2067 0.65349905,0.65349905 0 0 0 0.0615,0.37362 0.65349905,0.65349905 0 0 0 0.83767,0.31316 l 0.001,0.002 0.0367,-0.0186 1.14515,-0.56585 a 1.7136106,1.7136106 0 0 1 5.3e-4,0.0191 1.7136106,1.7136106 0 0 0 -5.3e-4,-0.18604 z"
           id="path6320"
           inkscape:connector-curvature="0" />
        <path
           style="opacity:1;fill:#bdbdbd;fill-opacity:1;fill-rule:nonzero;stroke:none;stroke-width:0.13659424;stroke-linecap:round;stroke-linejoin:round;stroke-miterlimit:4;stroke-dasharray:none;stroke-opacity:1;paint-order:fill markers stroke"
           d="m 230.86322,208.52776 c -0.077,-0.005 -0.1558,0.0198 -0.21859,0.0749 l -5.8198,5.11234 c -0.0875,0.0769 -0.0828,0.15381 -0.057,0.25931 0.0132,-0.0609 0.006,-0.081 0.057,-0.12546 l 5.8198,-5.11235 c 0.12558,-0.11032 0.25348,-0.0981 0.3638,0.0274 l 0.0994,0.0913 c 0.0337,0.0384 0.0147,0.10363 0.0258,0.14984 0.0378,-0.0748 0.0555,-0.16947 -0.0111,-0.24477 l -0.11421,-0.13023 c -0.0552,-0.0627 -0.0682,-0.0973 -0.14521,-0.10232 z"
           id="path6346"
           inkscape:connector-curvature="0"
           sodipodi:nodetypes="ccccccccccccc" />
        <path
           style="opacity:1;fill:#ffffff;fill-opacity:1;fill-rule:nonzero;stroke:none;stroke-width:0.31932011;stroke-linecap:round;stroke-linejoin:miter;stroke-miterlimit:4;stroke-dasharray:none;stroke-opacity:1;paint-order:fill markers stroke"
           d="m 222.6973,214.23498 a 1.7136106,1.7136106 0 0 0 -0.89711,0.31006 1.7136106,1.7136106 0 0 1 2.17041,0.33693 1.7136106,1.7136106 0 0 1 -0.15658,2.41845 1.7136106,1.7136106 0 0 1 -0.14934,0.11472 1.7136106,1.7136106 0 0 0 0.2496,-0.18138 1.7136106,1.7136106 0 0 0 0.15606,-2.41846 1.7136106,1.7136106 0 0 0 -1.37304,-0.58032 z m -0.62632,0.74982 a 1.1972384,1.1972384 0 0 0 -0.17829,0.12868 1.1972384,1.1972384 0 0 0 -0.10955,1.68981 1.1972384,1.1972384 0 0 0 1.61231,0.17105 1.1972384,1.1972384 0 0 1 -1.51206,-0.23771 1.1972384,1.1972384 0 0 1 0.10956,-1.68982 1.1972384,1.1972384 0 0 1 0.078,-0.062 z"
           id="path6362"
           inkscape:connector-curvature="0" />
      </g>
      <path
         sodipodi:nodetypes="ssscsss"
         style="fill:#738d93;fill-opacity:1;stroke:#495b5f;stroke-width:0.79073769;stroke-linecap:butt;stroke-linejoin:miter;stroke-miterlimit:4;stroke-dasharray:none;stroke-opacity:1"
         d="m 67.771667,257.53906 c 0.84871,-1.17398 -0.94928,-2.47446 -1.29615,-2.80882 -0.53638,-0.51714 -1.67202,-1.6505 -2.52619,-0.95075 -0.74798,0.61286 -1.37853,1.60959 -3.67011,3.29763 -0.60114,0.3591 1.6e-4,1.64594 0.35944,2.24699 0.62003,1.03739 1.37211,1.61259 2.57109,1.46139 1.53842,-0.19381 3.18924,-1.34735 4.56192,-3.24644 z"
         id="path6323"
         inkscape:connector-curvature="0" />
      <path
         style="fill:#495b5f;fill-opacity:1;stroke:none;stroke-width:0.30048081"
         d="m 61.787247,251.43368 c 0,0 -0.65572,-0.003 -0.96214,0.097 -0.20909,0.0682 -0.77848,0.22861 -0.77848,0.22861 0,0 0.23638,-0.30198 0.623,-0.51133 0.28361,-0.15324 0.87014,-0.26361 0.87014,-0.26361 z"
         id="path6341"
         inkscape:connector-curvature="0"
         sodipodi:nodetypes="cscscc" />
      <path
         style="fill:#95a9af;fill-opacity:1;stroke:none;stroke-width:0.30048081"
         d="m 66.268237,258.22121 c 0,0 0.51213,-0.58503 0.9244,-1.08304 0.22153,-0.26773 -0.005,-0.75786 -0.2396,-1.01464 -0.65507,-0.71842 -2.13478,-1.83334 -2.13478,-1.83334 0,0 1.40727,1.45153 1.87834,2.11595 0.36553,0.51562 -0.42836,1.81507 -0.42836,1.81507 z"
         id="path6361"
         inkscape:connector-curvature="0"
         sodipodi:nodetypes="csscsc" />
      <path
         sodipodi:nodetypes="ssccsss"
         inkscape:connector-curvature="0"
         id="rect5762"
         d="m 42.210415,246.16021 c -0.66306,0 -1.19678,0.53373 -1.19678,1.19679 v 3.62307 h 9.424539 V 247.357 c 0,-0.66306 -0.53373,-1.19679 -1.196768,-1.19679 z"
         style="opacity:1;fill:#738d93;fill-opacity:1;fill-rule:nonzero;stroke:#e6e6e6;stroke-width:0.52916676;stroke-linecap:square;stroke-linejoin:miter;stroke-miterlimit:4;stroke-dasharray:none;stroke-opacity:1;paint-order:markers fill stroke" />
      <g
         style="fill:#ffffff;fill-opacity:1"
         transform="matrix(0.10788353,0,0,0.10788353,-90.360407,190.74722)"
         id="g12500">
        <path
           sodipodi:nodetypes="ccsscsscsssccsscccs"
           d="m 1233.8608,541.61218 v -11.34643 h 5.3162 c 2.1582,10e-6 3.2373,1.168 3.2373,2.92947 0,1.2907 -0.5526,1.98905 -1.8012,2.4819 1.2044,0.32274 1.944,1.13994 1.944,2.57874 0,2.23755 -1.1822,3.35632 -3.5467,3.35632 z m 5.0623,-1.82495 c 0.931,0 1.3965,-0.47607 1.3965,-1.42822 0,-1.1796 -0.6956,-1.76941 -2.0868,-1.76941 h -2.7285 v -1.70546 c 1.3645,0 2.3663,0.0126 3.2502,0.0126 0.9842,0 1.4619,-0.52588 1.4619,-1.56665 0,-0.63476 -0.3914,-1.2394 -1.1743,-1.23941 h -3.0786 v 7.69653 z"
           style="font-style:normal;font-variant:normal;font-weight:bold;font-stretch:normal;font-size:16.25px;line-height:0%;font-family:Sansation;-inkscape-font-specification:'Sansation Bold';text-align:center;letter-spacing:0px;word-spacing:0px;writing-mode:lr-tb;text-anchor:middle;fill:#ffffff;fill-opacity:1;stroke:none"
           id="path12502"
           inkscape:connector-curvature="0" />
        <path
           d="m 1245.2388,530.26575 v 11.34643 h -2.1027 v -11.34643 z"
           style="font-style:normal;font-variant:normal;font-weight:bold;font-stretch:normal;font-size:16.25px;line-height:0%;font-family:Sansation;-inkscape-font-specification:'Sansation Bold';text-align:center;letter-spacing:0px;word-spacing:0px;writing-mode:lr-tb;text-anchor:middle;fill:#ffffff;fill-opacity:1;stroke:none"
           id="path12504"
           inkscape:connector-curvature="0" />
        <path
           d="m 1245.7086,539.01758 c 0,-1.65568 1.2061,-2.48352 3.6182,-2.48352 0.566,0 1.132,0.0529 1.698,0.15869 v -0.62683 c 0,-0.74585 -0.5369,-1.11877 -1.6107,-1.11878 -0.9099,10e-6 -1.9202,0.13225 -3.031,0.39673 v -1.66626 c 1.1108,-0.26448 2.1211,-0.39672 3.031,-0.39673 2.4755,10e-6 3.7133,0.91513 3.7133,2.74537 v 5.58593 h -1.2219 l -0.7458,-0.74585 c -0.7247,0.49724 -1.5235,0.74585 -2.3963,0.74585 -2.0365,0 -3.0548,-0.86486 -3.0548,-2.5946 z m 5.3162,-0.89661 c -0.529,-0.10579 -1.095,-0.15869 -1.698,-0.15869 -1.0104,0 -1.5155,0.34383 -1.5155,1.03149 0,0.74057 0.4232,1.11085 1.2695,1.11084 0.6982,10e-6 1.3462,-0.21687 1.944,-0.65063 z"
           style="font-style:normal;font-variant:normal;font-weight:bold;font-stretch:normal;font-size:16.25px;line-height:0%;font-family:Sansation;-inkscape-font-specification:'Sansation Bold';text-align:center;letter-spacing:0px;word-spacing:0px;writing-mode:lr-tb;text-anchor:middle;fill:#ffffff;fill-opacity:1;stroke:none"
           id="path12506"
           inkscape:connector-curvature="0" />
        <path
           sodipodi:nodetypes="cccccsccscccc"
           d="m 1253.9315,541.61218 v -8.3313 h 1.7371 l 0.1513,1.22193 c 0.7988,-0.81461 1.7086,-1.22192 2.7295,-1.22193 1.9731,10e-6 2.9596,1.02622 2.9596,3.07862 v 5.25268 h -2.1026 v -5.25268 c 0,-0.92041 -0.4576,-1.38061 -1.3727,-1.38062 -0.6824,10e-6 -1.3489,0.27243 -1.9995,0.81726 v 5.81604 z"
           style="font-style:normal;font-variant:normal;font-weight:bold;font-stretch:normal;font-size:16.25px;line-height:0%;font-family:Sansation;-inkscape-font-specification:'Sansation Bold';text-align:center;letter-spacing:0px;word-spacing:0px;writing-mode:lr-tb;text-anchor:middle;fill:#ffffff;fill-opacity:1;stroke:none"
           id="path12508"
           inkscape:connector-curvature="0" />
        <path
           inkscape:connector-curvature="0"
           id="path12510"
           style="font-style:normal;font-variant:normal;font-weight:bold;font-stretch:normal;font-size:16.25px;line-height:0%;font-family:Sansation;-inkscape-font-specification:'Sansation Bold';text-align:center;letter-spacing:0px;word-spacing:0px;writing-mode:lr-tb;text-anchor:middle;fill:#ffffff;fill-opacity:1;stroke:none"
           d="m 1281.3993,541.61218 v -8.3313 h 1.7371 l 0.1513,1.22193 c 0.7988,-0.81461 1.7086,-1.22192 2.7295,-1.22193 1.9731,10e-6 2.9596,1.02622 2.9596,3.07862 v 5.25268 h -2.1026 v -5.25268 c 0,-0.92041 -0.4576,-1.38061 -1.3727,-1.38062 -0.6824,10e-6 -1.3489,0.27243 -1.9995,0.81726 v 5.81604 z"
           sodipodi:nodetypes="cccccsccscccc" />
        <path
           style="color:#000000;display:inline;overflow:visible;visibility:visible;fill:#ffffff;fill-opacity:1;fill-rule:nonzero;stroke:none;enable-background:accumulate"
           d="m 1274.9621,530.26326 c -3.1562,0 -5.7121,2.556 -5.7121,5.71212 0,3.15612 2.5559,5.71212 5.7121,5.71212 3.1562,0 5.7121,-2.556 5.7121,-5.71212 0,-3.15612 -2.5559,-5.71212 -5.7121,-5.71212 z m 0,1.92474 c 2.0931,0 3.7874,1.69426 3.7874,3.78738 0,2.09312 -1.6943,3.78738 -3.7874,3.78738 -2.0931,0 -3.7874,-1.69426 -3.7874,-3.78738 0,-2.09312 1.6943,-3.78738 3.7874,-3.78738 z"
           id="path12512"
           inkscape:connector-curvature="0" />
        <g
           style="fill:#ffffff;fill-opacity:1"
           transform="translate(-3.4375)"
           id="g12514">
          <path
             d="m 1267.9263,530.26575 v 11.34643 h -2.1027 v -11.34643 z"
             style="font-style:normal;font-variant:normal;font-weight:bold;font-stretch:normal;font-size:16.25px;line-height:0%;font-family:Sansation;-inkscape-font-specification:'Sansation Bold';text-align:center;letter-spacing:0px;word-spacing:0px;writing-mode:lr-tb;text-anchor:middle;fill:#ffffff;fill-opacity:1;stroke:none"
             id="path12516"
             inkscape:connector-curvature="0" />
          <path
             inkscape:connector-curvature="0"
             id="path12518"
             style="font-style:normal;font-variant:normal;font-weight:bold;font-stretch:normal;font-size:16.25px;line-height:0%;font-family:Sansation;-inkscape-font-specification:'Sansation Bold';text-align:center;letter-spacing:0px;word-spacing:0px;writing-mode:lr-tb;text-anchor:middle;fill:#ffffff;fill-opacity:1;stroke:none"
             d="m 1272.9431,533.21322 -2.927,4.19948 3.6562,4.19948 h -2.3175 l -3.6562,-4.19948 2.927,-4.19948 z"
             sodipodi:nodetypes="ccccccc" />
        </g>
      </g>
      <path
         sodipodi:nodetypes="ccccc"
         inkscape:connector-curvature="0"
         id="rect5803"
         d="m 40.227826,254.0236 0.113832,0.79789 h 10.768709 l 0.11384,-0.79789 z"
         style="opacity:1;fill:#e6e6e6;fill-opacity:1;fill-rule:nonzero;stroke:none;stroke-width:0.52818024;stroke-linecap:round;stroke-linejoin:miter;stroke-miterlimit:4;stroke-dasharray:none;stroke-opacity:1;paint-order:fill markers stroke" />
      <path
         sodipodi:nodetypes="ccccccc"
         inkscape:connector-curvature="0"
         id="path5808"
         d="m 39.679538,252.60612 0.432523,0.61391 0.02627,0.18397 h 11.175326 l 0.0263,-0.18397 0.43203,-0.61391 z"
         style="opacity:1;fill:#e6e6e6;fill-opacity:1;fill-rule:nonzero;stroke:none;stroke-width:0.52818024;stroke-linecap:round;stroke-linejoin:miter;stroke-miterlimit:4;stroke-dasharray:none;stroke-opacity:1;paint-order:fill markers stroke" />
      <path
         style="fill:#495b5f;fill-opacity:1;stroke:none;stroke-width:0.26458332"
         d="m 45.365424,260.17415 2.134222,-0.87606 -1.913022,1.68178 z"
         id="path11912-3"
         inkscape:connector-curvature="0"
         sodipodi:nodetypes="cccc" />
    </g>
    <g
       id="cone"
       transform="translate(0.53453906,1.8708867)">
      <path
         d="m 74.65994,268.33087 -2.95896,5.92065 v 1.1841 h 20.21958 v -1.1841 l -2.86331,-5.90267 z"
         id="path200"
         inkscape:connector-curvature="0"
         style="fill:#ff7f2a;fill-opacity:1;fill-rule:evenodd;stroke:#495b5f;stroke-width:0.94680899;stroke-miterlimit:4;stroke-dasharray:none;stroke-opacity:1;paint-order:markers stroke fill" />
      <path
         d="m 75.35797,270.75923 c 0,0 0.97497,2.66203 6.08127,2.54792 4.21146,-0.0964 6.43478,-1.41551 6.36437,-2.12325 -0.0707,-0.70774 -4.64211,-17.09825 -4.64211,-17.09825 0,0 -0.73216,-0.52473 -1.50997,-0.52473 -0.77784,0 -1.34357,0.49545 -1.34357,0.49545 l -4.94995,16.70241 z"
         id="path204"
         inkscape:connector-curvature="0"
         style="fill:#ff7f2a;fill-opacity:1;fill-rule:evenodd;stroke:#495b5f;stroke-width:0.5291667;stroke-miterlimit:4;stroke-dasharray:none;stroke-opacity:1" />
      <path
         inkscape:connector-curvature="0"
         id="path6717"
         d="m 83.49426,256.17461 c -0.35103,0.18423 -1.03676,0.46898 -1.9307,0.45542 -0.8046,-0.012 -1.3304,-0.21964 -1.65405,-0.41617 l -1.109,3.74172 c 0.51188,0.30177 1.4632,0.74742 2.69668,0.78537 1.07809,0.0332 2.45962,-0.53521 3.04067,-0.79893 -0.47007,-1.69752 -0.85643,-3.0953 -1.0436,-3.76741 z"
         style="fill:#eaeeef;fill-opacity:1;fill-rule:evenodd;stroke-width:0" />
      <path
         inkscape:connector-curvature="0"
         id="path214"
         d="m 77.60914,263.97638 -1.01452,3.4239 c 0.8047,0.62007 2.60828,1.76656 4.99656,1.77663 2.83094,0.0117 4.46657,-1.13132 5.03435,-1.61481 -0.27601,-1.02704 -0.62536,-2.30086 -0.96897,-3.55568 -0.58086,0.27615 -2.40569,1.08397 -3.96024,1.05619 -1.85784,-0.0324 -3.37307,-0.70635 -4.08718,-1.08623 z"
         style="fill:#eaeeef;fill-opacity:1;fill-rule:evenodd;stroke-width:0" />
      <rect
         ry="0"
         y="274.30411"
         x="71.701859"
         height="1.1314949"
         width="20.2187"
         id="rect6719"
         style="opacity:1;fill:#e0742d;fill-opacity:1;fill-rule:nonzero;stroke:none;stroke-width:0.4734045;stroke-linecap:round;stroke-linejoin:round;stroke-miterlimit:4;stroke-dasharray:none;stroke-opacity:1;paint-order:markers stroke fill" />
    </g>
    <rect
       style="opacity:1;fill:#e0742d;fill-opacity:1;fill-rule:nonzero;stroke:#495b5f;stroke-width:1.05833328;stroke-linecap:round;stroke-linejoin:round;stroke-miterlimit:4;stroke-dasharray:none;stroke-opacity:1;paint-order:markers stroke fill"
       id="rect7642"
       width="105.83333"
       height="119.44047"
       x="-155.7262"
       y="15.785714"
       rx="1.0874745"
       ry="0.618191" />
  </g>
</svg>
